<svg version="1.1" xmlns="http://www.w3.org/2000/svg" viewBox="0 0 793.47265625 629.07421875" width="2380.41796875" height="1887.22265625">
  <!-- svg-source:excalidraw -->
  
  <defs>
    <style>
      @font-face {
        font-family: "Virgil";
        src: url("https://excalidraw.com/Virgil.woff2");
      }
      @font-face {
        font-family: "Cascadia";
        src: url("https://excalidraw.com/Cascadia.woff2");
      }
    </style>
  </defs>
  <rect x="0" y="0" width="793.47265625" height="629.07421875" fill="#ffffff"></rect><g stroke-linecap="round" transform="translate(452.21979595106495 349.38015413441815) rotate(343.77358511809797 29.02249881745712 17.180492695561895)"><path d="M22.36 0.71 C27.99 -0.33, 37.26 -0.06, 42.72 1.73 C48.19 3.52, 52.71 8.06, 55.15 11.45 C57.58 14.83, 59.06 18.75, 57.34 22.06 C55.61 25.37, 50.26 29.15, 44.78 31.29 C39.31 33.43, 30.8 35.18, 24.49 34.88 C18.18 34.58, 11.11 32.45, 6.9 29.51 C2.7 26.57, -0.65 20.97, -0.75 17.26 C-0.85 13.55, 1.84 9.98, 6.28 7.26 C10.73 4.54, 21.88 2.09, 25.93 0.95 C29.99 -0.19, 30.32 0.4, 30.6 0.42 M41.82 1.17 C46.99 2.44, 51.44 5.28, 54.19 8.93 C56.94 12.57, 59.6 19.36, 58.31 23.06 C57.01 26.76, 51.89 29.04, 46.41 31.12 C40.93 33.21, 32.05 36.06, 25.43 35.57 C18.81 35.08, 11.16 31.02, 6.7 28.18 C2.24 25.34, -0.93 21.85, -1.34 18.54 C-1.75 15.22, 0.34 11.11, 4.26 8.3 C8.17 5.49, 15.64 2.66, 22.13 1.69 C28.62 0.72, 40.18 2.39, 43.21 2.46 C46.23 2.53, 40.47 2.18, 40.28 2.09" stroke="#000000" stroke-width="1" fill="none"></path></g><g stroke-linecap="round" transform="translate(449.2463186817082 346.5392548546953) rotate(343.77358511809797 30.04227703812103 10.334052130399414)"><path d="M0.92 -1.54 L58.55 0.18 L60.33 20.39 L-1.37 21.7" stroke="none" stroke-width="0" fill="#fff"></path><path d="M-0.83 0.93 C16.7 -1.64, 32.73 -0.22, 59.5 -1.6 M0.41 -0.47 C21.66 0.96, 43.71 1.12, 59.32 -0.5 M61.88 0.44 C60.34 7.8, 58.91 14.7, 60.33 19.55 M59.12 0.99 C60.63 6.86, 59.72 11.64, 60.97 19.85 M58.11 22.5 C45.01 22.44, 31.99 21.66, -1.99 20.62 M59.33 21.43 C36.34 21.44, 12.76 20.42, -0.5 20.63 M-0.49 19 C0.16 17.52, -0.57 9.88, -1 -0.72 M0.76 19.97 C-0.84 16.19, 0.26 11.32, -0.74 0.51" stroke="#fff" stroke-width="1" fill="none"></path></g><g stroke-linecap="round"><g transform="translate(453.2480367741995 380.6234129890371) rotate(343.77358511809797 -1.0583241146154592 -7.907636118148844)"><path d="M-0.5 0.56 C-0.8 -2.27, -2.44 -13.69, -2.82 -16.37 M1.44 -0.19 C1.1 -2.94, -2.75 -12.92, -3.56 -15.26" stroke="#000000" stroke-width="1" fill="none"></path></g><g transform="translate(453.2480367741995 380.6234129890371) rotate(343.77358511809797 -1.0583241146154592 -7.907636118148844)"><path d="M1.93 -8.89 C-0.11 -10.23, -0.66 -12.07, -4.19 -14.71 M1.37 -9.34 C-0.05 -11.62, -1.88 -13.98, -3.76 -15.21" stroke="#000000" stroke-width="1" fill="none"></path></g><g transform="translate(453.2480367741995 380.6234129890371) rotate(343.77358511809797 -1.0583241146154592 -7.907636118148844)"><path d="M-3.19 -7.03 C-4.13 -8.76, -3.56 -10.99, -4.19 -14.71 M-3.75 -7.48 C-3.25 -10.47, -3.18 -13.53, -3.76 -15.21" stroke="#000000" stroke-width="1" fill="none"></path></g></g><g stroke-linecap="round" transform="translate(23.56029638905318 99.62388549522905) rotate(86.38126779728563 77.48006898615182 45.865994091023225)"><path d="M114.77 6.13 C125.24 8.72, 134.26 13.85, 140.9 19.54 C147.54 25.23, 153.13 33.21, 154.62 40.29 C156.11 47.37, 154.17 55.35, 149.85 62.02 C145.53 68.7, 137.72 75.54, 128.69 80.34 C119.67 85.15, 107.42 89.24, 95.7 90.86 C83.99 92.48, 70 91.75, 58.41 90.05 C46.81 88.36, 34.92 85.41, 26.12 80.68 C17.33 75.95, 9.98 68.37, 5.64 61.67 C1.29 54.97, -1.22 47.42, 0.07 40.49 C1.36 33.56, 6.26 26.06, 13.38 20.09 C20.5 14.11, 31.84 7.93, 42.78 4.66 C53.72 1.39, 65.45 -0.37, 79 0.47 C92.56 1.32, 115.25 7.52, 124.14 9.74 C133.02 11.96, 133.17 13.28, 132.32 13.81 M59.25 -0.14 C69.86 -2.55, 84 -0.26, 95.36 1.58 C106.72 3.42, 118.31 6.02, 127.4 10.92 C136.5 15.81, 145.56 24.32, 149.93 30.93 C154.3 37.55, 155.07 43.98, 153.62 50.59 C152.18 57.2, 147.82 64.7, 141.28 70.57 C134.74 76.45, 124.89 82.5, 114.39 85.83 C103.89 89.15, 90.34 90.29, 78.3 90.52 C66.25 90.75, 52.89 90.13, 42.14 87.21 C31.38 84.29, 20.91 79.09, 13.77 73 C6.63 66.92, 0.86 58.05, -0.71 50.68 C-2.27 43.32, -0.07 35.41, 4.38 28.81 C8.84 22.2, 17 15.53, 26.03 11.06 C35.05 6.59, 52.99 3.27, 58.56 1.97 C64.14 0.67, 59.16 2.43, 59.47 3.27" stroke="#000000" stroke-width="1" fill="none"></path></g><g stroke-linecap="round" transform="translate(47.214557473052196 118.45655650007149) rotate(86.38126779728563 80.20252535989772 27.58835746728417)"><path d="M-0.74 -0.97 L160.7 0.88 L160.77 55.72 L-0.35 54.34" stroke="none" stroke-width="0" fill="#fff"></path><path d="M1.99 -0.68 C61.45 -0.11, 126.5 -2.7, 158.85 0.21 M0.61 -0.26 C38.3 1.41, 75.69 0.89, 161.2 0.89 M161.92 -1.85 C162.02 22.64, 159.84 44.71, 161.35 55.19 M160 0.05 C160.25 19.63, 161.47 38.82, 159.42 54.78 M160.44 57 C108.48 53.52, 58.63 52.79, 1.13 54.33 M160.88 55.19 C104.93 54.97, 47.55 55.41, -0.55 55.16 M0.29 56.56 C-0.33 42.09, -0.04 25.77, 0.46 -1.95 M-0.34 55.87 C-0.16 41.54, 0.68 26.44, 0.41 -0.62" stroke="#fff" stroke-width="1" fill="none"></path></g><g stroke-linecap="round"><g transform="translate(102.0601315118816 78.11564118052218) rotate(86.38126779728563 -3.604030815263087 -12.442015061887005)"><path d="M1.19 -0.41 C-0.26 -4.28, -7.04 -18.63, -8.4 -22.59 M0.36 -1.67 C-0.73 -5.96, -4.78 -20.85, -6.07 -24.48" stroke="#000000" stroke-width="1" fill="none"></path></g><g transform="translate(102.0601315118816 78.11564118052218) rotate(86.38126779728563 -3.604030815263087 -12.442015061887005)"><path d="M0.83 -15.52 C-0.74 -17.15, -4.69 -21.96, -5.94 -25.27 M1.08 -14.37 C-0.91 -17.66, -3.64 -20.66, -5.53 -23.89" stroke="#000000" stroke-width="1" fill="none"></path></g><g transform="translate(102.0601315118816 78.11564118052218) rotate(86.38126779728563 -3.604030815263087 -12.442015061887005)"><path d="M-7.11 -13.09 C-6.11 -15.59, -7.48 -21.19, -5.94 -25.27 M-6.86 -11.94 C-6.22 -16.07, -6.32 -19.88, -5.53 -23.89" stroke="#000000" stroke-width="1" fill="none"></path></g></g><g stroke-linecap="round" transform="translate(51.91256833901764 172.62542105189567) rotate(83.6455182292105 53.28378405916706 31.54248256079788)"><path d="M68.54 1.27 C77.66 2.46, 88.38 6.34, 94.72 10.75 C101.06 15.17, 105.48 22.2, 106.59 27.76 C107.7 33.32, 105.67 39.03, 101.41 44.12 C97.14 49.21, 88.92 55.3, 80.99 58.3 C73.07 61.3, 63.22 62.17, 53.86 62.12 C44.51 62.07, 33.03 60.97, 24.84 58 C16.65 55.04, 8.69 49.52, 4.72 44.35 C0.74 39.17, -0.3 32.58, 0.99 26.94 C2.27 21.3, 6.21 14.86, 12.43 10.51 C18.65 6.17, 27.59 1.93, 38.32 0.86 C49.05 -0.2, 69.04 3.04, 76.81 4.12 C84.58 5.21, 85.16 7.04, 84.94 7.39 M68.91 0.98 C77.67 2.1, 87.13 5.26, 93.05 9.69 C98.98 14.13, 103.07 21.92, 104.47 27.61 C105.87 33.3, 105.34 38.92, 101.46 43.83 C97.57 48.73, 89.07 53.81, 81.17 57.05 C73.28 60.29, 63.38 62.86, 54.07 63.26 C44.76 63.67, 33.7 62.5, 25.31 59.49 C16.92 56.48, 7.9 50.58, 3.72 45.21 C-0.46 39.83, -1.44 33.05, 0.23 27.22 C1.91 21.4, 7.46 14.71, 13.77 10.27 C20.09 5.83, 28.91 1.93, 38.12 0.58 C47.33 -0.76, 64.14 2.21, 69.01 2.19 C73.87 2.16, 67.84 -0.14, 67.31 0.43" stroke="#000000" stroke-width="1" fill="none"></path></g><g stroke-linecap="round" transform="translate(68.17737451597117 184.7106000701782) rotate(83.6455182292105 55.156043330839935 18.972777142165626)"><path d="M-0.98 -1.14 L109.75 -1.14 L110.47 37.66 L-1.71 37.48" stroke="none" stroke-width="0" fill="#fff"></path><path d="M1.16 -0.1 C34.95 -0.48, 72.23 1.54, 109.8 1.05 M-0.87 0.13 C40 -0.22, 78.88 0.76, 110.33 -0.15 M109.81 -0.43 C109.59 12.33, 111.92 27.11, 111.73 39.51 M109.39 0.76 C110.38 11.62, 109.89 22.43, 110.9 37.6 M110.63 38.19 C81.57 38.97, 50.07 37.67, -0.31 37.75 M109.79 38.77 C69.68 38.11, 26.8 37.9, 0.91 38.17 M1.59 38.07 C-0.18 25.59, 0.61 13.42, -1.3 -0.41 M-0.8 38.68 C0.85 22.32, 1.02 7.59, -0.1 0.15" stroke="#fff" stroke-width="1" fill="none"></path></g><g stroke-linecap="round"><g transform="translate(108.07123416303745 158.13959711384484) rotate(83.6455182292105 -2.364905034791434 -9.8035599036956)"><path d="M0.7 -0.06 C-0.29 -3.4, -4.52 -16.5, -5.43 -19.55 M-0.4 -1.13 C-1.03 -4.31, -2.24 -14.87, -3.1 -18.02" stroke="#000000" stroke-width="1" fill="none"></path></g><g transform="translate(108.07123416303745 158.13959711384484) rotate(83.6455182292105 -2.364905034791434 -9.8035599036956)"><path d="M1.99 -10 C0.23 -12.35, -0.5 -15.49, -2.57 -17.47 M2.1 -8.96 C0.19 -11.53, -0.74 -14.21, -3.18 -17.82" stroke="#000000" stroke-width="1" fill="none"></path></g><g transform="translate(108.07123416303745 158.13959711384484) rotate(83.6455182292105 -2.364905034791434 -9.8035599036956)"><path d="M-4.76 -8.72 C-4.22 -11.54, -2.66 -15.13, -2.57 -17.47 M-4.65 -7.68 C-4.68 -10.55, -3.74 -13.58, -3.18 -17.82" stroke="#000000" stroke-width="1" fill="none"></path></g></g><g stroke-linecap="round" transform="translate(156.25021528259737 302.9739603463222) rotate(34.80005336467319 33.65373934146743 19.922055181087444)"><path d="M31.05 0.4 C37.93 -0.16, 47.92 0.84, 53.7 3.14 C59.48 5.43, 63.82 10.09, 65.71 14.16 C67.59 18.23, 67.92 23.75, 65.03 27.58 C62.14 31.41, 55 35.06, 48.38 37.13 C41.76 39.2, 32.33 41.04, 25.32 40 C18.3 38.97, 10.47 34.71, 6.28 30.92 C2.09 27.12, -0.41 21.53, 0.17 17.23 C0.76 12.94, 4.2 8.07, 9.8 5.13 C15.41 2.19, 29.37 0.33, 33.8 -0.41 C38.23 -1.15, 36.5 0.32, 36.38 0.7 M31.72 -0.53 C38.11 -1.36, 46.02 -0.22, 51.92 2.32 C57.82 4.86, 65.07 10.2, 67.14 14.7 C69.2 19.2, 67.63 25.24, 64.33 29.32 C61.03 33.39, 54.02 37.65, 47.35 39.14 C40.68 40.63, 31.3 39.39, 24.31 38.27 C17.33 37.14, 9.35 35.61, 5.43 32.4 C1.52 29.19, 0.27 23.41, 0.82 19.01 C1.37 14.61, 3.52 9.04, 8.74 5.99 C13.97 2.94, 28.61 1.63, 32.18 0.71 C35.74 -0.21, 30.36 0.39, 30.14 0.48" stroke="#000000" stroke-width="1" fill="none"></path></g><g stroke-linecap="round" transform="translate(162.3759129299999 302.0864239335846) rotate(34.80005336467319 34.83624780292655 11.983099695344237)"><path d="M-1.82 1.89 L69.56 0.57 L70.32 24.11 L-1.83 24.71" stroke="none" stroke-width="0" fill="#fff"></path><path d="M-0.33 0.14 C19.74 0.6, 42.85 1.49, 68.63 -0.99 M0.64 -0.89 C16.59 1.45, 32.42 0.23, 69.7 -0.86 M68.85 0.83 C70.02 5.99, 69.22 13.26, 71.39 24 M68.8 0.64 C69.51 8.82, 70.2 17.05, 70.44 23.58 M70.59 25.11 C51.35 24.71, 37.98 25.32, -0.93 23.98 M68.78 23.58 C49.2 24.36, 30.72 23.4, 0.22 23.35 M-0.95 23.17 C-0.73 17.68, 1.12 7.57, 0.86 1.46 M-0.98 23.74 C-0.94 13.52, -0.19 5.14, 0.27 0.96" stroke="#fff" stroke-width="1" fill="none"></path></g><g stroke-linecap="round"><g transform="translate(168.0018351072453 308.94702842866485) rotate(34.80005336467319 -3.5617374089100338 -9.53927788752705)"><path d="M-0.2 0.09 C-1.2 -2.7, -6.01 -14.37, -6.92 -17.15 M-1.76 -0.91 C-2.3 -4.05, -3.89 -16.22, -4.64 -19.17" stroke="#000000" stroke-width="1" fill="none"></path></g><g transform="translate(168.0018351072453 308.94702842866485) rotate(34.80005336467319 -3.5617374089100338 -9.53927788752705)"><path d="M0.08 -11.85 C-0.84 -12.7, -1.47 -15.26, -5.09 -19.8 M-0.39 -10.99 C-1.36 -14.2, -3.75 -17.44, -5.03 -19.24" stroke="#000000" stroke-width="1" fill="none"></path></g><g transform="translate(168.0018351072453 308.94702842866485) rotate(34.80005336467319 -3.5617374089100338 -9.53927788752705)"><path d="M-6.11 -10.71 C-5.64 -11.81, -4.89 -14.62, -5.09 -19.8 M-6.59 -9.85 C-5.1 -13.55, -5.05 -17.24, -5.03 -19.24" stroke="#000000" stroke-width="1" fill="none"></path></g></g><g stroke-linecap="round" transform="translate(308.1494401721367 358.2716776880836) rotate(359.84469269016466 33.65373934146743 19.922055181087444)"><path d="M41.83 0.12 C48.52 0.94, 56.74 5.27, 60.85 8.65 C64.96 12.03, 66.86 16.32, 66.51 20.4 C66.15 24.48, 63.61 29.99, 58.72 33.14 C53.82 36.29, 44.46 38.72, 37.14 39.29 C29.82 39.87, 20.62 38.74, 14.81 36.59 C8.99 34.43, 4.36 30.33, 2.25 26.35 C0.15 22.38, -0.62 16.92, 2.17 12.73 C4.96 8.53, 11.91 3.28, 19 1.2 C26.08 -0.88, 39.69 -0.09, 44.7 0.24 C49.71 0.57, 49.17 2.61, 49.06 3.16 M40.96 -0.66 C47.82 0.03, 54.38 5.35, 58.9 8.61 C63.41 11.87, 67.99 14.93, 68.07 18.92 C68.14 22.91, 64.22 29.13, 59.36 32.55 C54.49 35.96, 46.18 38.63, 38.85 39.41 C31.53 40.18, 21.54 39.14, 15.41 37.21 C9.28 35.27, 4.05 31.83, 2.07 27.79 C0.1 23.75, 1.25 17.25, 3.54 12.96 C5.83 8.67, 9.79 4.33, 15.8 2.07 C21.81 -0.19, 35.61 -0.62, 39.59 -0.59 C43.57 -0.56, 39.5 1.68, 39.68 2.25" stroke="#000000" stroke-width="1" fill="none"></path></g><g stroke-linecap="round" transform="translate(307.8996945935827 354.7893027273411) rotate(359.84469269016466 34.83624780292655 11.983099695344208)"><path d="M1.54 -1.51 L71.06 -1.48 L69.62 22.36 L-1.61 24.19" stroke="none" stroke-width="0" fill="#fff"></path><path d="M1.29 1.14 C18.83 -1.4, 39.25 1.82, 68.3 1.82 M-0.45 -0.61 C22.78 -0.72, 46.31 0.49, 70.49 0.65 M71.23 0.75 C69.93 4.2, 71.51 10.64, 68.3 22.29 M69.69 0.65 C70.03 6.43, 69.62 11.82, 70.25 23.13 M67.68 22 C48.07 24.8, 24.49 23.24, -1.47 25.78 M68.91 22.97 C48.24 23.21, 27.92 22.55, -0.69 23.98 M1.11 22.8 C0.6 18.99, 1.12 11.26, -1.63 0.95 M0.23 24.77 C-0.55 17.09, -0.88 11.06, 0.73 0.37" stroke="#fff" stroke-width="1" fill="none"></path></g><g stroke-linecap="round"><g transform="translate(308.9121656576832 384.9848342285958) rotate(359.84469269016466 -1.6939938364784553 -8.68394718990396)"><path d="M0.9 -0.82 C0.48 -3.63, -2.85 -14.24, -3.48 -17.11 M-0.09 1.37 C-0.56 -1.74, -3.77 -15.72, -4.29 -18.74" stroke="#000000" stroke-width="1" fill="none"></path></g><g transform="translate(308.9121656576832 384.9848342285958) rotate(359.84469269016466 -1.6939938364784553 -8.68394718990396)"><path d="M-0.08 -10.68 C0.22 -11.91, -1.57 -15.14, -4.88 -18.25 M0.22 -11.31 C-1.3 -14.08, -2.9 -16.94, -4.61 -18.94" stroke="#000000" stroke-width="1" fill="none"></path></g><g transform="translate(308.9121656576832 384.9848342285958) rotate(359.84469269016466 -1.6939938364784553 -8.68394718990396)"><path d="M-6.26 -9.41 C-4.59 -10.97, -5.01 -14.48, -4.88 -18.25 M-5.96 -10.04 C-5.17 -13.25, -4.47 -16.58, -4.61 -18.94" stroke="#000000" stroke-width="1" fill="none"></path></g></g><g transform="translate(238.4411301928386 191.14756322061504) rotate(0 22.271571728376045 7.55642612212759)"><text x="0" y="12.112852244255176" font-family="Helvetica, Segoe UI Emoji" font-size="12.726612416214882px" fill="#000000" text-anchor="start" style="white-space: pre;" direction="ltr">cmd idx</text></g><g stroke-linecap="round" transform="translate(328.056640625 10) rotate(0 48.533203125 108.6796875)"><path d="M22.34 -1.93 L79.36 0.33 L88.38 3.77 L89.91 5.77 L96.58 13.61 L98.71 23.95 L98.96 192.17 L95.11 206.94 L91.54 209.64 L83.18 216.33 L70.95 216.27 L19.58 217.04 L11.4 214.31 L2.07 209.24 L0.62 202.46 L1.23 194.53 L-0.64 19.2 L1.67 10.3 L8.32 4.38 L22.58 1.47" stroke="none" stroke-width="0" fill="#fab005"></path><path d="M24.27 0 M24.27 0 C34.88 0.14, 43.22 1.18, 72.8 0 M24.27 0 C44.32 -0.49, 63.24 -0.21, 72.8 0 M72.8 0 C87.28 -0.03, 98.86 9.77, 97.07 24.27 M72.8 0 C89.13 0.22, 95.6 5.96, 97.07 24.27 M97.07 24.27 C96.67 75.38, 98.44 126.82, 97.07 193.09 M97.07 24.27 C98.29 72.37, 97.2 120.52, 97.07 193.09 M97.07 193.09 C95.13 209.21, 87.06 218.49, 72.8 217.36 M97.07 193.09 C95.71 211.14, 91.25 218.41, 72.8 217.36 M72.8 217.36 C54.61 215.66, 36.96 216.07, 24.27 217.36 M72.8 217.36 C61.04 217.8, 51.75 216.87, 24.27 217.36 M24.27 217.36 C9.62 218.11, 0.38 209.96, 0 193.09 M24.27 217.36 C9.27 215.4, -0.15 207.48, 0 193.09 M0 193.09 C-0.5 151.44, -0.3 107.71, 0 24.27 M0 193.09 C-0.62 144.07, -0.81 96.11, 0 24.27 M0 24.27 C-0.96 7.39, 6.11 0.62, 24.27 0 M0 24.27 C-0.17 5.81, 8.19 0.37, 24.27 0" stroke="#000000" stroke-width="1" fill="none"></path></g><g transform="translate(345.09375 107.18359375) rotate(0 31.5 11.5)"><text x="0" y="19" font-family="Helvetica, Segoe UI Emoji" font-size="20px" fill="#40c057" text-anchor="start" style="white-space: pre;" direction="ltr">Leader</text></g><g stroke-linecap="round" transform="translate(104.19681652607579 16.57224226621915) rotate(0 47.681263316478976 18.139611044312645)"><path d="M9.07 0 M9.07 0 C30.63 -1.66, 49.57 -0.91, 86.29 0 M9.07 0 C38.21 0.13, 65.49 -0.56, 86.29 0 M86.29 0 C93.47 -1.81, 95.32 2.89, 95.36 9.07 M86.29 0 C94.17 -0.68, 96.76 1.49, 95.36 9.07 M95.36 9.07 C93.85 15.24, 94.42 20.07, 95.36 27.21 M95.36 9.07 C95.14 14.3, 96.02 19.1, 95.36 27.21 M95.36 27.21 C95.32 34.52, 90.63 37.32, 86.29 36.28 M95.36 27.21 C96.13 33.54, 93.95 38.45, 86.29 36.28 M86.29 36.28 C60.45 36.67, 32.72 34.42, 9.07 36.28 M86.29 36.28 C63.03 36.36, 39.06 35.26, 9.07 36.28 M9.07 36.28 C3.62 35.07, 1.69 31.98, 0 27.21 M9.07 36.28 C4.19 34.89, 1.53 31.93, 0 27.21 M0 27.21 C1.41 21.06, 0.91 15.29, 0 9.07 M0 27.21 C-0.53 24.19, -0.1 20.25, 0 9.07 M0 9.07 C0.08 1.34, 2.94 -0.23, 9.07 0 M0 9.07 C1.81 2.73, 2.51 0.75, 9.07 0" stroke="#000000" stroke-width="1" fill="none"></path></g><g transform="translate(109.19681652607579 22.711853310531808) rotate(0 42.681263316478976 12)"><text x="42.68126331647897" y="19" font-family="Helvetica, Segoe UI Emoji" font-size="20.820128447062896px" fill="#000000" text-anchor="middle" style="white-space: pre;" direction="ltr">client 1</text></g><g stroke-linecap="round" transform="translate(107.20138382690772 104.45208802437162) rotate(0 47.681263316478976 18.13961104431263)"><path d="M9.07 0 M9.07 0 C32.52 1.76, 54.14 0.92, 86.29 0 M9.07 0 C29.01 -0.42, 50.88 0.1, 86.29 0 M86.29 0 C92.04 -0.1, 96.89 2.9, 95.36 9.07 M86.29 0 C93.54 0.96, 96.05 4.57, 95.36 9.07 M95.36 9.07 C95.83 16.23, 95.96 24.3, 95.36 27.21 M95.36 9.07 C95.42 16.23, 95.8 22.27, 95.36 27.21 M95.36 27.21 C95.29 33.6, 91.45 37.35, 86.29 36.28 M95.36 27.21 C93.49 35.07, 90.88 38.56, 86.29 36.28 M86.29 36.28 C65.11 36.24, 43.97 36.2, 9.07 36.28 M86.29 36.28 C55.76 37.25, 25.69 37.28, 9.07 36.28 M9.07 36.28 C2.49 36.02, 1.67 34.84, 0 27.21 M9.07 36.28 C5.32 35.99, -0.26 32.39, 0 27.21 M0 27.21 C0.63 18.81, -1.31 13.24, 0 9.07 M0 27.21 C-0.8 22.42, 0.76 17.94, 0 9.07 M0 9.07 C1.06 4.94, 3.78 0.89, 9.07 0 M0 9.07 C-1.38 4.11, 1.36 1.49, 9.07 0" stroke="#000000" stroke-width="1" fill="none"></path></g><g transform="translate(112.20138382690772 110.59169906868425) rotate(0 42.681263316478976 12)"><text x="42.68126331647897" y="19" font-family="Helvetica, Segoe UI Emoji" font-size="20.820128447062896px" fill="#000000" text-anchor="middle" style="white-space: pre;" direction="ltr">client n</text></g><g transform="translate(147.54973233677003 61.9592300821534) rotate(89.99999999999994 12.438590430385801 16.5847872405144)"><text x="0" y="26.16957448102881" font-family="Helvetica, Segoe UI Emoji" font-size="29.023377670900214px" fill="#000000" text-anchor="start" style="white-space: pre;" direction="ltr">...</text></g><g stroke-linecap="round"><g transform="translate(199.69921875 35.0131139586245) rotate(0 60.80802658887555 0.2327977091319866)"><path d="M-0.5 -0.84 C19.87 -0.95, 101.82 -0.62, 122.11 -0.63 M1.45 1.33 C21.63 1.37, 100.62 0.82, 120.97 0.58" stroke="#000000" stroke-width="1" fill="none"></path></g><g transform="translate(199.69921875 35.0131139586245) rotate(0 60.80802658887555 0.2327977091319866)"><path d="M91.47 10.48 C100.08 6.12, 107.86 4.3, 122.43 1.98 M92.91 10.7 C99.39 8.75, 105.53 6.32, 121.85 0.36" stroke="#000000" stroke-width="1" fill="none"></path></g><g transform="translate(199.69921875 35.0131139586245) rotate(0 60.80802658887555 0.2327977091319866)"><path d="M91.29 -10.04 C99.95 -8.37, 107.79 -4.16, 122.43 1.98 M92.73 -9.82 C99.44 -6.78, 105.62 -4.23, 121.85 0.36" stroke="#000000" stroke-width="1" fill="none"></path></g></g><g stroke-linecap="round"><g transform="translate(203.97292822387317 122.9805291553202) rotate(0 58.717380604512556 0.1981394465107087)"><path d="M-0.8 0.83 C19.08 0.93, 98.31 1.1, 118.24 0.91 M0.98 0.22 C20.79 -0.01, 97.69 -0.72, 117.23 -0.58" stroke="#000000" stroke-width="1" fill="none"></path></g><g transform="translate(203.97292822387317 122.9805291553202) rotate(0 58.717380604512556 0.1981394465107087)"><path d="M90.44 9.54 C96.94 8.43, 100.87 3.71, 115.36 -2.05 M88.32 9.85 C100.09 5.71, 111.08 2.51, 116.64 -0.42" stroke="#000000" stroke-width="1" fill="none"></path></g><g transform="translate(203.97292822387317 122.9805291553202) rotate(0 58.717380604512556 0.1981394465107087)"><path d="M90.4 -10.98 C96.95 -7.77, 100.89 -8.17, 115.36 -2.05 M88.27 -10.67 C100.03 -7.16, 111.03 -2.71, 116.64 -0.42" stroke="#000000" stroke-width="1" fill="none"></path></g></g><g transform="translate(215.64545789915041 17.92943728690355) rotate(0 36.99757414237371 16.013875375057253)"><text x="0" y="13.01387537505725" font-family="Helvetica, Segoe UI Emoji" font-size="13.544831569707554px" fill="#000000" text-anchor="start" style="white-space: pre;" direction="ltr">RPC with</text><text x="0" y="29.0277507501145" font-family="Helvetica, Segoe UI Emoji" font-size="13.544831569707554px" fill="#000000" text-anchor="start" style="white-space: pre;" direction="ltr">clientId,opId</text></g><g transform="translate(214.69396809456293 107.38247132589476) rotate(0 36.99757414237371 16.01387537505724)"><text x="0" y="13.01387537505725" font-family="Helvetica, Segoe UI Emoji" font-size="13.544831569707554px" fill="#000000" text-anchor="start" style="white-space: pre;" direction="ltr">RPC with</text><text x="0" y="29.0277507501145" font-family="Helvetica, Segoe UI Emoji" font-size="13.544831569707554px" fill="#000000" text-anchor="start" style="white-space: pre;" direction="ltr">clientId,opId</text></g><g stroke-linecap="round" transform="translate(107.90587972114736 250.048955122528) rotate(179.88784521861513 62.23634641694616 10.128311093734766)"><path d="M-1.48 -0.81 C40.41 0, 80.34 -0.83, 124.57 -0.39 M0.72 0.92 C26.97 1.14, 53.67 0.05, 125.39 0.87 M126.32 -0.82 C122.84 3.86, 125.34 11.52, 123.78 20.38 M124.85 -0.38 C125.46 5.4, 125 12.17, 124.84 20.7 M125.4 22.16 C81.04 18.59, 39.04 20.65, 0.85 21.97 M124.67 19.59 C91.39 19.46, 59.42 18.32, 0.56 20.43 M-1.03 21.19 C0.47 11.63, -1.89 4.87, 1.31 -0.37 M0.44 19.29 C0.65 16.51, -1.14 10.32, 0.83 0.64" stroke="#000000" stroke-width="1" fill="none"></path></g><g stroke-linecap="round" transform="translate(232.46557521906584 249.87314055750903) rotate(179.88784521861513 27.49377295124617 10.128311093734766)"><path d="M-0.81 -0.06 C14.22 -0.2, 27.48 0.51, 54.6 -1.72 M0.92 0.34 C21.76 0.02, 41.94 0.52, 55.86 -0.3 M54.16 -1.44 C53.39 5.19, 55.57 7.57, 55.11 20.47 M54.61 0.95 C54.24 6.96, 54.71 13.31, 55.43 20.68 M56.89 19.45 C37.3 20.34, 22.68 21.36, 1.71 19.43 M54.32 19.37 C37.08 19.72, 17.85 20.93, 0.17 20.62 M0.94 20.66 C-1.8 12.87, -1.74 10.71, -0.37 -1.58 M-0.97 21.1 C0.9 11.29, -0.81 5.05, 0.64 0.43" stroke="#000000" stroke-width="1" fill="none"></path></g><g stroke-linecap="round" transform="translate(107.91201546305933 189.3126921676768) rotate(179.88784521861513 62.23634641694616 10.128311093734766)"><path d="M-0.06 0.14 C38.2 -0.18, 77.71 0.11, 122.75 1.74 M0.34 0.5 C31.32 -1.73, 62.72 -0.27, 124.18 -0.96 M123.04 -1.62 C125.72 6.88, 123.97 12.77, 124.69 20.65 M125.42 -0.9 C125.03 7.12, 124.92 15.53, 124.9 20.29 M123.67 19.24 C93.49 22.49, 63.7 23.16, -0.83 20.84 M123.59 20.45 C96.37 18.48, 70.12 19.6, 0.36 19.93 M0.4 18.44 C-1.85 12.62, 1.41 8.14, -1.58 1.92 M0.85 20.98 C-1.04 14.98, 0.74 12.32, 0.43 0.22" stroke="#000000" stroke-width="1" fill="none"></path></g><g stroke-linecap="round" transform="translate(232.47171096097668 189.1368776026584) rotate(179.88784521861513 27.49377295124617 10.128311093734766)"><path d="M0.14 -0.6 C11.76 0.12, 24.49 -1.71, 56.72 -1.03 M0.5 0.42 C19.87 0.73, 41.79 -0.48, 54.03 0.12 M53.37 1.06 C55.46 7.26, 55.03 16.11, 55.38 21.7 M54.09 0.48 C54.48 7.21, 55.36 14.11, 55.02 19.73 M53.98 20.08 C36.98 20.88, 18.59 19.21, 0.58 18.67 M55.18 19.61 C36.46 20.34, 19.99 20.13, -0.32 20.16 M-1.82 18.3 C-1.86 16.53, -0.47 8.6, 1.92 -1.76 M0.72 19.31 C-0.79 14.12, 0.84 6.75, 0.22 -0.82" stroke="#000000" stroke-width="1" fill="none"></path></g><g stroke-linecap="round" transform="translate(107.8662583017865 229.66991111962113) rotate(179.88784521861513 62.23634641694616 10.128311093734766)"><path d="M0.1 -0.39 C36.5 2.16, 75.41 1.86, 126.31 0.69 M0.92 0.87 C43.23 -0.22, 87.17 1.66, 124.06 -0.72 M123.78 0.12 C124.8 4.83, 126.03 9.63, 123.71 22.16 M124.84 0.45 C125 4.29, 124.05 8.98, 125.43 19.86 M125.32 21.97 C92.6 21.49, 60.8 21.3, -1.33 18.49 M125.04 20.43 C85.11 18.76, 44.93 18.56, 0.47 20.46 M1.31 19.88 C-1.38 17.94, -1.57 12.67, -1.94 1.69 M0.83 20.9 C0.62 12.94, -0.63 4.28, -0.94 -0.71" stroke="#000000" stroke-width="1" fill="none"></path></g><g stroke-linecap="round" transform="translate(232.42595379970248 229.49409655460158) rotate(179.88784521861513 27.49377295124617 10.128311093734766)"><path d="M-0.39 -1.72 C16.57 -1.06, 31.11 1.8, 55.68 0.99 M0.87 -0.3 C17.84 -0.38, 38.52 -0.92, 54.27 -0.81 M55.11 0.22 C55.43 8.6, 55.8 13.54, 56.89 18.46 M55.43 0.42 C54.93 6.53, 55.37 15.07, 54.59 19.75 M56.7 19.43 C39.55 18.9, 23.35 19.16, -1.77 20.64 M55.16 20.62 C41.73 20.47, 28.6 21.03, 0.2 19.35 M-0.37 18.67 C2.1 14.4, 1.06 10.13, 1.69 1.45 M0.64 20.69 C0.42 15.27, -0.7 11, -0.71 -0.66" stroke="#000000" stroke-width="1" fill="none"></path></g><g stroke-linecap="round" transform="translate(107.68452252133909 209.42880164364908) rotate(179.88784521861513 62.23634641694616 10.128311093734766)"><path d="M-1.72 1.74 C32.07 1.68, 68.05 0.93, 125.47 0.84 M-0.3 -0.96 C30.09 -0.16, 59.53 -1.8, 123.66 0.53 M124.69 0.39 C125.85 7.4, 123.64 15.19, 122.67 21.22 M124.9 0.03 C124.02 5.68, 125.5 10.03, 123.97 20.17 M123.65 20.84 C79.03 21.72, 35.43 19.56, 0.38 18.96 M124.83 19.93 C98.83 19.96, 73.85 20.67, -0.91 19.28 M-1.58 22.18 C-1.9 16.85, -2.07 13.37, 1.45 -1.89 M0.43 20.48 C-0.99 15.29, -1.11 11.4, -0.66 0.36" stroke="#000000" stroke-width="1" fill="none"></path></g><g stroke-linecap="round" transform="translate(232.24421801925655 209.25298707863055) rotate(179.88784521861513 27.49377295124617 10.128311093734766)"><path d="M1.74 -1.03 C18.22 2.31, 34.24 1.47, 55.82 -1.18 M-0.96 0.12 C22.47 -0.25, 42.37 -0.65, 55.52 0.28 M55.38 1.45 C55.76 4.62, 56.9 8.96, 55.95 19.41 M55.02 -0.52 C55.54 7.78, 54.68 13.15, 54.9 20.78 M55.57 18.67 C36.56 18.7, 15.57 20.41, -1.29 18.36 M54.67 20.16 C34.87 20.92, 15.99 19.55, -0.98 19.37 M1.92 18.49 C0.92 10.92, 1.73 6.9, -1.89 -1.98 M0.22 19.43 C-1.03 11.56, -0.84 4.07, 0.36 0.13" stroke="#000000" stroke-width="1" fill="none"></path></g><g stroke-linecap="round"><g transform="translate(326.9176978417054 206.61604354411588) rotate(0 -19.155454792191108 6.5161409172896185)"><path d="M-0.33 0.98 C-6.92 3.25, -32.42 10.62, -38.83 12.58 M1.7 0.45 C-5.16 2.45, -33.1 9.07, -40.01 10.8" stroke="#000000" stroke-width="1" fill="none"></path></g></g><g transform="translate(142.03531034563514 271.3761981141986) rotate(0 58.85206482492475 10.165356651577923)"><text x="0" y="16.33071330315583" font-family="Helvetica, Segoe UI Emoji" font-size="17.120600676341745px" fill="#000000" text-anchor="start" style="white-space: pre;" direction="ltr">command table</text></g><g transform="translate(258.8507330982027 211.03566554965204) rotate(0 3.9430013020414663 7.491702473878803)"><text x="0" y="11.983404947757597" font-family="Helvetica, Segoe UI Emoji" font-size="12.617604166532717px" fill="#000000" text-anchor="start" style="white-space: pre;" direction="ltr">1</text></g><g transform="translate(258.4193693862403 248.46503259085785) rotate(0 4.89386298606405 9.298339673521667)"><text x="0" y="15.59667934704332" font-family="Helvetica, Segoe UI Emoji" font-size="15.660361555404906px" fill="#000000" text-anchor="start" style="white-space: pre;" direction="ltr">n</text></g><g transform="translate(254.87548875988216 222.28609903171827) rotate(0 8.237123102734927 11.178952782283119)"><text x="0" y="18.357905564566213" font-family="Helvetica, Segoe UI Emoji" font-size="18.82770994910839px" fill="#000000" text-anchor="start" style="white-space: pre;" direction="ltr">...</text></g><g transform="translate(168.1007561019009 224.4074017762954) rotate(0 7.490262795899525 10.165356651577923)"><text x="0" y="16.33071330315583" font-family="Helvetica, Segoe UI Emoji" font-size="17.120600676341745px" fill="#000000" text-anchor="start" style="white-space: pre;" direction="ltr">...</text></g><g transform="translate(117.87586896153891 190.3657095222702) rotate(0 52.96267850828278 7.509633519831141)"><text x="0" y="12.01926703966228" font-family="Helvetica, Segoe UI Emoji" font-size="12.647803822873492px" fill="#000000" text-anchor="start" style="white-space: pre;" direction="ltr">entry {op, replyCh}</text></g><g transform="translate(120.42974762688186 210.68500626349544) rotate(0 52.545795049688024 7.563409893515711)"><text x="0" y="12.126819787031403" font-family="Helvetica, Segoe UI Emoji" font-size="12.738374557500126px" fill="#000000" text-anchor="start" style="white-space: pre;" direction="ltr">op_1, ch-&gt;client_1</text></g><g transform="translate(118.7274551716817 251.72470786033603) rotate(0 52.96685834243229 6.955244024763829)"><text x="0" y="10.910488049527672" font-family="Helvetica, Segoe UI Emoji" font-size="12.738374557500123px" fill="#000000" text-anchor="start" style="white-space: pre;" direction="ltr">op_n, ch-&gt;client_n</text></g><g stroke-linecap="round" transform="translate(365.5546875 304.3984375) rotate(0 40.572265625 40.572265625)"><path d="M29.67 0.43 C36.27 -1.95, 45.55 -0.39, 52.72 2 C59.89 4.38, 68.07 9.08, 72.68 14.74 C77.29 20.4, 79.68 28.64, 80.4 35.96 C81.13 43.27, 80.3 51.93, 77.03 58.65 C73.77 65.36, 67.06 72.61, 60.83 76.24 C54.6 79.88, 46.9 80.91, 39.65 80.47 C32.39 80.03, 23.53 77.58, 17.29 73.63 C11.05 69.68, 4.89 63.45, 2.2 56.78 C-0.48 50.11, -0.26 41.03, 1.17 33.62 C2.59 26.2, 5.29 17.72, 10.77 12.28 C16.24 6.84, 29.71 2.72, 34.02 0.99 C38.32 -0.74, 36.54 1.32, 36.59 1.92 M45.48 0.49 C52.36 0.78, 59.43 5.22, 65.1 9.77 C70.77 14.32, 76.97 20.92, 79.51 27.8 C82.05 34.68, 82.02 43.82, 80.32 51.05 C78.63 58.28, 74.56 66.32, 69.34 71.16 C64.12 76, 56.37 79.21, 48.99 80.1 C41.62 81, 32.08 79.27, 25.1 76.51 C18.12 73.75, 11.17 69.46, 7.14 63.55 C3.1 57.64, 1.07 48.5, 0.88 41.06 C0.69 33.63, 2.44 25.06, 5.98 18.93 C9.53 12.8, 15.47 7.59, 22.16 4.28 C28.86 0.97, 42.49 -0.37, 46.15 -0.92 C49.81 -1.48, 44.19 0.11, 44.11 0.94" stroke="none" stroke-width="0" fill="#fa5252"></path><path d="M34.71 -0.2 C41.49 -1.59, 51.69 1.51, 58.45 4.86 C65.21 8.21, 71.51 13.79, 75.27 19.91 C79.03 26.03, 81.04 34.29, 81.02 41.59 C81 48.88, 79.11 57.62, 75.15 63.68 C71.19 69.73, 64.24 75.23, 57.25 77.93 C50.26 80.62, 40.52 81.04, 33.22 79.85 C25.93 78.65, 18.76 75.45, 13.47 70.76 C8.18 66.07, 3.45 58.66, 1.49 51.71 C-0.48 44.75, -0.58 35.98, 1.69 29.03 C3.96 22.08, 8.86 14.7, 15.11 9.99 C21.36 5.29, 34.39 2.36, 39.18 0.81 C43.97 -0.73, 43.87 0.03, 43.84 0.7 M54.93 1.57 C61.59 2.94, 68.99 8.55, 73.41 14.56 C77.83 20.56, 80.89 30.36, 81.44 37.62 C81.99 44.87, 80.32 51.71, 76.69 58.07 C73.07 64.43, 66.01 71.92, 59.7 75.8 C53.39 79.68, 45.86 81.65, 38.84 81.35 C31.82 81.04, 23.44 78.19, 17.59 73.97 C11.74 69.75, 6.33 62.75, 3.74 56.02 C1.15 49.28, 0.63 40.99, 2.04 33.56 C3.46 26.13, 7.63 16.81, 12.23 11.43 C16.83 6.05, 22.56 2.95, 29.64 1.27 C36.73 -0.4, 50.83 1.2, 54.72 1.39 C58.6 1.58, 53.3 1.47, 52.94 2.42" stroke="#000000" stroke-width="1" fill="none"></path></g><g transform="translate(370.5546875 335.470703125) rotate(0 35.5 9.5)"><text x="35.5" y="15" font-family="Helvetica, Segoe UI Emoji" font-size="16px" fill="#000000" text-anchor="middle" style="white-space: pre;" direction="ltr">raft</text></g><g stroke-linecap="round" transform="translate(214.55859375 319.6953125) rotate(0 65.5 22.92578125)"><path d="M81.78 0.09 C92.27 0.58, 104.59 2.83, 112.48 5.76 C120.36 8.68, 126.52 13.9, 129.08 17.63 C131.63 21.35, 130.69 24.44, 127.82 28.11 C124.95 31.78, 119.36 36.76, 111.88 39.65 C104.4 42.53, 93.49 44.52, 82.95 45.43 C72.41 46.35, 59.14 46.17, 48.63 45.11 C38.11 44.04, 27.45 41.68, 19.87 39.04 C12.3 36.4, 6.16 32.94, 3.2 29.26 C0.25 25.57, -0.43 20.72, 2.14 16.93 C4.71 13.14, 10.89 9.2, 18.63 6.52 C26.38 3.85, 37.11 1.62, 48.62 0.86 C60.13 0.09, 80.26 1.56, 87.69 1.94 C95.12 2.31, 93.29 2.88, 93.19 3.1 M54.66 1.52 C64.77 0.43, 78.6 -0.67, 88.72 0.41 C98.84 1.48, 108.72 4.77, 115.36 7.96 C122.01 11.15, 126.58 15.59, 128.57 19.55 C130.55 23.5, 130.81 28.16, 127.27 31.69 C123.73 35.21, 115.6 38.33, 107.33 40.71 C99.06 43.1, 88.26 45.2, 77.65 46.01 C67.04 46.83, 54.02 46.79, 43.67 45.62 C33.33 44.44, 22.91 41.94, 15.57 38.96 C8.23 35.97, 1.62 31.75, -0.37 27.7 C-2.36 23.64, -0.38 18.11, 3.63 14.63 C7.64 11.15, 15.17 9.4, 23.68 6.81 C32.19 4.22, 49.45 0.09, 54.7 -0.91 C59.95 -1.91, 55.14 0.35, 55.18 0.82" stroke="none" stroke-width="0" fill="#40c057"></path><path d="M51.64 0.01 C61.39 -0.95, 75.01 0.55, 85.42 1.89 C95.83 3.22, 106.67 5.17, 114.08 8.04 C121.5 10.92, 127.61 15.59, 129.91 19.15 C132.22 22.71, 131.48 26.06, 127.91 29.41 C124.34 32.75, 116.82 36.63, 108.48 39.22 C100.14 41.81, 88.54 43.89, 77.87 44.94 C67.2 46, 54.58 46.72, 44.45 45.53 C34.31 44.33, 24.1 40.66, 17.08 37.78 C10.06 34.89, 4.68 31.93, 2.34 28.22 C0 24.51, -0.37 19.29, 3.03 15.54 C6.42 11.79, 12.81 8.36, 22.71 5.72 C32.61 3.08, 54.27 0.62, 62.45 -0.32 C70.63 -1.27, 71.65 -0.48, 71.78 0.04 M90.1 1.71 C99.93 3, 112.03 6.96, 118.7 10.19 C125.37 13.43, 128.93 17.31, 130.13 21.12 C131.33 24.94, 130.11 29.62, 125.89 33.09 C121.67 36.56, 113.86 39.86, 104.81 41.92 C95.77 43.98, 82.47 45.17, 71.62 45.43 C60.78 45.69, 49.36 45.02, 39.74 43.49 C30.11 41.95, 20.33 39.08, 13.89 36.2 C7.44 33.32, 2.46 30.06, 1.06 26.19 C-0.35 22.32, 1.3 16.75, 5.45 12.97 C9.59 9.18, 16.96 5.61, 25.93 3.49 C34.9 1.37, 48.42 0.34, 59.27 0.25 C70.12 0.17, 85.64 2.65, 91 2.99 C96.37 3.34, 91.75 2.2, 91.48 2.3" stroke="#000000" stroke-width="1" fill="none"></path></g><g transform="translate(219.55859375 333.12109375) rotate(0 60.5 9.5)"><text x="60.5" y="15" font-family="Helvetica, Segoe UI Emoji" font-size="16px" fill="#000000" text-anchor="middle" style="white-space: pre;" direction="ltr">applier</text></g><g stroke-linecap="round"><g transform="translate(394.35546875 227.125) rotate(0 5.301157546816398 40.64739881636575)"><path d="M0.99 0.5 C2.66 14.01, 8.86 66.83, 10.55 80.14 M0.05 -0.28 C1.52 13.49, 7.85 67.93, 9.63 81.58" stroke="#000000" stroke-width="1" fill="none"></path></g></g><g stroke-linecap="round"><g transform="translate(346.77734375 225.6015625) rotate(0 -27.350507047446456 47.09205375762659)"><path d="M-1.06 0.33 C-10.38 15.7, -46.31 77.96, -55.29 93.33 M0.59 -0.54 C-8.4 15.52, -43.53 79.09, -52.94 94.73" stroke="#000000" stroke-width="1" fill="none"></path></g></g><g stroke-linecap="round" transform="translate(481.1171875 326.4375) rotate(0 60.2109375 18.58984375)"><path d="M46.2 0.52 C55.84 -0.59, 68.58 -0.41, 78.82 0.69 C89.05 1.8, 100.69 4.43, 107.6 7.14 C114.51 9.86, 119.4 13.83, 120.27 16.98 C121.14 20.14, 117.75 23.13, 112.81 26.08 C107.87 29.02, 99.96 32.67, 90.65 34.63 C81.35 36.58, 67.71 38.06, 56.95 37.8 C46.2 37.54, 35.05 35.02, 26.14 33.06 C17.22 31.11, 7.53 29.11, 3.48 26.08 C-0.58 23.05, -0.33 18.12, 1.78 14.9 C3.9 11.68, 8.57 9.34, 16.18 6.78 C23.78 4.22, 41.87 0.59, 47.41 -0.44 C52.96 -1.46, 49.34 0.13, 49.43 0.64 M73.77 -0.78 C83.99 -0.32, 95.07 3.45, 102.69 6.02 C110.3 8.6, 116.95 11.64, 119.44 14.67 C121.92 17.7, 121.43 21.1, 117.57 24.2 C113.72 27.3, 104.96 30.97, 96.31 33.28 C87.66 35.59, 76.67 37.87, 65.69 38.06 C54.71 38.25, 40.18 36.24, 30.41 34.43 C20.64 32.63, 12.03 30.24, 7.06 27.24 C2.09 24.23, 0.05 19.59, 0.61 16.39 C1.17 13.19, 3.96 10.79, 10.43 8.02 C16.89 5.26, 28.88 1.01, 39.39 -0.2 C49.9 -1.4, 67.82 0.67, 73.48 0.79 C79.13 0.92, 73.74 0.57, 73.32 0.56" stroke="none" stroke-width="0" fill="#ced4da"></path><path d="M75.87 0.91 C86.19 1.55, 97.88 4.04, 105.01 6.55 C112.15 9.05, 117.02 12.83, 118.67 15.96 C120.32 19.08, 118.97 22.41, 114.91 25.3 C110.85 28.2, 102.88 31.38, 94.3 33.33 C85.71 35.28, 74.19 36.9, 63.41 37 C52.63 37.09, 39.23 35.54, 29.61 33.92 C19.99 32.3, 10.72 30.08, 5.7 27.29 C0.69 24.5, -1.77 20.67, -0.45 17.19 C0.86 13.72, 6.65 9.12, 13.59 6.45 C20.54 3.78, 29.14 2, 41.21 1.17 C53.29 0.34, 77.16 1.22, 86.06 1.46 C94.95 1.71, 95.24 2.17, 94.57 2.64 M32.95 2.37 C41.42 0.27, 53.47 -1.34, 64.23 -1.33 C75 -1.32, 88.71 0.2, 97.53 2.43 C106.34 4.65, 113.68 8.62, 117.14 12.02 C120.61 15.43, 120.74 19.69, 118.32 22.87 C115.9 26.05, 110.17 28.91, 102.62 31.09 C95.07 33.27, 83.84 35.35, 73.02 35.94 C62.21 36.52, 48.07 35.58, 37.72 34.59 C27.37 33.6, 17.23 32.66, 10.92 30 C4.61 27.35, 0.19 22.11, -0.13 18.68 C-0.44 15.24, 3.64 12.33, 9.03 9.39 C14.43 6.45, 28.63 2.03, 32.26 1.05 C35.9 0.08, 30.65 3.14, 30.84 3.54" stroke="#000000" stroke-width="1" fill="none"></path></g><g transform="translate(486.1171875 335.52734375) rotate(0 55 9.5)"><text x="55" y="15" font-family="Helvetica, Segoe UI Emoji" font-size="16px" fill="#000000" text-anchor="middle" style="white-space: pre;" direction="ltr">snapshoter</text></g><g stroke-linecap="round"><g transform="translate(417.62109375 221.6875) rotate(0 42.247698228042566 55.10046271802858)"><path d="M0.4 0.6 C14.23 18.94, 69.22 91.14, 83.2 109.42 M-0.85 -0.13 C13.32 18.36, 71.29 91.74, 85.35 110.33" stroke="#000000" stroke-width="1" fill="none"></path></g></g><g stroke-linecap="round" transform="translate(520.0802136161119 161.68583796750823) rotate(0 63.95130347688382 10.40740232603622)"><path d="M-1.55 0.66 C33.66 -0.13, 70.75 0.24, 129.61 0.33 M-0.84 -0.44 C45.16 -0.02, 88.39 0.54, 128.67 0.64 M128.49 -0.23 C128.5 6.4, 126.72 9.23, 129.35 19.66 M128.08 0.96 C128.65 4.81, 128.1 10.1, 127.47 20.02 M126.97 22.49 C86.12 23.24, 46.84 22.3, -0.83 22.26 M127.32 21.3 C78.66 21.48, 27.98 21.54, -0.41 19.95 M0.14 18.91 C0.57 15.07, 0.96 9.69, -1.75 0.13 M0.38 21.76 C-0.93 13.83, -0.83 5.32, 0.76 -0.12" stroke="#000000" stroke-width="1" fill="none"></path></g><g stroke-linecap="round" transform="translate(463.4878784858556 161.68583796750823) rotate(0 28.2513791209783 10.40740232603622)"><path d="M0.66 -1.8 C16.66 0.27, 33.51 2.15, 56.83 0.96 M-0.44 0.63 C19.84 -0.2, 39.83 1.24, 57.15 -0.55 M56.27 0.43 C57.75 6.53, 55.47 17.19, 55.34 19.66 M57.46 0.59 C56.47 7.84, 56.71 15.18, 55.71 21 M58.18 19.78 C44.68 20.98, 30.44 19.72, 1.45 22.63 M56.99 21.57 C40.73 20.55, 25.04 20.08, -0.86 20.31 M-1.91 21.34 C-0.72 15.92, -0.9 7.44, 0.13 1.42 M0.94 20.03 C0.69 12.45, -0.09 6.23, -0.12 0.54" stroke="#000000" stroke-width="1" fill="none"></path></g><g stroke-linecap="round" transform="translate(520.0802136161119 140.8869336408415) rotate(0 63.95130347688382 10.40740232603622)"><path d="M-0.17 0.57 C44.32 0.21, 86.18 0.75, 128.59 -1.68 M-0.68 0.98 C33.46 0.11, 64.84 0.25, 127.68 0.29 M126.56 -0.99 C129.4 4.85, 126.8 13.51, 129.82 21.16 M127.94 0.01 C127.59 7.44, 128.21 15.83, 128.64 20.35 M128.33 21.35 C77.97 23.21, 31.51 21.33, 1.09 19.64 M127.97 20.84 C82.86 19.91, 38.12 20.56, 0.75 20.88 M0.92 20.07 C-1.81 16.69, 1.37 13.67, 0.51 0.77 M-0.69 20.78 C0.93 12.48, 0.71 4.69, 0.41 0.15" stroke="#000000" stroke-width="1" fill="none"></path></g><g stroke-linecap="round" transform="translate(463.4878784858556 140.8869336408415) rotate(0 28.2513791209783 10.40740232603622)"><path d="M0.57 1.71 C12.19 1.01, 24.59 0.73, 54.82 -0.89 M0.98 0.76 C21.17 -0.16, 41.83 0.15, 56.79 -0.11 M55.52 1.45 C55.48 5.54, 58.14 15.3, 56.85 22.73 M56.51 -0.43 C55.66 7.67, 55.81 15.71, 56.03 21.65 M57.04 19.98 C43.92 22.75, 28.02 22.03, -1.17 21.79 M56.53 20.41 C34.41 20.35, 13.83 21.6, 0.07 19.86 M-0.75 19.06 C0.19 15.45, 1.43 7.73, 0.77 1.89 M-0.04 21.58 C-0.28 16.74, 0.13 12, 0.15 -0.18" stroke="#000000" stroke-width="1" fill="none"></path></g><g stroke-linecap="round" transform="translate(520.0802136161119 182.48474229417292) rotate(0 63.95130347688382 10.40740232603622)"><path d="M1.71 0.33 C40.58 0.51, 79.91 -2.05, 127.02 1.26 M0.76 0.64 C43.16 -0.47, 87.18 -0.96, 127.79 0.22 M129.35 -1.16 C126.61 9.09, 129.68 15.53, 129.82 22 M127.47 -0.8 C128.1 5.11, 128.65 11.04, 128.74 20.3 M127.07 22.26 C81.9 20.73, 33.36 19.98, 0.98 22.33 M127.49 19.95 C89.46 20.64, 52.78 20.92, -0.95 21.08 M-1.75 20.95 C1.33 16.52, 0.41 10.26, 1.89 -1.57 M0.76 20.69 C0.69 13.32, 0.55 5.39, -0.18 -0.86" stroke="#000000" stroke-width="1" fill="none"></path></g><g stroke-linecap="round" transform="translate(463.4878784858556 182.48474229417292) rotate(0 28.2513791209783 10.40740232603622)"><path d="M0.33 0.96 C17.35 0.2, 31.27 -1.37, 57.77 0.83 M0.64 -0.55 C13.91 -0.66, 26.55 -0.55, 56.72 0.65 M55.34 -1.15 C57.9 6.76, 56.75 11.6, 57.69 20.34 M55.71 0.19 C55.86 7.07, 56.04 13.49, 55.99 21.55 M57.95 22.63 C37.92 21.67, 19.03 21.56, 1.52 20.75 M55.64 20.31 C38.96 21.33, 21.91 19.63, 0.26 20.53 M0.13 22.24 C1.45 14.12, 0.84 8.31, -1.57 1.48 M-0.12 21.36 C0.3 16.42, 0.16 11.01, -0.86 -0.2" stroke="#000000" stroke-width="1" fill="none"></path></g><g transform="translate(494.3841995548926 205.0978904557121) rotate(0 60.15556900855711 10.582924177431352)"><text x="0" y="17.16584835486268" font-family="Helvetica, Segoe UI Emoji" font-size="17.823872298831738px" fill="#000000" text-anchor="start" style="white-space: pre;" direction="ltr">key/value table</text></g><g stroke-linecap="round"><g transform="translate(424.83203125 169.23046875) rotate(0 19.187776133790635 -0.4407078020554138)"><path d="M-0.7 -0.26 C5.72 -0.02, 32.46 0.63, 39.08 0.68 M1.13 -1.44 C7.33 -1.53, 31.88 -1.74, 38.05 -1.3" stroke="#000000" stroke-width="1" fill="none"></path></g></g><g stroke-linecap="round" transform="translate(517.4771426895779 50.499534913661535) rotate(0 65.97088408843388 10.736067838880075)"><path d="M1.51 -1.12 C41.76 -1.48, 86.41 1.62, 133.6 -1.62 M0.78 -0.77 C26.34 -0.02, 53.88 -0.21, 132.69 -0.43 M133.5 -1.95 C133.6 3.67, 133.5 10.36, 130.03 22.34 M131.44 0.9 C132.28 4.79, 131.37 10.23, 132.61 22.41 M130.64 20.36 C80.54 21.32, 30.48 23.46, 0.05 20.29 M131.25 20.92 C78.79 21.25, 27.52 20.3, 0 22.42 M-1.04 21.6 C0.6 14.11, -0.23 10.35, 0.81 -0.85 M-0.19 21.13 C-0.64 15.42, -0.52 9.6, 0.7 0.08" stroke="#000000" stroke-width="1" fill="none"></path></g><g stroke-linecap="round" transform="translate(459.0976229895391 50.499534913661535) rotate(0 29.143556987890747 10.736067838880075)"><path d="M-1.12 -1.06 C11.93 0.34, 28.32 1.22, 56.67 -1.9 M-0.77 -0.73 C18.68 -0.72, 37.37 0.29, 57.86 -0.76 M56.34 1.64 C57.03 8.21, 58.91 11.44, 59.15 20.6 M59.19 0.54 C57.64 4.09, 57.58 9.58, 59.22 22.38 M57.17 21.66 C35.5 22.81, 16.21 21.14, -1.18 23.44 M57.74 20.86 C35.39 21.73, 11.39 21.07, 0.94 21.13 M0.13 21.93 C-1.68 16.08, 0.29 12.24, -0.85 -0.56 M-0.34 20.79 C-0.13 14.93, -0.1 10.24, 0.08 0" stroke="#000000" stroke-width="1" fill="none"></path></g><g stroke-linecap="round" transform="translate(517.3283356858958 28.894994689515613) rotate(0 65.97088408843388 10.736067838880075)"><path d="M0.78 1.75 C33.87 -0.73, 62.53 1.37, 131.68 1.56 M-0.26 -0.39 C30.13 -0.18, 58.01 0.36, 131.45 0.78 M133.47 0.73 C130.21 5.21, 131.24 6.86, 132.54 20.46 M131.57 -0.77 C132.72 9.32, 132.97 17.44, 132.86 20.82 M133.66 22.25 C99.77 19.39, 69.45 22.48, -0.55 20.09 M132.6 20.66 C99.63 22.61, 66.97 21, 0.13 20.95 M-0.37 21.79 C0.77 14.04, -0.61 7.87, -0.78 -0.37 M-0.57 21.29 C0.85 15.84, 0.15 9.09, 0.42 -0.14" stroke="#000000" stroke-width="1" fill="none"></path></g><g stroke-linecap="round" transform="translate(458.9488159858556 28.894994689515613) rotate(0 29.143556987890747 10.736067838880075)"><path d="M1.75 1.66 C12.79 -2.12, 29.29 -0.49, 59.85 -1.55 M-0.39 0.75 C12.78 -0.6, 26.54 -0.34, 59.07 -0.97 M59.01 -1.91 C59.03 7.32, 56.32 16.99, 57.27 23.28 M57.51 0.66 C59.07 8.51, 58.81 16.12, 57.64 20.91 M59.06 21.52 C39.08 23.94, 24.14 21.42, -1.39 20.37 M57.48 21.47 C45.29 21.52, 29.75 21.99, -0.52 21.54 M0.31 22.29 C-0.67 13.98, -0.26 6.82, -0.37 -0.68 M-0.19 22.18 C0.13 16.5, -0.9 11.94, -0.14 0.16" stroke="#000000" stroke-width="1" fill="none"></path></g><g stroke-linecap="round" transform="translate(517.4771426895779 71.80646113044156) rotate(0 65.97088408843388 10.736067838880075)"><path d="M1.66 -1.62 C28.78 -0.68, 61.1 0.41, 130.4 -1.47 M0.75 -0.43 C36.28 0.62, 73.58 1.29, 130.97 0.82 M130.03 0.86 C131.23 3.36, 132.7 9.41, 133.75 22.55 M132.61 0.94 C132.77 5.59, 132.78 9.19, 131.38 21.56 M131.99 20.29 C103.34 23.89, 70.26 20.6, -1.1 20.25 M131.94 22.42 C90.11 19.74, 49.08 19.88, 0.06 21.7 M0.81 20.62 C-0.52 16.36, -0.74 11.75, -0.68 -1.37 M0.7 21.56 C0.13 14.54, 0.54 9.36, 0.16 -0.05" stroke="#000000" stroke-width="1" fill="none"></path></g><g stroke-linecap="round" transform="translate(459.0976229895391 71.80646113044156) rotate(0 29.143556987890747 10.736067838880075)"><path d="M-1.62 -1.9 C20.25 -0.75, 41.1 -2.03, 56.82 -0.39 M-0.43 -0.76 C16.07 -0.93, 32.71 -1.41, 59.11 -0.57 M59.15 -0.87 C56.52 8.68, 57.35 17.98, 59.36 20.05 M59.22 0.91 C58.8 6.57, 57.47 10.74, 58.38 20.79 M57.11 23.44 C37.7 20.94, 11.92 20.39, -1.22 21.76 M59.23 21.13 C36.3 21.61, 15.12 21.54, 0.23 20.65 M-0.85 20.91 C-0.48 14.65, -0.41 8.7, -1.37 -0.43 M0.08 21.47 C-0.91 16.67, -0.1 11.2, -0.05 0.49" stroke="#000000" stroke-width="1" fill="none"></path></g><g stroke-linecap="round"><g transform="translate(426.18359375 54.4609375) rotate(0 16.142718669399642 0.09398433901368719)"><path d="M-0.83 -0.99 C4.62 -0.96, 27.62 1.09, 33.12 1.18 M0.93 1.11 C6.19 0.75, 26.57 -0.25, 32.17 -0.33" stroke="#000000" stroke-width="1" fill="none"></path></g></g><g transform="translate(510.734104536097 95.29303581682302) rotate(0 43.13652436162761 10.644077439882153)"><text x="0" y="17.288154879764278" font-family="Helvetica, Segoe UI Emoji" font-size="17.92686726716992px" fill="#000000" text-anchor="start" style="white-space: pre;" direction="ltr">client table</text></g><g transform="translate(467.22556266526294 30.540105832013978) rotate(0 22.177771982275203 8.10341668583132)"><text x="0" y="13.206833371662654" font-family="Helvetica, Segoe UI Emoji" font-size="13.647859681400124px" fill="#000000" text-anchor="start" style="white-space: pre;" direction="ltr">clientId</text></g><g transform="translate(537.7294456747452 29.711163287970464) rotate(0 43.95715122017117 8.791430244034231)"><text x="0" y="13.58286048806847" font-family="Helvetica, Segoe UI Emoji" font-size="14.806619358373446px" fill="#000000" text-anchor="start" style="white-space: pre;" direction="ltr">last op cache</text></g><g transform="translate(480.3030722830133 66.53389401687849) rotate(0 7.843004429386838 10.644077439882125)"><text x="0" y="17.288154879764278" font-family="Helvetica, Segoe UI Emoji" font-size="17.92686726716992px" fill="#000000" text-anchor="start" style="white-space: pre;" direction="ltr">...</text></g><g transform="translate(566.1340766717992 66.27129342214471) rotate(0 7.843004429386838 10.644077439882153)"><text x="0" y="17.288154879764278" font-family="Helvetica, Segoe UI Emoji" font-size="17.92686726716992px" fill="#000000" text-anchor="start" style="white-space: pre;" direction="ltr">...</text></g><g transform="translate(468.66111258314163 51.80107481687463) rotate(0 21.77177764173257 7.955072599863826)"><text x="0" y="12.910145199727646" font-family="Helvetica, Segoe UI Emoji" font-size="13.398017010296957px" fill="#000000" text-anchor="start" style="white-space: pre;" direction="ltr">client 1</text></g><g transform="translate(538.2065034218456 49.41142142863265) rotate(0 44.011859677407415 9.18928938319496)"><text x="0" y="15.37857876638991" font-family="Helvetica, Segoe UI Emoji" font-size="15.476697908538874px" fill="#000000" text-anchor="start" style="white-space: pre;" direction="ltr">{opId, result}</text></g><g transform="translate(36.92643330011157 194.9803080973938) rotate(0 16.95144439949135 17.42231785503276)"><text x="0" y="14.422317855032766" font-family="Helvetica, Segoe UI Emoji" font-size="15.067950577325623px" fill="#000000" text-anchor="start" style="white-space: pre;" direction="ltr">RPC</text><text x="0" y="31.844635710065532" font-family="Helvetica, Segoe UI Emoji" font-size="15.067950577325623px" fill="#000000" text-anchor="start" style="white-space: pre;" direction="ltr">reply</text></g><g transform="translate(75.55078125 320.6238425925926) rotate(0 54.735630580357224 28.381438078703695)"><text x="0" y="14.920958719135808" font-family="Helvetica, Segoe UI Emoji" font-size="16.217964616402128px" fill="#000000" text-anchor="start" style="white-space: pre;" direction="ltr">also:</text><text x="0" y="33.841917438271615" font-family="Helvetica, Segoe UI Emoji" font-size="16.217964616402128px" fill="#000000" text-anchor="start" style="white-space: pre;" direction="ltr">modify kv table</text><text x="0" y="52.76287615740742" font-family="Helvetica, Segoe UI Emoji" font-size="16.217964616402128px" fill="#000000" text-anchor="start" style="white-space: pre;" direction="ltr">cache client op</text></g><g stroke-linecap="round" transform="translate(140.830078125 512.07421875) rotate(0 35.5 53.5)"><path d="M16.52 1.2 L58.2 2.19 L65.33 4.47 L68.7 11.63 L70.99 16.84 L71.85 94.95 L68.63 98.6 L59.25 106.93 L13.53 105.42 L5.63 103.48 L1.91 97.39 L-0.82 88.85 L1.46 14.37 L0.93 5.52 L5.55 2.01 L17.05 0.98" stroke="none" stroke-width="0" fill="#fab005"></path><path d="M17.75 0 M17.75 0 C27.24 -1.43, 36.64 2.01, 53.25 0 M17.75 0 C26.97 -0.78, 35.77 -0.88, 53.25 0 M53.25 0 C64.4 -0.77, 71.63 4.91, 71 17.75 M53.25 0 C63.17 -0.14, 69.05 3.96, 71 17.75 M71 17.75 C71.55 34.17, 69.04 46.3, 71 89.25 M71 17.75 C72.08 42.81, 71.03 66.84, 71 89.25 M71 89.25 C72.06 99.1, 64.44 107.36, 53.25 107 M71 89.25 C70.42 99.84, 63.93 105.55, 53.25 107 M53.25 107 C43.47 106.48, 37.37 109.08, 17.75 107 M53.25 107 C45.91 106.89, 36.71 106.43, 17.75 107 M17.75 107 C6.01 108.44, 0.68 102.68, 0 89.25 M17.75 107 C4.83 105.49, 1.89 98.91, 0 89.25 M0 89.25 C1.92 65.04, 2.04 41.38, 0 17.75 M0 89.25 C1.11 64.85, 0.92 40.85, 0 17.75 M0 17.75 C-1.2 5.35, 6.16 -0.56, 17.75 0 M0 17.75 C-1.96 7.39, 5.51 0.47, 17.75 0" stroke="#000000" stroke-width="1" fill="none"></path></g><g transform="translate(145.830078125 546.57421875) rotate(0 30.5 19)"><text x="30.5" y="15" font-family="Helvetica, Segoe UI Emoji" font-size="16px" fill="#000000" text-anchor="middle" style="white-space: pre;" direction="ltr">Follower</text><text x="30.5" y="34" font-family="Helvetica, Segoe UI Emoji" font-size="16px" fill="#000000" text-anchor="middle" style="white-space: pre;" direction="ltr">1</text></g><g stroke-linecap="round" transform="translate(315.27734375 418.546875) rotate(0 32.505859375 32.505859375)"><path d="M26.06 1.3 C32.12 -0.18, 40.93 1.08, 46.79 3.54 C52.65 6, 58.29 10.57, 61.21 16.07 C64.12 21.57, 65.03 30.06, 64.27 36.55 C63.52 43.04, 61.06 50.49, 56.69 55.01 C52.33 59.54, 44.31 62.6, 38.08 63.7 C31.85 64.79, 24.9 64.07, 19.33 61.57 C13.76 59.07, 7.83 54.33, 4.66 48.7 C1.49 43.07, -0.41 34.05, 0.29 27.79 C1 21.53, 3.77 15.93, 8.89 11.15 C14.02 6.37, 26.58 0.81, 31.05 -0.89 C35.52 -2.59, 35.87 0.24, 35.72 0.96 M32.92 -0.5 C38.95 -1.12, 45.73 1.98, 50.86 5.67 C55.99 9.35, 61.66 15.68, 63.69 21.6 C65.71 27.51, 65.03 34.91, 63.02 41.15 C61.01 47.38, 56.67 55.19, 51.63 58.99 C46.58 62.78, 38.97 63.72, 32.73 63.91 C26.49 64.1, 19.48 63.52, 14.2 60.12 C8.92 56.71, 3.16 49.73, 1.06 43.46 C-1.04 37.19, -0.21 28.67, 1.62 22.49 C3.46 16.32, 7.12 10.15, 12.09 6.43 C17.05 2.7, 27.88 0.94, 31.41 0.12 C34.95 -0.69, 32.96 0.83, 33.3 1.54" stroke="none" stroke-width="0" fill="#fa5252"></path><path d="M40.37 0.58 C46.07 1.88, 53.02 7.9, 57.09 13.03 C61.16 18.16, 64.42 25.02, 64.77 31.35 C65.12 37.67, 62.71 45.59, 59.18 50.97 C55.65 56.34, 49.36 61.6, 43.62 63.62 C37.88 65.64, 30.7 64.87, 24.75 63.08 C18.8 61.29, 11.9 57.82, 7.91 52.87 C3.91 47.92, 1.34 39.84, 0.77 33.38 C0.2 26.92, 1.07 19.36, 4.48 14.1 C7.89 8.85, 14.03 3.43, 21.23 1.86 C28.43 0.3, 42.15 3.43, 47.68 4.7 C53.22 5.98, 54.59 9.25, 54.43 9.51 M25.11 0.61 C31.12 -1.14, 41.01 -0.61, 46.93 1.88 C52.85 4.38, 57.72 9.87, 60.63 15.58 C63.54 21.3, 65.36 29.79, 64.41 36.15 C63.46 42.52, 59.28 48.86, 54.91 53.76 C50.55 58.67, 44.13 64.32, 38.21 65.57 C32.29 66.83, 25.03 64.22, 19.39 61.29 C13.75 58.36, 7.63 53.26, 4.39 47.99 C1.15 42.73, -0.95 35.9, -0.05 29.69 C0.85 23.47, 5.62 15.69, 9.78 10.69 C13.93 5.69, 21.96 1.18, 24.88 -0.32 C27.8 -1.81, 26.85 0.93, 27.3 1.7" stroke="#000000" stroke-width="1" fill="none"></path></g><g transform="translate(320.27734375 441.552734375) rotate(0 27.5 9.5)"><text x="27.5" y="15" font-family="Helvetica, Segoe UI Emoji" font-size="16px" fill="#000000" text-anchor="middle" style="white-space: pre;" direction="ltr">raft</text></g><g stroke-linecap="round" transform="translate(10 529.796875) rotate(0 54 14.5)"><path d="M30.05 2.14 C38 0.9, 50.45 0.11, 60.2 0.4 C69.96 0.69, 80.9 2.3, 88.57 3.89 C96.24 5.47, 103.19 7.39, 106.21 9.88 C109.24 12.36, 109.45 16.2, 106.74 18.81 C104.04 21.42, 97.28 23.71, 89.98 25.53 C82.68 27.36, 72.58 29.46, 62.96 29.77 C53.33 30.08, 41.05 28.62, 32.24 27.38 C23.43 26.14, 15.58 24.36, 10.1 22.33 C4.62 20.3, -0.28 17.88, -0.64 15.2 C-1.01 12.52, 2.26 8.65, 7.91 6.25 C13.55 3.86, 28.25 1.67, 33.25 0.83 C38.26 -0.02, 37.66 0.83, 37.94 1.16 M74.5 1.53 C83.58 2, 92.26 2.51, 97.99 4.57 C103.71 6.63, 108.37 10.96, 108.83 13.91 C109.3 16.85, 105.71 19.96, 100.79 22.24 C95.88 24.53, 88.08 26.64, 79.35 27.62 C70.62 28.6, 58.13 28.27, 48.43 28.12 C38.72 27.97, 28.51 28.18, 21.09 26.75 C13.68 25.31, 7.28 22.05, 3.96 19.49 C0.64 16.93, -0.66 14.02, 1.19 11.39 C3.04 8.77, 7.98 5.53, 15.08 3.72 C22.18 1.91, 34.1 0.85, 43.77 0.52 C53.44 0.19, 68.13 1.41, 73.12 1.75 C78.11 2.09, 73.95 2.46, 73.73 2.57" stroke="none" stroke-width="0" fill="#ced4da"></path><path d="M43.74 -0.71 C52.66 -1.25, 65.21 0.15, 74.3 1.17 C83.39 2.19, 92.59 3.14, 98.29 5.41 C103.99 7.67, 108.16 11.92, 108.5 14.76 C108.83 17.59, 105.3 20.31, 100.31 22.43 C95.32 24.55, 87.32 26.35, 78.56 27.46 C69.8 28.57, 57.57 29.34, 47.75 29.09 C37.94 28.83, 27.09 27.49, 19.7 25.94 C12.3 24.39, 6.33 22.14, 3.41 19.78 C0.49 17.41, -0.03 14.49, 2.2 11.74 C4.43 9, 9.41 5.29, 16.78 3.33 C24.15 1.37, 40.7 0.55, 46.42 -0.02 C52.14 -0.58, 51 -0.43, 51.11 -0.06 M76.32 0.75 C85.21 1.45, 93.35 3.05, 98.53 5.07 C103.7 7.08, 107.35 9.8, 107.38 12.86 C107.42 15.91, 104.02 20.89, 98.72 23.39 C93.43 25.88, 84.25 27.08, 75.62 27.85 C66.99 28.62, 56.22 28.3, 46.96 28.01 C37.69 27.72, 27.37 27.63, 20.03 26.11 C12.69 24.59, 5.83 21.48, 2.91 18.88 C-0.01 16.28, -0.22 13.18, 2.52 10.53 C5.26 7.87, 12.21 4.82, 19.33 2.94 C26.45 1.05, 35.7 -0.27, 45.23 -0.8 C54.76 -1.33, 71.41 -0.61, 76.5 -0.23 C81.6 0.15, 76.27 1.15, 75.81 1.48" stroke="#000000" stroke-width="1" fill="none"></path></g><g transform="translate(15 534.796875) rotate(0 49 9.5)"><text x="49" y="15" font-family="Helvetica, Segoe UI Emoji" font-size="16px" fill="#000000" text-anchor="middle" style="white-space: pre;" direction="ltr">applier</text></g><g stroke-linecap="round" transform="translate(12.41796875 571.14453125) rotate(0 53.5 16)"><path d="M45.73 0.69 C54.7 0.2, 67.4 1.22, 76.24 2.34 C85.07 3.45, 93.64 5.04, 98.75 7.41 C103.86 9.77, 107.1 13.59, 106.92 16.54 C106.75 19.49, 102.72 22.7, 97.68 25.1 C92.63 27.5, 85.44 29.92, 76.65 30.94 C67.86 31.96, 54.49 31.73, 44.94 31.21 C35.4 30.7, 26.68 29.78, 19.39 27.85 C12.1 25.91, 4.14 22.47, 1.19 19.58 C-1.77 16.69, -1.18 13.24, 1.68 10.52 C4.54 7.79, 10.6 4.87, 18.35 3.23 C26.11 1.59, 42.79 1.1, 48.18 0.69 C53.58 0.28, 50.58 0.6, 50.73 0.76 M59.96 1.3 C68.9 1.36, 78.55 3.2, 85.74 4.96 C92.94 6.72, 100 9.45, 103.14 11.86 C106.28 14.27, 106.62 16.74, 104.57 19.41 C102.52 22.07, 97.92 25.58, 90.84 27.85 C83.77 30.13, 71.81 32.75, 62.14 33.06 C52.48 33.37, 41.42 31.13, 32.86 29.71 C24.29 28.3, 16.01 26.56, 10.74 24.58 C5.46 22.6, 1.69 20.37, 1.22 17.84 C0.75 15.31, 3.12 12.31, 7.91 9.41 C12.71 6.51, 21.35 2.12, 29.99 0.46 C38.64 -1.21, 55.06 -0.45, 59.77 -0.58 C64.47 -0.71, 58.48 -0.67, 58.23 -0.31" stroke="none" stroke-width="0" fill="#ced4da"></path><path d="M40.96 -0.49 C49.75 -1.27, 61.84 -0.16, 70.91 0.83 C79.97 1.82, 89.27 3.32, 95.37 5.47 C101.47 7.62, 106.66 10.72, 107.49 13.72 C108.31 16.71, 104.8 20.75, 100.34 23.43 C95.87 26.11, 88.74 28.34, 80.69 29.8 C72.64 31.26, 61.63 32.22, 52.04 32.19 C42.44 32.16, 31.04 31.15, 23.14 29.62 C15.24 28.08, 8.36 25.65, 4.64 22.97 C0.91 20.3, -0.97 16.67, 0.78 13.58 C2.53 10.49, 6.86 6.73, 15.13 4.41 C23.41 2.08, 42.85 0.44, 50.43 -0.37 C58.02 -1.18, 60.72 -0.88, 60.64 -0.45 M43.43 -0.88 C52.34 -1.76, 63.58 -0.56, 72.58 0.74 C81.57 2.04, 91.84 4.41, 97.39 6.91 C102.93 9.41, 105.23 13.02, 105.84 15.76 C106.46 18.5, 105.67 20.74, 101.08 23.34 C96.48 25.93, 86.9 29.83, 78.27 31.34 C69.63 32.85, 59.1 32.69, 49.27 32.39 C39.44 32.1, 26.96 31.47, 19.31 29.57 C11.65 27.66, 6.21 23.85, 3.35 20.96 C0.48 18.07, -0.11 15.18, 2.11 12.23 C4.34 9.28, 10.01 5.27, 16.7 3.26 C23.39 1.25, 37.7 0.48, 42.26 0.16 C46.81 -0.15, 43.7 1.09, 44.02 1.35" stroke="#000000" stroke-width="1" fill="none"></path></g><g transform="translate(17.41796875 577.64453125) rotate(0 48.5 9.5)"><text x="48.5" y="15" font-family="Helvetica, Segoe UI Emoji" font-size="16px" fill="#000000" text-anchor="middle" style="white-space: pre;" direction="ltr">snapshoter</text></g><g stroke-linecap="round" transform="translate(235.40234375 526.41015625) rotate(0 50.14453125 14.5)"><path d="M-0.87 -1.02 C27.11 -1.6, 54.38 -1.92, 98.89 -1.49 M0.31 0.99 C38.71 -1.61, 76.57 -0.82, 99.84 0.29 M99.53 -1.99 C101.58 10.77, 99.1 21.86, 99.32 28.44 M100.94 0.69 C100.13 7.22, 99.49 13.93, 101.06 29.69 M101.53 27.75 C79.69 29.57, 58.17 30.04, 0.68 29.7 M101.06 28.98 C62.08 29.54, 25.63 29.81, 0.43 29.78 M1.57 30.75 C1.5 19.18, 0.01 8.83, -0.9 1.09 M-0.42 29.75 C-0.94 22.18, -0.87 15.46, 0.85 0.06" stroke="#000000" stroke-width="1" fill="none"></path></g><g transform="translate(240.40234375 531.41015625) rotate(0 45 9.5)"><text x="45" y="15" font-family="Helvetica, Segoe UI Emoji" font-size="16px" fill="#000000" text-anchor="middle" style="white-space: pre;" direction="ltr">client table</text></g><g stroke-linecap="round" transform="translate(234.703125 568.37109375) rotate(0 61.5 15.5)"><path d="M0.87 -0.32 C26.59 1.3, 51.31 2.46, 124.22 0.6 M-0.44 -0.55 C37.7 1.15, 76 0.24, 122.22 -0.39 M123.76 -1.15 C121.34 8.61, 121.25 13.66, 122.89 29.79 M122.92 -0.65 C123.35 9.37, 122.74 17.81, 123.6 30.77 M122.75 30.83 C96.01 32.21, 64.84 31.15, -1.13 29.64 M123.02 31.95 C88.32 31.08, 53.45 30.17, -0.39 30.91 M-1.16 31.69 C0.39 22.91, 1.4 16.56, -0.45 -0.74 M-0.83 30.68 C0.3 19.48, 0.76 8.88, 0.35 -0.29" stroke="#000000" stroke-width="1" fill="none"></path></g><g transform="translate(239.703125 574.37109375) rotate(0 56.5 9.5)"><text x="56.5" y="15" font-family="Helvetica, Segoe UI Emoji" font-size="16px" fill="#000000" text-anchor="middle" style="white-space: pre;" direction="ltr">key/value table</text></g><g stroke-linecap="round"><g transform="translate(119.33203125 544.1875) rotate(0 11.760734185203916 0.727016094289695)"><path d="M-0.55 0.48 C3.57 0.45, 19.98 0.08, 24.07 0.15 M1.37 -0.32 C5.43 -0.15, 19.72 1.87, 23.4 1.77" stroke="#000000" stroke-width="1" fill="none"></path></g></g><g stroke-linecap="round"><g transform="translate(120.46484375 586.9765625) rotate(0 10.276831169901413 0.07534500025212765)"><path d="M0.92 0.98 C4.26 0.67, 17.4 -0.49, 20.61 -0.83 M-0.05 0.45 C3.07 0.84, 16.42 0.65, 19.61 0.58" stroke="#000000" stroke-width="1" fill="none"></path></g></g><g stroke-linecap="round"><g transform="translate(212.8359375 542.265625) rotate(0 12.3008508804254 -0.2817113462463112)"><path d="M0.78 0.05 C5.08 0, 20.89 -0.8, 24.87 -0.89 M-0.26 -0.97 C4.04 -0.8, 20.31 0.11, 24.4 0.41" stroke="#000000" stroke-width="1" fill="none"></path></g></g><g stroke-linecap="round"><g transform="translate(212.55859375 581.90625) rotate(0 12.139807815533118 -0.4810770252161092)"><path d="M0.36 -0.43 C4.16 -0.36, 18.95 -0.79, 22.9 -0.52 M-0.91 -1.7 C3.26 -1.39, 21.13 0.55, 25.19 0.74" stroke="#000000" stroke-width="1" fill="none"></path></g></g><g stroke-linecap="round"><g transform="translate(318.94921875 469.6796875) rotate(0 -57.08319752551614 22.210527059808385)"><path d="M0.81 -0.66 C-18.26 6.92, -95.92 37.6, -114.98 45.08 M-0.22 1.61 C-18.89 8.85, -93.86 35.89, -112.84 43.17" stroke="#000000" stroke-width="1" fill="none"></path></g></g><g stroke-linecap="round" transform="translate(566.466796875 510.47265625) rotate(0 35.5 53.5)"><path d="M17.07 0.47 L56.01 -1.25 L65.83 0.87 L68.23 11.79 L72.27 18.52 L71.49 94.29 L68.63 98.58 L62.52 105.9 L15.34 105.58 L5.17 103.41 L1.73 96.51 L0.74 87.95 L0.61 12.09 L3.4 6.87 L6.48 2.84 L16.46 0.53" stroke="none" stroke-width="0" fill="#fab005"></path><path d="M17.75 0 M17.75 0 C26.79 -1.34, 30.7 -0.44, 53.25 0 M17.75 0 C26.53 0.18, 34.9 -1.25, 53.25 0 M53.25 0 C66.16 0.64, 69.62 7.72, 71 17.75 M53.25 0 C67.35 0.46, 71.46 7.88, 71 17.75 M71 17.75 C70.49 31.95, 72.55 46.7, 71 89.25 M71 17.75 C71.94 31.79, 71.45 47.13, 71 89.25 M71 89.25 C69.14 100.07, 65.4 106.97, 53.25 107 M71 89.25 C70.5 99.29, 64.26 109.08, 53.25 107 M53.25 107 C39.1 105.01, 25.24 105.19, 17.75 107 M53.25 107 C41.88 106.87, 30.2 106.92, 17.75 107 M17.75 107 C6.01 106.65, 1.5 101.77, 0 89.25 M17.75 107 C7.29 108.59, -2.26 99.92, 0 89.25 M0 89.25 C0.14 68.05, -1.65 46.21, 0 17.75 M0 89.25 C1.05 71.18, -0.36 52.99, 0 17.75 M0 17.75 C-0.24 4.82, 4.63 0.5, 17.75 0 M0 17.75 C-0.47 6.64, 5.89 0.08, 17.75 0" stroke="#000000" stroke-width="1" fill="none"></path></g><g transform="translate(571.466796875 544.97265625) rotate(0 30.5 19)"><text x="30.5" y="15" font-family="Helvetica, Segoe UI Emoji" font-size="16px" fill="#000000" text-anchor="middle" style="white-space: pre;" direction="ltr">Follower</text><text x="30.5" y="34" font-family="Helvetica, Segoe UI Emoji" font-size="16px" fill="#000000" text-anchor="middle" style="white-space: pre;" direction="ltr">n</text></g><g stroke-linecap="round" transform="translate(456.73828125 419.75390625) rotate(0 32.505859375 32.505859375)"><path d="M39.16 0.96 C45.19 1.98, 52.77 6.15, 56.92 10.85 C61.08 15.55, 63.36 22.62, 64.1 29.16 C64.83 35.71, 64.62 44.65, 61.35 50.09 C58.08 55.54, 50.49 59.62, 44.48 61.82 C38.48 64.03, 31.38 64.76, 25.33 63.32 C19.28 61.87, 12.33 57.75, 8.19 53.14 C4.05 48.53, 1.04 41.77, 0.48 35.65 C-0.08 29.52, 1.65 21.77, 4.81 16.39 C7.98 11, 13.31 5.81, 19.45 3.32 C25.58 0.82, 37.63 1.39, 41.64 1.41 C45.65 1.43, 43.58 2.81, 43.51 3.43 M43.42 2.38 C49.42 4.19, 55.33 9.5, 58.89 14.51 C62.45 19.52, 65.06 26.27, 64.8 32.47 C64.53 38.66, 61.35 46.48, 57.3 51.68 C53.25 56.88, 46.33 61.83, 40.5 63.67 C34.67 65.51, 28.33 65.01, 22.3 62.71 C16.27 60.4, 8.06 55.17, 4.31 49.83 C0.57 44.48, -0.42 36.79, -0.16 30.65 C0.1 24.5, 1.98 17.76, 5.87 12.95 C9.75 8.13, 16.87 3.59, 23.14 1.76 C29.42 -0.07, 40.35 1.78, 43.51 1.98 C46.67 2.17, 42.27 2.45, 42.11 2.92" stroke="none" stroke-width="0" fill="#fa5252"></path><path d="M19.76 3.15 C25.04 0.22, 33.77 -0.61, 39.8 0.8 C45.84 2.2, 51.81 6.7, 55.99 11.58 C60.16 16.47, 64.17 24.02, 64.85 30.09 C65.52 36.15, 63.33 42.55, 60.04 47.96 C56.74 53.38, 50.86 59.77, 45.09 62.56 C39.31 65.34, 31.64 66.02, 25.4 64.65 C19.15 63.28, 11.96 59.08, 7.63 54.35 C3.3 49.61, -0.04 42.66, -0.58 36.25 C-1.13 29.85, 0.73 21.74, 4.37 15.94 C8.02 10.13, 18.11 3.9, 21.27 1.42 C24.42 -1.05, 22.98 0.48, 23.31 1.11 M46.72 2.4 C52.67 5.13, 59.31 13.02, 62.44 18.97 C65.57 24.92, 66.43 32.28, 65.48 38.11 C64.52 43.93, 61.19 49.45, 56.72 53.94 C52.25 58.43, 45.29 63.55, 38.67 65.05 C32.04 66.55, 22.54 65.82, 16.96 62.94 C11.37 60.07, 7.86 53.47, 5.15 47.81 C2.43 42.14, 0.17 35.23, 0.66 28.97 C1.15 22.71, 3.77 15.08, 8.07 10.23 C12.37 5.39, 20.12 0.85, 26.46 -0.13 C32.79 -1.1, 42.95 3.94, 46.09 4.4 C49.22 4.85, 45.35 2.35, 45.27 2.6" stroke="#000000" stroke-width="1" fill="none"></path></g><g transform="translate(461.73828125 442.759765625) rotate(0 27.5 9.5)"><text x="27.5" y="15" font-family="Helvetica, Segoe UI Emoji" font-size="16px" fill="#000000" text-anchor="middle" style="white-space: pre;" direction="ltr">raft</text></g><g stroke-linecap="round" transform="translate(435.76953125 528.1953125) rotate(0 54 14.5)"><path d="M49.03 1.06 C58.12 0.56, 68.65 0.12, 77.21 0.98 C85.77 1.83, 95.23 3.98, 100.37 6.18 C105.52 8.38, 108.35 11.39, 108.08 14.18 C107.82 16.97, 104.27 20.53, 98.76 22.9 C93.25 25.27, 84.09 27.29, 75.01 28.38 C65.94 29.47, 53.95 29.98, 44.3 29.45 C34.65 28.91, 24.24 26.94, 17.11 25.18 C9.98 23.42, 3.87 21.3, 1.53 18.86 C-0.81 16.42, -0.12 13.32, 3.08 10.55 C6.28 7.78, 12.23 4.01, 20.73 2.24 C29.23 0.48, 47.33 0.29, 54.07 -0.07 C60.81 -0.43, 61.08 -0.16, 61.18 0.07 M34 0.87 C42.67 -0.13, 56.75 -0.46, 66.22 -0.05 C75.69 0.35, 84.1 1.52, 90.83 3.29 C97.55 5.06, 104.43 7.8, 106.57 10.57 C108.71 13.35, 107.07 17.26, 103.66 19.93 C100.25 22.59, 93.74 25.05, 86.12 26.57 C78.49 28.08, 67.76 28.84, 57.91 29.01 C48.06 29.19, 35.51 28.91, 26.99 27.62 C18.47 26.33, 11.1 23.52, 6.77 21.26 C2.43 19, 0.13 16.74, 0.98 14.06 C1.83 11.39, 5.97 7.38, 11.87 5.2 C17.77 3.02, 32.43 1.45, 36.4 0.97 C40.38 0.49, 35.43 2.15, 35.71 2.3" stroke="none" stroke-width="0" fill="#ced4da"></path><path d="M71.27 0.79 C80.1 1.43, 89.09 3.94, 95.16 6.11 C101.22 8.27, 106.56 11.44, 107.67 13.76 C108.78 16.09, 106.23 17.8, 101.82 20.05 C97.41 22.3, 89.5 25.7, 81.21 27.25 C72.91 28.8, 61.8 29.47, 52.05 29.36 C42.31 29.26, 30.85 28.08, 22.75 26.61 C14.64 25.14, 7.11 23.03, 3.45 20.56 C-0.21 18.08, -1.06 14.52, 0.78 11.76 C2.63 9, 7.84 6.07, 14.49 4.02 C21.14 1.98, 30.1 -0.09, 40.69 -0.51 C51.27 -0.93, 70.92 1.1, 78.01 1.5 C85.1 1.89, 83.91 1.68, 83.24 1.85 M36.76 1.62 C45.21 0.13, 57.88 -1.52, 67.35 -0.97 C76.83 -0.43, 87.17 2.57, 93.59 4.89 C100.02 7.22, 103.88 10.46, 105.91 12.99 C107.94 15.53, 109.09 17.66, 105.77 20.08 C102.44 22.5, 94.31 25.96, 85.97 27.52 C77.63 29.09, 65.62 29.66, 55.74 29.5 C45.85 29.33, 35.09 27.76, 26.67 26.54 C18.26 25.33, 9.92 24.68, 5.27 22.23 C0.61 19.77, -2.26 14.67, -1.25 11.84 C-0.25 9, 4.86 7.21, 11.3 5.2 C17.73 3.18, 33.06 0.46, 37.34 -0.27 C41.62 -0.99, 37.13 0.56, 36.96 0.84" stroke="#000000" stroke-width="1" fill="none"></path></g><g transform="translate(440.76953125 533.1953125) rotate(0 49 9.5)"><text x="49" y="15" font-family="Helvetica, Segoe UI Emoji" font-size="16px" fill="#000000" text-anchor="middle" style="white-space: pre;" direction="ltr">applier</text></g><g stroke-linecap="round" transform="translate(438.1875 569.54296875) rotate(0 53.5 16)"><path d="M43.16 -0.29 C51.89 -1.31, 64.92 -0.74, 73.98 0.32 C83.05 1.38, 92.02 3.53, 97.58 6.07 C103.13 8.62, 106.95 12.49, 107.31 15.59 C107.67 18.69, 104.76 22.1, 99.75 24.66 C94.73 27.23, 85.9 29.77, 77.21 30.98 C68.51 32.2, 57.16 32.25, 47.58 31.96 C38.01 31.66, 27.15 30.92, 19.74 29.2 C12.32 27.48, 5.97 24.67, 3.08 21.64 C0.18 18.62, 0.11 13.96, 2.36 11.05 C4.61 8.15, 9.16 6.09, 16.56 4.21 C23.95 2.34, 41.31 0.46, 46.73 -0.2 C52.16 -0.86, 49.17 0.02, 49.11 0.25 M40.86 0.13 C49.5 -0.92, 59.88 -0.97, 68.88 -0.14 C77.87 0.68, 88.7 2.63, 94.83 5.08 C100.97 7.54, 104.66 11.52, 105.71 14.6 C106.76 17.68, 105.26 21.04, 101.14 23.57 C97.01 26.1, 89.4 28.31, 80.98 29.78 C72.56 31.24, 60.23 32.51, 50.62 32.37 C41.01 32.24, 30.91 30.58, 23.3 28.98 C15.7 27.37, 8.57 25.49, 5.01 22.76 C1.45 20.04, 0.2 15.53, 1.96 12.6 C3.71 9.67, 9.14 7.02, 15.53 5.19 C21.93 3.36, 36 2.42, 40.32 1.62 C44.64 0.82, 41.13 0.43, 41.45 0.4" stroke="none" stroke-width="0" fill="#ced4da"></path><path d="M63.02 1.05 C72.08 1.49, 83.54 3.6, 90.53 5.33 C97.52 7.05, 102.8 8.68, 104.96 11.39 C107.11 14.1, 106.59 18.65, 103.46 21.59 C100.34 24.52, 93.82 27.22, 86.21 28.97 C78.6 30.72, 67.48 31.82, 57.79 32.1 C48.11 32.38, 36.56 32.05, 28.11 30.65 C19.65 29.26, 11.71 26.42, 7.06 23.74 C2.42 21.05, -0.29 17.56, 0.24 14.55 C0.78 11.55, 4.52 7.93, 10.27 5.71 C16.02 3.49, 24.07 2.11, 34.72 1.24 C45.37 0.37, 66.5 0.26, 74.17 0.48 C81.84 0.7, 81.36 2.06, 80.76 2.54 M79.66 0.52 C88.1 1.55, 96.61 5.69, 100.98 8.66 C105.34 11.63, 106.34 15.47, 105.87 18.32 C105.4 21.16, 103.63 23.43, 98.16 25.75 C92.69 28.06, 82.5 31.13, 73.05 32.21 C63.6 33.28, 51.06 33.08, 41.45 32.19 C31.84 31.3, 22.23 28.81, 15.39 26.87 C8.56 24.93, 2.7 23.5, 0.42 20.55 C-1.86 17.6, -1.72 12.12, 1.71 9.17 C5.14 6.23, 12.84 4.57, 20.97 2.87 C29.11 1.16, 40.78 -0.84, 50.5 -1.05 C60.22 -1.26, 74.92 1.2, 79.29 1.61 C83.66 2.02, 77.21 1.12, 76.72 1.39" stroke="#000000" stroke-width="1" fill="none"></path></g><g transform="translate(443.1875 576.04296875) rotate(0 48.5 9.5)"><text x="48.5" y="15" font-family="Helvetica, Segoe UI Emoji" font-size="16px" fill="#000000" text-anchor="middle" style="white-space: pre;" direction="ltr">snapshoter</text></g><g stroke-linecap="round" transform="translate(661.171875 524.80859375) rotate(0 50.14453125 14.5)"><path d="M0.88 0.13 C34.96 1.12, 72.9 1.37, 99.15 -1.77 M0.37 -0.65 C24.76 -0.5, 49.65 0.22, 100.06 0.17 M102.23 0.22 C102.22 5.53, 98.94 13.26, 98.92 30.46 M100.98 -0.9 C100.99 11.86, 99.76 23.97, 101.27 29.2 M100.98 28.07 C67.42 26.92, 37.38 26.21, -1.87 29.01 M100.73 28.82 C72.15 27.76, 46.04 28.25, -0.22 28.22 M-1.73 27.91 C-0.29 19.54, -0.03 12.05, 0.68 0.31 M0.67 28.83 C-0.09 19.4, 0.61 10.49, 0.6 0.69" stroke="#000000" stroke-width="1" fill="none"></path></g><g transform="translate(666.171875 529.80859375) rotate(0 45 9.5)"><text x="45" y="15" font-family="Helvetica, Segoe UI Emoji" font-size="16px" fill="#000000" text-anchor="middle" style="white-space: pre;" direction="ltr">client table</text></g><g stroke-linecap="round" transform="translate(660.47265625 566.76953125) rotate(0 61.5 15.5)"><path d="M-1.49 1.51 C41.66 1.67, 82.16 -1.85, 121.91 0.62 M0.16 -0.75 C34.26 0.76, 67.38 0.97, 122.36 0.27 M124.85 -1.3 C121.88 5.87, 121.94 14.01, 124.96 32.1 M123.54 0.32 C122.52 11.82, 124.2 22.04, 123.2 31.85 M122.24 29.76 C97.73 28.48, 67.99 30.44, -0.58 32.87 M122.07 30.49 C95.28 30.77, 67.03 30, -0.36 31.91 M-0.03 29.21 C0.5 17.05, 0.95 6.65, 0.5 0.98 M0.05 30.83 C0.54 22.72, 0.39 14.44, -0.98 -0.51" stroke="#000000" stroke-width="1" fill="none"></path></g><g transform="translate(665.47265625 572.76953125) rotate(0 56.5 9.5)"><text x="56.5" y="15" font-family="Helvetica, Segoe UI Emoji" font-size="16px" fill="#000000" text-anchor="middle" style="white-space: pre;" direction="ltr">key/value table</text></g><g stroke-linecap="round"><g transform="translate(545.1015625 542.5859375) rotate(0 11.448264828203207 -0.27255978880447174)"><path d="M0.9 0 C4.72 0.04, 19.65 -0.57, 22.98 -0.68 M-0.08 -1.04 C3.66 -0.78, 18.7 0.27, 22.58 0.49" stroke="#000000" stroke-width="1" fill="none"></path></g></g><g stroke-linecap="round"><g transform="translate(546.234375 585.375) rotate(0 10.457546836771087 -0.2973579313606365)"><path d="M0 1.05 C3.49 0.63, 16.68 -1.44, 20.02 -1.65 M-1.45 0.56 C2.5 0.17, 18.97 -0.18, 22.37 -0.67" stroke="#000000" stroke-width="1" fill="none"></path></g></g><g stroke-linecap="round"><g transform="translate(638.60546875 540.6640625) rotate(0 12.598230026941735 0.24274558139035207)"><path d="M1.05 -0.68 C4.72 -0.87, 19.02 -1.08, 22.9 -1.09 M0.14 1.57 C4.09 1.54, 21.12 0.3, 25.05 0.11" stroke="#000000" stroke-width="1" fill="none"></path></g></g><g stroke-linecap="round"><g transform="translate(638.328125 580.3046875) rotate(0 12.363007358592029 -0.2771241119876322)"><path d="M-0.68 -1.06 C3.16 -1.17, 19.03 0.12, 23.04 0.37 M1.16 1 C5.39 1.03, 21.86 -1.11, 25.41 -1.55" stroke="#000000" stroke-width="1" fill="none"></path></g></g><g stroke-linecap="round"><g transform="translate(517.7578125 472.1640625) rotate(0 25.65312013365326 22.403339952202487)"><path d="M-1.06 -0.66 C7.49 6.8, 43.45 36.71, 52.37 44.08 M0.58 1.61 C8.92 9.31, 43.06 38.31, 51.62 45.46" stroke="#000000" stroke-width="1" fill="none"></path></g></g><g transform="translate(368.10546875 528.0546875) rotate(0 30.5 21)"><text x="0" y="33" font-family="Helvetica, Segoe UI Emoji" font-size="36px" fill="#000000" text-anchor="start" style="white-space: pre;" direction="ltr">......</text></g><g stroke-linecap="round"><g transform="translate(419.68989857625706 384.26828294719485) rotate(0 19.353290302183495 25.65495157368025)"><path d="M0.18 -1.02 C6.77 7.56, 33.28 43.58, 39.88 52.33 M-1.18 1.06 C5.19 9.2, 32.12 41.86, 38.78 50.45" stroke="#000000" stroke-width="1" fill="none"></path></g><g transform="translate(419.68989857625706 384.26828294719485) rotate(0 19.353290302183495 25.65495157368025)"><path d="M11.43 34.4 C22.46 39.32, 29.47 44.18, 36.83 49.75 M12.92 35.27 C18.75 37.46, 23.69 41.05, 39.2 51.03" stroke="#000000" stroke-width="1" fill="none"></path></g><g transform="translate(419.68989857625706 384.26828294719485) rotate(0 19.353290302183495 25.65495157368025)"><path d="M27.43 21.55 C33.27 30.74, 35 39.84, 36.83 49.75 M28.92 22.42 C31.22 27.47, 32.68 33.86, 39.2 51.03" stroke="#000000" stroke-width="1" fill="none"></path></g></g><g stroke-linecap="round"><g transform="translate(455.7737596100592 438.90258300882886) rotate(0 -37.58008770360095 0.666033837669886)"><path d="M0.11 0.5 C-12.4 0.52, -62.14 0.21, -74.51 0.06 M-1.29 -0.28 C-13.97 -0.04, -63.07 1.45, -75.27 1.62" stroke="#000000" stroke-width="1" fill="none"></path></g><g transform="translate(455.7737596100592 438.90258300882886) rotate(0 -37.58008770360095 0.666033837669886)"><path d="M-46.49 -8.7 C-56.93 -4.29, -67.33 -1.8, -76.05 2.21 M-48.29 -9.77 C-54.16 -5.88, -62.59 -4.54, -75.97 0.66" stroke="#000000" stroke-width="1" fill="none"></path></g><g transform="translate(455.7737596100592 438.90258300882886) rotate(0 -37.58008770360095 0.666033837669886)"><path d="M-46.02 11.81 C-56.61 9.15, -67.17 4.55, -76.05 2.21 M-47.82 10.75 C-53.63 9.3, -62.17 5.3, -75.97 0.66" stroke="#000000" stroke-width="1" fill="none"></path></g></g><g stroke-linecap="round"><g transform="translate(379.228521058281 435.17207780528815) rotate(0 17.020341768133903 -25.535021381303693)"><path d="M0.37 -1.11 C6.23 -9.64, 29.28 -42.05, 34.94 -50.11 M-0.9 0.92 C4.84 -7.46, 28.34 -43.29, 34.04 -51.99" stroke="#000000" stroke-width="1" fill="none"></path></g><g transform="translate(379.228521058281 435.17207780528815) rotate(0 17.020341768133903 -25.535021381303693)"><path d="M25.3 -22.64 C29.58 -31.82, 32.53 -38.49, 34.08 -50.41 M27.47 -21.84 C29.15 -29.38, 29.27 -35.19, 33.28 -52.97" stroke="#000000" stroke-width="1" fill="none"></path></g><g transform="translate(379.228521058281 435.17207780528815) rotate(0 17.020341768133903 -25.535021381303693)"><path d="M8.14 -33.9 C17.31 -39.99, 25.04 -43.52, 34.08 -50.41 M10.31 -33.1 C15.55 -38.1, 19.29 -41.54, 33.28 -52.97" stroke="#000000" stroke-width="1" fill="none"></path></g></g></svg>