<svg version="1.1" xmlns="http://www.w3.org/2000/svg" viewBox="0 0 657.0435745379805 662.69921875" width="1971.1307236139414" height="1988.09765625">
  <!-- svg-source:excalidraw -->
  
  <defs>
    <style>
      @font-face {
        font-family: "Virgil";
        src: url("https://excalidraw.com/Virgil.woff2");
      }
      @font-face {
        font-family: "Cascadia";
        src: url("https://excalidraw.com/Cascadia.woff2");
      }
    </style>
  </defs>
  <rect x="0" y="0" width="657.0435745379805" height="662.69921875" fill="#ffffff"></rect><g stroke-linecap="round" transform="translate(436.3912307879805 313.515625) rotate(0 72 27)"><path d="M7.67 14.61 C7.67 14.61, 7.67 14.61, 7.67 14.61 M7.67 14.61 C7.67 14.61, 7.67 14.61, 7.67 14.61 M2.01 30.16 C5.49 24.11, 8.39 18.75, 16.55 12.83 M0.13 29.22 C5.51 22.04, 10.41 16.42, 15.79 11.66 M1.78 30.24 C7.94 26.23, 14.32 20.13, 22.18 8.45 M2.36 31.8 C8.05 24.71, 15.51 18.82, 22.71 9.07 M6.68 34.64 C11.49 26.47, 18.53 20.16, 31.75 7.6 M6.3 34.34 C15.19 24.64, 23.09 15.22, 31.68 6.55 M8.16 39.78 C16.19 27.86, 24.47 17.43, 37.05 3.82 M8.72 38.92 C15.06 30.03, 21.06 23.37, 37.12 5.05 M9.18 40.99 C20.67 31.41, 26.52 21.72, 41.61 4.37 M10.29 41.35 C19.69 32.79, 28.29 22.54, 43.76 5.33 M14.96 45.07 C23.3 32.94, 34.17 22.48, 50.03 4.02 M13.75 43.72 C27.31 29.02, 38.68 14.6, 48.47 2.78 M19.67 46.62 C26.04 34.99, 33.22 29.2, 53.43 3.18 M19.08 45.8 C28.87 32.85, 38.74 22.2, 55.12 3.58 M21.12 44.56 C34.93 36.14, 43.95 24.21, 61.33 2.13 M21.68 45.6 C32.47 33.5, 43.44 22.44, 61.01 1.98 M26.73 46.75 C44.08 29.32, 56.05 13.45, 65.18 1.4 M26.83 46.98 C35.98 39.12, 42.56 30, 67.79 0.67 M32.29 50.51 C42.54 35.37, 53.68 21.22, 72.86 1.53 M29.83 48.23 C40.17 39.79, 47.94 28.17, 72.49 1.63 M35.22 51.91 C44.24 39.37, 55.92 28.3, 76.84 2.18 M35.82 50.43 C44.57 37.28, 55.41 25.52, 77.11 1.18 M39.36 52.66 C50.52 41.72, 58.89 31.44, 83.45 3.88 M40 52.27 C50.89 38.22, 62.7 22.97, 82.38 2.91 M43.59 54.11 C53.53 44.03, 61.01 30.21, 86.29 1.67 M42.72 53.17 C53 41.67, 61.69 29.7, 86.63 3.18 M49.2 52.57 C61.49 36.83, 74.82 23.43, 92.9 1.35 M48.29 54.59 C58.85 41.49, 68.78 31.49, 90.92 2.51 M52.61 54.4 C66.55 39.32, 81.27 20.88, 97.43 1.82 M52.25 54.18 C68.56 35.67, 82.1 18.5, 97.2 3.95 M58.66 53.06 C73.25 36.99, 85.81 21.97, 103.34 3.4 M58.06 54.8 C67.3 43.84, 75.97 31.78, 101.47 4.35 M62.68 54.14 C78.75 39.26, 92.19 21.14, 106.79 7.64 M63.66 54.69 C79.94 37.13, 94.83 17.13, 104.61 6.29 M68.53 52.74 C81.4 39.99, 95.06 21.79, 111.89 8.32 M68.95 54.76 C81.58 40.38, 93.26 24.32, 110.16 6.1 M75.22 53.2 C85.91 40.78, 97.95 28.64, 113.5 8.61 M72.92 55.44 C88.78 37.13, 102.74 20.5, 114.54 6.98 M80.28 52.99 C92.4 37.07, 105.55 22.86, 119.22 9.59 M80.5 52.53 C95.44 37, 109.62 20, 119.51 8.61 M86.53 51.48 C90.85 42.75, 98.3 33.97, 120.7 10.05 M85.74 53.1 C94.79 42.78, 104.36 30.55, 122.99 11 M92.66 53.5 C100.87 38.44, 115.61 25.15, 127.04 11.8 M91.91 52.96 C104.66 37.62, 119.64 21.51, 126.86 12.79 M97.3 52.67 C105.29 38.54, 116.49 31.32, 130.12 13.77 M97.98 51.12 C108.98 39.7, 120.34 27.15, 131.82 11.35 M101.72 51.96 C113.07 37.86, 123.35 27.55, 134.02 13.79 M102.9 50.33 C112.27 39.97, 121.52 30.89, 135.27 15.71 M108.48 51.49 C120.79 38.79, 131.84 25.89, 138.24 19.4 M108.59 49.92 C117.69 40.96, 124.81 32.47, 135.96 19.28 M115.48 49.86 C126.03 39.64, 132.56 28.91, 139.82 21.44 M113.54 51.18 C122.12 41.51, 132.1 30.82, 138.63 22.51 M122.59 47.92 C126.39 42.3, 129.87 38.3, 142.68 23.57 M123.87 46.14 C131.26 38.39, 139.06 29.82, 142.78 24.48 M130.58 42.4 C134.81 38.21, 142.55 33.11, 146.24 28.83 M131.69 41.29 C137.02 36.67, 141.99 30.38, 143.89 28.44" stroke="#40c057" stroke-width="0.5" fill="none"></path><path d="M103.1 3.48 C114.01 4.85, 124.71 8.03, 131.32 11.7 C137.94 15.37, 141.77 21.01, 142.78 25.51 C143.79 30, 142.27 34.65, 137.39 38.65 C132.52 42.65, 123.25 47.11, 113.54 49.5 C103.84 51.89, 91.33 52.68, 79.17 52.98 C67.01 53.29, 51.53 52.93, 40.56 51.34 C29.59 49.75, 20.04 47.23, 13.36 43.43 C6.69 39.63, 1.45 33.33, 0.5 28.53 C-0.46 23.74, 2.58 18.48, 7.63 14.65 C12.68 10.83, 21 7.88, 30.79 5.57 C40.58 3.26, 53.38 1.09, 66.37 0.8 C79.36 0.51, 101.02 3.09, 108.72 3.84 C116.42 4.59, 113.24 4.9, 112.57 5.3 M41.12 2.55 C51.06 0.24, 65.22 0.06, 76.99 0.35 C88.75 0.65, 101.9 1.63, 111.71 4.31 C121.53 6.99, 130.61 12.12, 135.89 16.43 C141.17 20.73, 144.11 26.06, 143.41 30.13 C142.7 34.19, 138.05 37.14, 131.66 40.81 C125.26 44.48, 115.89 49.98, 105.03 52.14 C94.18 54.31, 78.92 54.41, 66.5 53.78 C54.09 53.15, 40.46 51.08, 30.55 48.36 C20.64 45.65, 11.86 41.09, 7.02 37.47 C2.19 33.84, 0.68 30.64, 1.53 26.61 C2.39 22.58, 5.6 17.18, 12.15 13.29 C18.7 9.4, 35.89 4.7, 40.84 3.27 C45.78 1.83, 41.38 4.35, 41.84 4.67" stroke="#000000" stroke-width="1" fill="none"></path></g><g transform="translate(441.3912307879805 321.515625) rotate(0 67 19)"><text x="67" y="15" font-family="Helvetica, Segoe UI Emoji" font-size="16px" fill="#000000" text-anchor="middle" style="white-space: pre;" direction="ltr">snapshotInstaller </text><text x="67" y="34" font-family="Helvetica, Segoe UI Emoji" font-size="16px" fill="#000000" text-anchor="middle" style="white-space: pre;" direction="ltr">n</text></g><g stroke-linecap="round" transform="translate(144.70373078798048 311.0703125) rotate(0 69.5 27)"><path d="M1.48 21.16 C1.48 21.16, 1.48 21.16, 1.48 21.16 M1.48 21.16 C1.48 21.16, 1.48 21.16, 1.48 21.16 M1.06 27.26 C5.37 23.62, 9.64 17.63, 15.95 13.56 M2.08 26.7 C6.17 22.43, 11.03 16.4, 14.39 11.83 M0.93 31.88 C10.04 24.54, 15.08 16.52, 21.21 11.87 M1.73 31.89 C6.97 27.34, 11.1 21.92, 22.27 10.89 M3.42 37.5 C11.9 23.94, 22.09 14.9, 30.23 8.91 M4.35 36.35 C13.72 26.07, 21.87 15.62, 28.12 8.07 M9.07 37.91 C15.64 30.06, 27.34 17.73, 33.57 5.76 M7.07 38.48 C19.02 27.02, 30.1 12.89, 35.08 6.11 M12.94 40.6 C22.37 30.38, 30.09 17.06, 43.61 6.3 M10.9 40.09 C23.03 27.27, 34.24 14.75, 41.84 4.53 M12.82 42.9 C26.91 25.7, 41.61 11.3, 50.29 2.45 M13.99 41.98 C24.6 31.07, 33.84 20.08, 50.36 1.25 M16.16 45.94 C29.92 31.57, 39.76 17.42, 54.8 2.44 M18.64 44.35 C34.53 26.69, 48.91 10.06, 56.63 0.35 M19.85 48.63 C33.39 29.11, 47.16 14.77, 59.11 0.63 M20.07 48.28 C31.33 35.34, 42.31 22.13, 60.17 2.32 M27.06 46.77 C37.71 34.4, 53.9 18.21, 67.68 1.76 M25.3 47.27 C38.08 32.84, 51.05 18.46, 66.8 1.8 M30.34 48.34 C39.58 39.76, 47.73 27.3, 71.8 1.89 M31.32 48.02 C40.91 37.2, 51.58 23.32, 71.03 1 M34.52 50.35 C42.79 38.22, 51.81 28.13, 79.2 -0.93 M33.98 49.75 C46.66 38.09, 57.37 24.24, 76.67 1.82 M37.05 52.05 C56.35 33.19, 74.19 12.72, 83.06 2.06 M39.34 50.89 C55.8 32.62, 71.22 13.95, 81.88 1.03 M42.97 52.89 C57.44 35.29, 72.87 16.68, 86.94 1.71 M42.76 51.49 C60.19 33.61, 74.65 15.54, 87.15 1.17 M49.89 52.43 C60.66 40.1, 70.83 28.64, 92.46 0.7 M48.8 52.58 C57.02 41.46, 65.84 31.69, 92.98 2.68 M51.67 52.06 C67.86 36.99, 81.12 18.59, 95.64 2.21 M53.02 54.42 C69.08 34.73, 86.15 14.83, 97.25 4.11 M59.99 53.65 C72.83 38.04, 87.27 23.08, 99.12 2.34 M58.54 52.53 C71.26 37.9, 82.71 25.4, 101.55 4.98 M63.42 54.52 C80.07 32.86, 94.81 16.83, 106.58 5.08 M63.14 53.24 C77.51 38.08, 90.89 22.82, 104.49 6.18 M66.34 52.61 C83.19 34.65, 100.77 20.98, 110.29 7.47 M69.22 54.22 C82.64 37.27, 98.16 20.44, 109.44 5.69 M72.58 52.15 C86.36 40.58, 99.83 23.23, 112.88 7.3 M73.48 52.7 C90.42 35.61, 106.21 18, 115.18 7.67 M79.79 54.64 C92.65 40.75, 101.61 26.81, 117.5 9.3 M78.31 53.88 C89.85 42.44, 100.37 31.7, 118.22 7.14 M85.69 53.02 C93.39 42.79, 104.76 32.19, 120.92 9.57 M84.06 53.55 C93.41 43.63, 101.34 34.04, 122.83 9.89 M89.74 55.33 C99.1 46.33, 105.09 35.51, 125.78 12.03 M89.79 55.26 C100.72 41.96, 111.12 28.57, 125.41 13.4 M94.1 52.43 C103.96 41.15, 114.32 34.22, 129.57 16.32 M96.18 52.5 C106.95 40.19, 117.65 27.91, 128.41 14.18 M102.03 49.45 C114.15 37.28, 124.18 25.18, 131 17.04 M103.03 51.6 C113.07 39.39, 122.36 28.34, 132.82 17.54 M110.09 49.66 C118.59 40.82, 124.67 29.84, 135.55 18.4 M109.48 48.1 C118.49 37.96, 128.48 28.91, 136.68 19.62 M118.51 45.51 C124.34 38.54, 132.27 30.71, 140.57 22.94 M117.36 47.21 C125.65 37.51, 132.49 28.36, 138.26 20.66 M123.51 47.48 C128.61 39.19, 134.64 31.74, 136.86 26.71 M121.64 47.16 C126.45 43.32, 129.83 38.4, 138.64 27.6" stroke="#40c057" stroke-width="0.5" fill="none"></path><path d="M86.3 0.3 C97.33 0.92, 109.77 3.58, 118.09 6.77 C126.41 9.96, 133.19 15.09, 136.23 19.42 C139.27 23.76, 139.2 28.39, 136.35 32.76 C133.5 37.13, 127.14 42.13, 119.14 45.64 C111.14 49.15, 99.45 52.54, 88.34 53.82 C77.23 55.1, 63.76 54.54, 52.47 53.33 C41.18 52.13, 28.89 49.66, 20.59 46.58 C12.29 43.51, 5.88 39.06, 2.66 34.86 C-0.56 30.67, -1.5 25.7, 1.27 21.4 C4.04 17.09, 11.2 12.48, 19.28 9.03 C27.36 5.59, 38.11 1.98, 49.74 0.75 C61.36 -0.49, 81.92 1.29, 89.02 1.62 C96.12 1.94, 92.52 2.5, 92.34 2.69 M45.85 1.85 C55.49 0.03, 70.22 -0.44, 81.74 0.3 C93.26 1.05, 105.85 3.17, 114.96 6.31 C124.08 9.44, 132.85 14.65, 136.42 19.12 C139.98 23.59, 138.57 28.63, 136.37 33.13 C134.17 37.63, 130.71 43.1, 123.21 46.12 C115.71 49.14, 102.66 49.87, 91.38 51.25 C80.11 52.64, 67.07 55, 55.56 54.41 C44.05 53.81, 30.78 50.93, 22.31 47.68 C13.85 44.44, 8.47 39.17, 4.78 34.93 C1.1 30.69, -1.96 26.47, 0.2 22.25 C2.35 18.03, 10.07 13.02, 17.72 9.62 C25.37 6.22, 40.95 3.2, 46.09 1.85 C51.24 0.51, 47.88 1.08, 48.59 1.56" stroke="#000000" stroke-width="1" fill="none"></path></g><g transform="translate(149.70373078798048 319.0703125) rotate(0 64.5 19)"><text x="64.5" y="15" font-family="Helvetica, Segoe UI Emoji" font-size="16px" fill="#000000" text-anchor="middle" style="white-space: pre;" direction="ltr">entriesAppender </text><text x="64.5" y="34" font-family="Helvetica, Segoe UI Emoji" font-size="16px" fill="#000000" text-anchor="middle" style="white-space: pre;" direction="ltr">n</text></g><g stroke-linecap="round" transform="translate(10 11.980908165886376) rotate(0 19.363116241473335 19.363116241473335)"><path d="M18.44 0.53 C22.4 0.48, 28.68 2.56, 32 5.11 C35.31 7.67, 37.57 11.9, 38.32 15.87 C39.06 19.84, 38.36 25.27, 36.47 28.95 C34.57 32.63, 30.72 36.31, 26.94 37.93 C23.17 39.55, 17.96 39.96, 13.82 38.69 C9.67 37.41, 4.5 33.89, 2.09 30.27 C-0.33 26.66, -1.48 21.11, -0.68 17 C0.12 12.88, 3.28 8.34, 6.9 5.59 C10.53 2.83, 17.93 1.32, 21.07 0.47 C24.22 -0.38, 25.8 0.09, 25.77 0.47 M14.81 2.21 C18.39 0.69, 21.93 -0.01, 25.34 1.44 C28.75 2.89, 33.06 7.03, 35.26 10.9 C37.46 14.77, 38.95 20.74, 38.52 24.65 C38.1 28.56, 36.15 31.98, 32.7 34.38 C29.24 36.77, 22.13 38.99, 17.81 39.03 C13.48 39.07, 9.72 37.48, 6.75 34.62 C3.79 31.75, 0.49 25.89, 0.01 21.85 C-0.47 17.81, 1.79 13.68, 3.89 10.38 C6 7.08, 10.97 3.41, 12.63 2.05 C14.29 0.69, 13.56 2.1, 13.84 2.23" stroke="#000000" stroke-width="1" fill="none"></path></g><g stroke-linecap="round" transform="translate(28.18805510391053 31.114616048163498) rotate(0 11.571988073044736 11.312809163418478)"><path d="M-1.62 -0.1 L22.23 -0.28 L21.83 23.44 L-0.66 23.07" stroke="none" stroke-width="0" fill="#fff"></path><path d="M-0.13 1.05 C5.14 -0.59, 15.04 1.36, 25.08 0 M0.39 0.59 C8.53 0.83, 15.24 0.6, 22.27 0.39 M23.76 2 C21.89 6.49, 24.61 14.34, 22.14 23.17 M23.16 -0.8 C23.75 9.09, 24.17 18.82, 22.98 22.04 M22.91 22.35 C16.97 24.47, 7.27 24.23, 0.45 23.85 M23.67 21.68 C15.82 22.66, 7.2 23.74, -0.22 22.33 M0.4 22.73 C0.28 16.19, -1.94 10.71, 0.92 1.39 M0.55 22.54 C0.05 15.86, -0.24 7.24, -0.25 -0.89" stroke="#fff" stroke-width="1" fill="none"></path></g><g stroke-linecap="round"><g transform="translate(46.00807383787537 21.922054777595463) rotate(0 1.676152722912775 9.104720162671015)"><path d="M-0.08 0.63 C0.22 3.49, 2.03 14.04, 2.8 16.95 M-1.57 -0.08 C-1.01 2.96, 3.98 15.58, 4.93 18.29" stroke="#000000" stroke-width="1" fill="none"></path></g><g transform="translate(46.00807383787537 21.922054777595463) rotate(0 1.676152722912775 9.104720162671015)"><path d="M4.83 17.38 L-1.69 10.75 L6.44 8.78 L5.38 19.65" stroke="none" stroke-width="0" fill="#000000" fill-rule="evenodd"></path><path d="M5.39 17.47 C2.23 16.36, 0.67 14.37, -1.4 12.48 M5.19 18.51 C3.39 16.06, 1.37 14.14, -1.23 12.26 M-0.65 11.54 C0.69 11.58, 3.29 9.75, 5.83 10.15 M-1.7 12.22 C1.37 11.37, 4.37 9.98, 5.41 9.52 M5.5 10 C6.21 11.86, 5.88 15.36, 5.47 18.5 M5.21 9.51 C5.42 11.69, 5.69 14.71, 4.8 17.95 M4.93 18.29 C4.93 18.29, 4.93 18.29, 4.93 18.29 M4.93 18.29 C4.93 18.29, 4.93 18.29, 4.93 18.29" stroke="#000000" stroke-width="1" fill="none"></path></g></g><g transform="translate(11.27838245964449 22.987255780758915) rotate(0 13.5 6.5)"><text x="13.5" y="10" font-family="Helvetica, Segoe UI Emoji" font-size="10.72440299021278px" fill="#000000" text-anchor="middle" style="white-space: pre;" direction="ltr">sleep</text></g><g stroke-linecap="round" transform="translate(13.416621412980476 124.177734375) rotate(0 21.595703125 21.595703125)"><path d="M14.55 0.08 C18.78 -1.35, 25.73 -0.15, 30.01 1.85 C34.3 3.85, 38.25 8.1, 40.27 12.07 C42.28 16.04, 43.25 21.06, 42.12 25.66 C40.98 30.26, 37.21 36.61, 33.47 39.68 C29.73 42.76, 24.14 44.55, 19.69 44.11 C15.23 43.66, 10.01 40.52, 6.75 37.02 C3.49 33.51, 0.79 27.78, 0.14 23.08 C-0.5 18.37, -0.58 12.58, 2.86 8.77 C6.29 4.95, 17.08 1.37, 20.78 0.19 C24.47 -1, 25.18 1.32, 25.02 1.67 M17.49 1.34 C21.59 0.34, 27.89 1.14, 32.07 3.15 C36.25 5.16, 40.87 9.13, 42.55 13.41 C44.23 17.7, 43.94 24.32, 42.14 28.84 C40.34 33.36, 35.81 38.14, 31.75 40.53 C27.69 42.93, 21.99 43.94, 17.78 43.23 C13.57 42.51, 9.69 39.92, 6.49 36.22 C3.3 32.52, -0.94 25.86, -1.4 21.03 C-1.87 16.21, 0.81 10.67, 3.7 7.27 C6.6 3.87, 13.61 1.92, 15.95 0.61 C18.29 -0.7, 17.58 -0.92, 17.77 -0.58" stroke="#000000" stroke-width="1" fill="none"></path></g><g stroke-linecap="round" transform="translate(33.701777662980476 145.517578125) rotate(0 12.90625 12.6171875)"><path d="M0.66 1.11 L27.39 -0.71 L26.02 26.22 L0.77 23.75" stroke="none" stroke-width="0" fill="#fff"></path><path d="M-1.16 -1.43 C5.12 -1.87, 10.43 -0.43, 25.95 -1.29 M-0.99 0.74 C7.47 1.2, 16.18 -0.02, 25.82 -0.99 M26.11 -0.36 C27.43 4.44, 25.7 10.71, 27.27 24.77 M26.18 0.58 C25.81 8, 26.25 15.15, 26.18 24.79 M23.93 23.68 C16.32 24.07, 7.67 25.51, 0.57 23.31 M26.03 25.78 C18.85 26.28, 11.39 24.56, 0.48 24.81 M0.27 23.41 C-1.23 19.61, 1.01 13.27, 0.8 -0.35 M0.28 25.06 C0.41 16.37, 0.58 5.7, 0.24 0.61" stroke="#fff" stroke-width="1" fill="none"></path></g><g stroke-linecap="round"><g transform="translate(53.409182140527946 135.40056063435532) rotate(0 3.332079503384705 9.777039333265805)"><path d="M-0.69 -0.86 C0.38 2.31, 6.09 15.91, 7.36 19.44 M1.14 1.3 C1.94 4.54, 4.77 17.05, 6.13 20.41" stroke="#000000" stroke-width="1" fill="none"></path></g><g transform="translate(53.409182140527946 135.40056063435532) rotate(0 3.332079503384705 9.777039333265805)"><path d="M7.24 21.99 L-1.93 12.45 L8.65 10.31 L4.64 19.12" stroke="none" stroke-width="0" fill="#000000" fill-rule="evenodd"></path><path d="M5.34 19.92 C2.37 16.42, 0.41 14.34, -1.93 12.39 M6.53 20.08 C4.88 18.29, 2.37 16.24, -1.76 11.85 M-1.39 13.11 C-0.01 11.73, 2.07 11.79, 7.44 9.68 M-0.95 12.18 C1.99 11.37, 4.81 10.43, 7.46 9.62 M6.81 8.83 C6.45 12.59, 6.67 17.88, 5.07 19.98 M7.96 9.41 C7.76 12.33, 6.34 16.44, 5.89 20.2 M6.13 20.41 C6.13 20.41, 6.13 20.41, 6.13 20.41 M6.13 20.41 C6.13 20.41, 6.13 20.41, 6.13 20.41" stroke="#000000" stroke-width="1" fill="none"></path></g></g><g transform="translate(14.842402662980476 136.453125) rotate(0 15 7)"><text x="15" y="11" font-family="Helvetica, Segoe UI Emoji" font-size="11.960937499999993px" fill="#000000" text-anchor="middle" style="white-space: pre;" direction="ltr">sleep</text></g><g stroke-linecap="round" transform="translate(162.17638703798048 10) rotate(0 48.533203125 108.6796875)"><path d="M25.6 1.4 L77.55 -1.6 L89.48 3.28 L92.68 4.84 L97.19 13.12 L97.39 22.92 L98.59 191.13 L91.88 207.35 L89.54 213.19 L85.06 216.37 L72.51 217.18 L20.45 217.57 L9.58 215 L4.63 207.78 L2.3 205.04 L-0.96 191.25 L-0.74 19.41 L5.14 10.01 L11.02 1.63 L24.95 -0.33" stroke="none" stroke-width="0" fill="#fab005"></path><path d="M24.27 0 M24.27 0 C40.35 -0.32, 54.66 -1.38, 72.8 0 M24.27 0 C38.55 -0.77, 53.95 -0.77, 72.8 0 M72.8 0 C88.57 -1.95, 96.68 7.23, 97.07 24.27 M72.8 0 C88.07 0.01, 98.78 10.22, 97.07 24.27 M97.07 24.27 C94.74 85.62, 97.79 145.45, 97.07 193.09 M97.07 24.27 C97.92 62.99, 96.75 99.49, 97.07 193.09 M97.07 193.09 C96.94 210.41, 90.52 215.42, 72.8 217.36 M97.07 193.09 C96.39 207.68, 90.96 219.59, 72.8 217.36 M72.8 217.36 C59.76 217.61, 46.37 219.18, 24.27 217.36 M72.8 217.36 C62.25 216.03, 51.58 217.81, 24.27 217.36 M24.27 217.36 C6.61 217.66, -1.76 210.21, 0 193.09 M24.27 217.36 C7.61 218.85, -1.89 208.12, 0 193.09 M0 193.09 C2.05 153.19, 2.62 111.49, 0 24.27 M0 193.09 C1.09 140.75, 2.31 87.94, 0 24.27 M0 24.27 C-1.92 7.9, 9.19 -0.46, 24.27 0 M0 24.27 C0.88 7.49, 9.15 -1.89, 24.27 0" stroke="#000000" stroke-width="1" fill="none"></path></g><g stroke-linecap="round" transform="translate(34.590449537980476 149.38671875) rotate(0 50 24)"><path d="M53.5 -0.26 C62.83 -0.38, 74.36 1.51, 81.89 4.49 C89.42 7.47, 96.31 12.8, 98.68 17.62 C101.04 22.44, 99.75 29.08, 96.07 33.42 C92.39 37.75, 84.64 41.17, 76.61 43.62 C68.59 46.07, 57.72 48.36, 47.92 48.12 C38.11 47.88, 25.62 45.28, 17.76 42.17 C9.89 39.06, 3.02 34.02, 0.72 29.48 C-1.59 24.94, 0.12 19.29, 3.94 14.94 C7.75 10.59, 13.96 5.62, 23.62 3.38 C33.29 1.14, 54.33 1.6, 61.93 1.49 C69.53 1.39, 69.52 2.59, 69.24 2.74 M42.33 -0.92 C51.12 -1.87, 64.02 0.14, 72.88 2.77 C81.73 5.4, 91 10.47, 95.45 14.84 C99.9 19.22, 101.22 24.54, 99.58 29.04 C97.95 33.53, 92.71 38.57, 85.62 41.81 C78.53 45.05, 66.88 47.68, 57.05 48.46 C47.22 49.24, 35.46 48.99, 26.64 46.48 C17.82 43.97, 8.56 37.84, 4.14 33.41 C-0.27 28.97, -1.63 24.28, 0.16 19.87 C1.95 15.47, 7.78 10.19, 14.88 6.99 C21.99 3.78, 38.2 1.6, 42.79 0.63 C47.39 -0.33, 42.39 1.05, 42.45 1.2" stroke="none" stroke-width="0" fill="#40c057"></path><path d="M60.25 0 C69.24 0.5, 79.33 4.5, 86.07 8.21 C92.81 11.92, 99.39 17.59, 100.68 22.28 C101.97 26.97, 98.98 32.46, 93.83 36.36 C88.67 40.25, 78.85 43.87, 69.74 45.64 C60.63 47.42, 48.45 47.95, 39.17 47.01 C29.88 46.07, 20.58 43.24, 14.04 40.01 C7.5 36.78, 1.24 32.17, -0.07 27.63 C-1.39 23.08, 1.32 16.9, 6.13 12.76 C10.93 8.61, 19.05 4.65, 28.74 2.77 C38.43 0.89, 57.66 1.64, 64.27 1.49 C70.88 1.33, 68.6 1.66, 68.39 1.85 M66.47 -0.11 C75.06 0.8, 84.47 5.61, 90.23 9.82 C95.98 14.04, 101.25 20.15, 101.01 25.19 C100.77 30.22, 94.69 36.45, 88.79 40.02 C82.9 43.58, 75.12 45.52, 65.66 46.57 C56.19 47.61, 41.59 47.8, 32.03 46.29 C22.47 44.79, 13.46 41.19, 8.3 37.56 C3.15 33.92, 0.65 29.39, 1.11 24.49 C1.56 19.59, 5.36 11.83, 11.03 8.15 C16.71 4.47, 25.69 3.71, 35.15 2.41 C44.61 1.1, 62.78 0.67, 67.81 0.33 C72.84 -0.02, 65.62 -0.05, 65.33 0.34" stroke="#000000" stroke-width="1" fill="none"></path></g><g transform="translate(39.590449537980476 163.88671875) rotate(0 45 9.5)"><text x="45" y="15" font-family="Helvetica, Segoe UI Emoji" font-size="16px" fill="#000000" text-anchor="middle" style="white-space: pre;" direction="ltr">pacemaker</text></g><g stroke-linecap="round" transform="translate(293.1568557879805 33.0390625) rotate(0 50 24)"><path d="M39.21 0.69 C48.04 -0.82, 60.89 -0.53, 69.96 1.27 C79.04 3.06, 88.54 7.29, 93.67 11.46 C98.81 15.64, 101.74 21.51, 100.77 26.3 C99.8 31.1, 94.62 36.58, 87.85 40.23 C81.09 43.88, 69.75 47.3, 60.19 48.2 C50.63 49.1, 39.43 47.58, 30.5 45.63 C21.56 43.68, 11.77 40.59, 6.58 36.49 C1.4 32.4, -1.7 25.9, -0.61 21.06 C0.48 16.22, 5.64 10.79, 13.12 7.46 C20.6 4.13, 38.15 2.28, 44.27 1.09 C50.39 -0.1, 49.67 -0.01, 49.84 0.34 M53.17 -1.23 C62.58 -1.27, 74.5 3.25, 82.24 6.58 C89.98 9.91, 97.33 14.41, 99.62 18.75 C101.92 23.1, 99.64 28.35, 96.01 32.65 C92.38 36.96, 85.93 42.23, 77.84 44.57 C69.75 46.9, 57.4 46.93, 47.45 46.65 C37.5 46.38, 25.67 45.78, 18.13 42.94 C10.6 40.09, 4.61 34.34, 2.25 29.59 C-0.12 24.85, 0.28 18.73, 3.95 14.47 C7.62 10.22, 16.2 6.37, 24.27 4.06 C32.34 1.75, 47.56 1.41, 52.36 0.6 C57.16 -0.2, 53.2 -1.04, 53.07 -0.78" stroke="none" stroke-width="0" fill="#ced4da"></path><path d="M57.72 1.12 C67.07 1.49, 78.87 3.17, 85.82 6.51 C92.76 9.85, 98.08 16.48, 99.41 21.18 C100.75 25.87, 98.3 30.68, 93.8 34.7 C89.3 38.71, 81.1 43.25, 72.41 45.27 C63.72 47.29, 51.34 47.61, 41.66 46.79 C31.98 45.98, 21.17 43.57, 14.32 40.39 C7.46 37.2, 1.85 32.11, 0.54 27.69 C-0.78 23.27, 1.93 18.04, 6.41 13.85 C10.9 9.67, 17.93 4.8, 27.43 2.58 C36.94 0.36, 56.66 0.46, 63.44 0.54 C70.22 0.63, 68.47 2.74, 68.09 3.09 M44.07 1.42 C53.39 0.78, 65.65 2.37, 74.31 4.25 C82.96 6.13, 91.77 8.45, 95.99 12.68 C100.21 16.91, 101.46 24.59, 99.61 29.63 C97.75 34.67, 92.01 39.64, 84.84 42.9 C77.67 46.16, 66.45 48.64, 56.58 49.2 C46.72 49.75, 34.55 48.69, 25.63 46.24 C16.71 43.8, 7.04 39.05, 3.07 34.54 C-0.89 30.03, -0.5 23.92, 1.83 19.19 C4.15 14.45, 10.08 9.44, 17.01 6.12 C23.93 2.8, 39.08 0.29, 43.38 -0.74 C47.69 -1.77, 42.46 -0.7, 42.86 -0.05" stroke="#000000" stroke-width="1" fill="none"></path></g><g transform="translate(298.1568557879805 47.5390625) rotate(0 45 9.5)"><text x="45" y="15" font-family="Helvetica, Segoe UI Emoji" font-size="16px" fill="#000000" text-anchor="middle" style="white-space: pre;" direction="ltr">committer</text></g><g stroke-linecap="round" transform="translate(296.9849807879805 152.3046875) rotate(0 60 24)"><path d="M52.33 0.12 C62.43 -0.83, 74.65 0.6, 84.34 2.34 C94.03 4.08, 104.66 7.03, 110.45 10.55 C116.25 14.06, 119.23 18.92, 119.11 23.43 C119 27.94, 115.39 33.86, 109.75 37.59 C104.1 41.32, 94.95 44.02, 85.25 45.82 C75.54 47.62, 62.32 48.87, 51.54 48.38 C40.76 47.88, 28.59 45.86, 20.56 42.84 C12.53 39.83, 6.36 34.49, 3.38 30.29 C0.4 26.1, -0.33 21.62, 2.67 17.69 C5.67 13.76, 11.04 9.8, 21.37 6.72 C31.69 3.63, 55.67 -0.03, 64.61 -0.83 C73.54 -1.62, 75.1 1.3, 74.98 1.95 M84.69 0.82 C94.32 1.94, 104.75 6.93, 110.56 10.71 C116.38 14.49, 119.75 19.3, 119.57 23.48 C119.4 27.67, 115.21 32.23, 109.49 35.82 C103.76 39.41, 94.83 43.23, 85.23 45.01 C75.64 46.79, 62.84 47.07, 51.91 46.52 C40.98 45.96, 27.77 44.23, 19.66 41.68 C11.55 39.14, 6.12 35.1, 3.24 31.23 C0.36 27.36, -0.55 22.92, 2.4 18.46 C5.35 14, 12.97 7.62, 20.95 4.45 C28.93 1.28, 39.42 -0.31, 50.27 -0.55 C61.13 -0.79, 80.13 2.62, 86.07 3.03 C92.01 3.44, 86.39 1.76, 85.91 1.91" stroke="none" stroke-width="0" fill="#ced4da"></path><path d="M41.16 0.39 C50.85 -1.31, 64.7 -0.26, 75.09 0.76 C85.48 1.78, 96.06 3.4, 103.5 6.52 C110.93 9.64, 117.56 15.23, 119.67 19.48 C121.78 23.74, 120.46 28.07, 116.16 32.04 C111.87 36, 102.86 40.56, 93.89 43.28 C84.91 46.01, 72.81 48.16, 62.32 48.38 C51.82 48.6, 40.23 46.71, 30.93 44.59 C21.63 42.47, 11.77 39.34, 6.51 35.67 C1.24 32, -1.81 27.11, -0.64 22.55 C0.52 17.99, 6.4 11.82, 13.48 8.31 C20.57 4.79, 36.49 2.72, 41.85 1.47 C47.21 0.22, 45.15 0.45, 45.63 0.82 M31.41 3.85 C40.37 1.48, 55.27 -0.21, 66.14 -0.11 C77.01 -0.01, 88.33 1.62, 96.61 4.43 C104.9 7.24, 112.41 12.43, 115.85 16.72 C119.29 21.02, 119.47 26.01, 117.25 30.2 C115.03 34.4, 110.19 38.84, 102.53 41.91 C94.88 44.98, 82.17 47.72, 71.31 48.63 C60.44 49.54, 47.23 49.35, 37.33 47.39 C27.43 45.42, 18.06 40.5, 11.93 36.85 C5.8 33.2, 1.28 29.87, 0.55 25.5 C-0.17 21.12, 2.31 14.31, 7.57 10.58 C12.82 6.85, 27.59 4.32, 32.09 3.11 C36.59 1.89, 34.12 3.02, 34.58 3.29" stroke="#000000" stroke-width="1" fill="none"></path></g><g transform="translate(301.9849807879805 166.8046875) rotate(0 55 9.5)"><text x="55" y="15" font-family="Helvetica, Segoe UI Emoji" font-size="16px" fill="#000000" text-anchor="middle" style="white-space: pre;" direction="ltr">snapshoter</text></g><g transform="translate(180.94982453798048 105.65625) rotate(0 31.5 11.5)"><text x="0" y="19" font-family="Helvetica, Segoe UI Emoji" font-size="20px" fill="#40c057" text-anchor="start" style="white-space: pre;" direction="ltr">Leader</text></g><g stroke-linecap="round" transform="translate(75.04357453798048 264.125) rotate(0 70 29)"><path d="M50.61 1.86 C60.82 0.13, 75.32 0.02, 86.44 1.01 C97.56 1.99, 108.91 4.46, 117.31 7.78 C125.72 11.1, 133.51 16.31, 136.87 20.95 C140.23 25.59, 140.1 30.92, 137.47 35.61 C134.85 40.3, 129.03 45.69, 121.11 49.07 C113.19 52.45, 101.02 54.43, 89.96 55.9 C78.9 57.36, 66.23 58.76, 54.74 57.84 C43.24 56.92, 29.78 53.73, 20.99 50.36 C12.2 47, 5.32 42.37, 2.01 37.65 C-1.3 32.93, -1.85 26.96, 1.12 22.04 C4.08 17.12, 8.86 11.73, 19.79 8.12 C30.72 4.51, 56.24 1.48, 66.69 0.38 C77.14 -0.72, 82.48 1.02, 82.48 1.53 M61.33 -0.24 C72.54 -0.99, 88.2 0.35, 99.23 2.43 C110.26 4.5, 120.85 8.2, 127.53 12.21 C134.21 16.22, 138.28 21.8, 139.33 26.5 C140.38 31.2, 138.26 36.23, 133.81 40.41 C129.36 44.59, 122.19 48.72, 112.63 51.58 C103.07 54.43, 88.1 57.07, 76.45 57.52 C64.81 57.97, 53.27 56.35, 42.78 54.28 C32.28 52.21, 20.49 48.8, 13.47 45.08 C6.44 41.37, 1.78 36.59, 0.63 32.01 C-0.52 27.42, 1.62 22.15, 6.54 17.57 C11.47 12.99, 21.01 7.44, 30.18 4.53 C39.35 1.63, 55.89 1, 61.56 0.13 C67.23 -0.75, 64.04 -1.43, 64.19 -0.73" stroke="none" stroke-width="0" fill="#40c057"></path><path d="M42.4 1.48 C52.06 -0.83, 65.73 -1.47, 77.11 -0.77 C88.49 -0.07, 101.15 2.61, 110.69 5.7 C120.24 8.8, 129.4 13.31, 134.38 17.81 C139.36 22.3, 141.97 28.07, 140.58 32.68 C139.19 37.29, 133 41.52, 126.03 45.48 C119.05 49.44, 109.3 54.55, 98.71 56.45 C88.12 58.34, 74.01 57.65, 62.49 56.85 C50.96 56.05, 39.07 54.35, 29.56 51.64 C20.06 48.94, 10.21 44.9, 5.48 40.61 C0.75 36.33, -0.06 30.65, 1.19 25.94 C2.45 21.23, 5.7 16.4, 13 12.34 C20.29 8.27, 39.27 3.2, 44.95 1.55 C50.64 -0.1, 46.96 1.86, 47.11 2.43 M58.87 0.85 C69.54 -0.25, 83.99 0.26, 94.92 2.03 C105.86 3.8, 117.25 7.84, 124.48 11.47 C131.72 15.09, 136.37 19.25, 138.34 23.78 C140.3 28.31, 140.22 34.18, 136.26 38.64 C132.3 43.09, 123.82 47.27, 114.57 50.5 C105.33 53.73, 92.45 56.99, 80.79 58.02 C69.13 59.06, 55.5 58.43, 44.6 56.69 C33.71 54.96, 22.65 51.2, 15.44 47.6 C8.23 44, 3.29 39.79, 1.35 35.11 C-0.59 30.44, 0.01 24.4, 3.81 19.55 C7.6 14.7, 15.15 9.34, 24.12 6.01 C33.1 2.68, 52.02 0.35, 57.64 -0.43 C63.27 -1.21, 57.55 0.53, 57.87 1.34" stroke="#000000" stroke-width="1" fill="none"></path></g><g transform="translate(80.04357453798048 274.125) rotate(0 65 19)"><text x="65" y="15" font-family="Helvetica, Segoe UI Emoji" font-size="16px" fill="#000000" text-anchor="middle" style="white-space: pre;" direction="ltr">entriesAppender </text><text x="65" y="34" font-family="Helvetica, Segoe UI Emoji" font-size="16px" fill="#000000" text-anchor="middle" style="white-space: pre;" direction="ltr">1</text></g><g stroke-linecap="round" transform="translate(373.3404495379805 264.31640625) rotate(0 72 29)"><path d="M106 2.39 C116.78 4.17, 126.27 8.75, 132.74 13.03 C139.22 17.31, 144.35 23.07, 144.84 28.05 C145.34 33.04, 141.24 38.63, 135.71 42.95 C130.18 47.28, 121.63 51.62, 111.65 54.01 C101.68 56.39, 88.12 57.21, 75.85 57.29 C63.58 57.36, 48.92 56.49, 38.04 54.43 C27.15 52.38, 17.02 48.87, 10.53 44.96 C4.05 41.05, -0.39 35.73, -0.87 30.97 C-1.35 26.21, 2.06 20.73, 7.65 16.4 C13.24 12.07, 22.5 7.87, 32.67 5 C42.84 2.13, 55.76 -0.54, 68.65 -0.82 C81.53 -1.09, 102.55 2.09, 109.99 3.35 C117.42 4.6, 113.84 6.07, 113.25 6.71 M86.74 -0.62 C98.13 -0.13, 111.7 3.9, 120.57 7.59 C129.44 11.29, 136.4 16.97, 139.95 21.56 C143.51 26.15, 144.24 30.62, 141.89 35.13 C139.54 39.65, 133.86 44.95, 125.87 48.66 C117.88 52.37, 105.43 56.14, 93.95 57.4 C82.47 58.66, 68.75 57.21, 56.98 56.24 C45.2 55.27, 32.21 54.59, 23.3 51.59 C14.38 48.59, 7.05 43.15, 3.51 38.25 C-0.03 33.34, -0.23 27.14, 2.07 22.15 C4.37 17.16, 9.28 11.67, 17.3 8.32 C25.32 4.96, 38.72 3.47, 50.18 2.04 C61.65 0.6, 79.86 -0.32, 86.09 -0.28 C92.32 -0.24, 87.46 1.6, 87.56 2.29" stroke="none" stroke-width="0" fill="#40c057"></path><path d="M50.98 2.3 C61.63 0.43, 76.54 -0.84, 88.3 0.09 C100.05 1.03, 112.67 4.45, 121.51 7.91 C130.34 11.38, 137.81 16.28, 141.33 20.86 C144.85 25.45, 145.46 30.85, 142.65 35.44 C139.84 40.04, 132.65 44.85, 124.48 48.43 C116.31 52.01, 105.04 55.45, 93.61 56.92 C82.18 58.39, 67.58 58.31, 55.92 57.26 C44.26 56.21, 32.42 53.99, 23.64 50.6 C14.86 47.2, 6.75 41.43, 3.23 36.9 C-0.28 32.36, 0.1 27.93, 2.53 23.4 C4.96 18.87, 9.44 13.4, 17.82 9.72 C26.19 6.03, 46.29 2.74, 52.79 1.27 C59.29 -0.2, 56.24 0.65, 56.82 0.9 M80.67 -0.01 C92.16 0.16, 106.12 2.61, 115.51 5.34 C124.9 8.07, 132.55 11.96, 137.01 16.37 C141.47 20.79, 143.31 26.86, 142.28 31.82 C141.24 36.78, 137.54 42.13, 130.79 46.14 C124.04 50.14, 112.96 53.81, 101.78 55.85 C90.6 57.89, 75.82 59.02, 63.71 58.38 C51.6 57.73, 38.49 55.09, 29.12 51.98 C19.74 48.88, 12.39 44.17, 7.45 39.75 C2.52 35.32, -1.79 30.32, -0.49 25.45 C0.8 20.59, 7.94 14.57, 15.22 10.57 C22.51 6.56, 32.38 3.18, 43.22 1.44 C54.06 -0.3, 74.06 0.18, 80.25 0.13 C86.45 0.07, 80.32 0.78, 80.38 1.09" stroke="#000000" stroke-width="1" fill="none"></path></g><g transform="translate(378.3404495379805 274.31640625) rotate(0 67 19)"><text x="67" y="15" font-family="Helvetica, Segoe UI Emoji" font-size="16px" fill="#000000" text-anchor="middle" style="white-space: pre;" direction="ltr">snapshotInstaller </text><text x="67" y="34" font-family="Helvetica, Segoe UI Emoji" font-size="16px" fill="#000000" text-anchor="middle" style="white-space: pre;" direction="ltr">1</text></g><g stroke-linecap="round"><g transform="translate(261.0474807879805 114.52230441235008) rotate(0 76.38200358860195 0.32295977957545574)"><path d="M-0.36 0.04 C25.07 0.25, 127.44 0.63, 153.12 0.61" stroke="#000000" stroke-width="1.5" fill="none" stroke-dasharray="8 9"></path></g></g><g stroke-linecap="round" transform="translate(415.3052932879805 93.69921875) rotate(0 89.099609375 18.94921875)"><path d="M0.46 1.42 C60.99 0.21, 122.66 0.54, 179.12 -0.47 M-0.75 -0.4 C46.82 -0.92, 93.82 0.21, 177.67 0.59 M177.86 -0.68 C177.25 8.96, 178.32 23.51, 178.45 39.81 M178.92 -0.32 C177.73 11.69, 177.99 24.55, 178.04 37.68 M177.12 38.55 C114.3 35.6, 48.78 34.8, 0 36.01 M178.75 38.12 C108.32 36.14, 39.12 36.42, 0.1 37.26 M1.12 36.46 C-1.38 22.85, -2.11 10.3, 0.52 -0.76 M-0.01 37.89 C-0.89 25.32, 0.74 14.37, -0.43 -0.47" stroke="#000000" stroke-width="1" fill="none"></path></g><g stroke-linecap="round"><g transform="translate(513.6373245379805 93.83203125) rotate(0 -0.507699211142949 19.744921323321762)"><path d="M-0.19 -0.26 C-0.05 6.55, 0.85 34.33, 0.72 40.93 M-1.75 -1.44 C-1.7 5.04, -0.37 32.34, 0.15 39.3" stroke="#000000" stroke-width="1" fill="none"></path></g></g><g stroke-linecap="round"><g transform="translate(534.6315249334007 94.47931857816877) rotate(0 -0.15474736388773636 20.552500791512443)"><path d="M-0.99 -0.65 C-1.05 5.89, 0.31 33.48, 0.39 40.14 M0.68 1.63 C0.44 8.3, 0.02 35.31, -0.35 41.75" stroke="#000000" stroke-width="1" fill="none"></path></g></g><g stroke-linecap="round"><g transform="translate(574.3705063416353 94.27772769676517) rotate(0 0.24028314577424226 20.167729664277317)"><path d="M-0.65 0.39 C-0.78 7.14, 0.15 33.07, 0.14 39.5 M1.21 -0.45 C0.85 6.55, -0.23 34.07, -0.73 40.78" stroke="#000000" stroke-width="1" fill="none"></path></g></g><g stroke-linecap="round"><g transform="translate(555.4105504534041 94.6627715353668) rotate(0 -0.6892002987715387 19.831406862288702)"><path d="M0.39 0.14 C0.48 6.8, -0.27 32.67, -0.5 39.32 M-0.86 -0.83 C-0.89 6.03, -2.08 33.47, -1.7 40.49" stroke="#000000" stroke-width="1" fill="none"></path></g></g><g transform="translate(465.2701370379805 100.01171875) rotate(0 21.501953125 14.59061104910711)"><text x="21.50195312499999" y="24.181222098214274" font-family="Helvetica, Segoe UI Emoji" font-size="24.5736607142857px" fill="#000000" text-anchor="middle" style="white-space: pre;" direction="ltr">......</text></g><g transform="translate(423.4498245379805 97.17578125) rotate(0 35.29244791666656 8.97265625)"><text x="35.2924479166666" y="13.945312499999961" font-family="Helvetica, Segoe UI Emoji" font-size="14.958165690104149px" fill="#000000" text-anchor="middle" style="white-space: pre;" direction="ltr">log entries</text></g><g stroke-linecap="round"><g transform="translate(395.4498245379805 56.9609375) rotate(0 84.85493803081113 -0.13099205063656427)"><path d="M0.99 -0.96 C29.07 -0.69, 141.75 0.53, 169.67 0.52 M0.04 1.14 C27.92 1.14, 141.18 -1.16, 169.07 -1.41" stroke="#000000" stroke-width="1" fill="none"></path></g></g><g stroke-linecap="round"><g transform="translate(563.7857620379805 55.69140625) rotate(0 0.8305622151215175 19.622906691953574)"><path d="M0.75 -0.63 C0.99 5.94, 1.82 33.2, 1.97 39.88 M-0.31 1.65 C-0.33 7.89, 0.02 32.41, 0.76 38.38" stroke="#000000" stroke-width="1" fill="none"></path></g><g transform="translate(563.7857620379805 55.69140625) rotate(0 0.8305622151215175 19.622906691953574)"><path d="M1.05 38.15 L-6.89 25.19 L7.92 23.27 L0.86 40.29" stroke="none" stroke-width="0" fill="#000000" fill-rule="evenodd"></path><path d="M-0.03 37.75 C-0.27 32.8, -3.29 29.87, -5.49 24.73 M1.44 38.74 C-2.52 33.6, -4.42 29.38, -5.8 25.37 M-7.15 26.04 C-3.47 24.61, 0.35 24.78, 7.42 23.58 M-5.78 25.65 C-3.3 24.35, -1.06 25.42, 6.63 25.03 M6.16 25.73 C3.59 27.81, 2.98 32.67, 1.02 37.31 M6.54 24.74 C4.52 29.41, 2.49 35.3, 0.13 38.81 M0.76 38.38 C0.76 38.38, 0.76 38.38, 0.76 38.38 M0.76 38.38 C0.76 38.38, 0.76 38.38, 0.76 38.38" stroke="#000000" stroke-width="1" fill="none"></path></g></g><g stroke-linecap="round"><g transform="translate(565.3404495379805 56.0703125) rotate(0 10.22404909022157 0.018946583196509437)"><path d="M0.03 0.38 C3.37 0.26, 17.08 -0.13, 20.42 -0.35" stroke="#000000" stroke-width="1.5" fill="none" stroke-dasharray="1.5 7"></path></g></g><g stroke-linecap="round"><g transform="translate(587.2779495379805 57.65234375) rotate(0 0.16176279210299072 17.83964982740582)"><path d="M-0.75 0.71 C-0.77 6.54, 0.73 29.1, 1.07 34.97" stroke="#000000" stroke-width="1.5" fill="none" stroke-dasharray="1.5 7"></path></g><g transform="translate(587.2779495379805 57.65234375) rotate(0 0.16176279210299072 17.83964982740582)"><path d="M-0.64 35.87 L-7.98 20.16 L4.57 21.28 L1.48 35.68" stroke="none" stroke-width="0" fill="#000000" fill-rule="evenodd"></path><path d="M1.96 36.2 C-1.89 31.14, -3.54 24.12, -5.27 20.33 M-5.18 21.15 C-2.14 22.21, 4.58 21.19, 6.75 20.67 M7.91 20.65 C5.65 24, 4.93 27.83, -0.39 36.33 M1.07 34.97 C1.07 34.97, 1.07 34.97, 1.07 34.97" stroke="#000000" stroke-width="1.5" fill="none"></path></g></g><g stroke-linecap="round"><g transform="translate(450.6724807879805 41.484375) rotate(0 70.66151750314987 1.0153789193555554)"><path d="M-0.17 0.66 C23.58 1.14, 119.1 1.98, 143.04 2.08 M-1.72 -0.05 C21.87 0.17, 118.21 -0.11, 142.37 0.31" stroke="#000000" stroke-width="1" fill="none"></path></g><g transform="translate(450.6724807879805 41.484375) rotate(0 70.66151750314987 1.0153789193555554)"><path d="M115.21 11.28 C125.07 8.56, 133.39 1.87, 143.21 -0.77 M113.82 10.36 C119.81 9.01, 127.33 6.16, 143.06 1.09" stroke="#000000" stroke-width="1" fill="none"></path></g><g transform="translate(450.6724807879805 41.484375) rotate(0 70.66151750314987 1.0153789193555554)"><path d="M115.33 -9.24 C125 -4.87, 133.29 -4.48, 143.21 -0.77 M113.94 -10.16 C119.9 -6.69, 127.39 -4.72, 143.06 1.09" stroke="#000000" stroke-width="1" fill="none"></path></g></g><g transform="translate(476.4224807879805 19.07421875) rotate(0 32.5 9.5)"><text x="32.5" y="15" font-family="Helvetica, Segoe UI Emoji" font-size="16px" fill="#000000" text-anchor="middle" style="white-space: pre;" direction="ltr">apply log</text></g><g stroke-linecap="round"><g transform="translate(261.5709182879805 57.59765625) rotate(0 17.235624217577254 -0.019243994206192383)"><path d="M-0.3 0.22 C4.97 0.31, 27.08 -0.3, 32.57 -0.48 M1.75 -0.71 C7.29 -0.38, 29.21 0.58, 34.77 0.67" stroke="#000000" stroke-width="1" fill="none"></path></g></g><g stroke-linecap="round"><g transform="translate(261.5240432879805 175.390625) rotate(0 18.783699653865767 0.17265304776844914)"><path d="M-0.72 -0.9 C5.27 -0.53, 29.98 0.97, 36.16 1.23 M1.1 1.24 C7.43 1.35, 32.01 -0.68, 38.29 -0.54" stroke="#000000" stroke-width="1" fill="none"></path></g></g><g stroke-linecap="round"><g transform="translate(133.13341828798048 57.22265625) rotate(0 14.581982905790198 0.4551938807591682)"><path d="M-0.88 0.78 C4.21 0.65, 24.85 0.04, 30.04 -0.19 M0.86 0.14 C5.79 0.12, 24.06 1.09, 28.81 1.1" stroke="#000000" stroke-width="1" fill="none"></path></g></g><g stroke-linecap="round"><g transform="translate(134.85216828798048 174.17578125) rotate(0 12.891355549171521 0.8178995287697717)"><path d="M-1.04 -0.64 C3.53 -0.64, 22.38 0.58, 26.83 0.77 M0.61 1.64 C5.14 1.77, 22.25 2.26, 26.25 2.27" stroke="#000000" stroke-width="1" fill="none"></path></g></g><g stroke-linecap="round"><g transform="translate(416.9537307879805 177.09765625) rotate(0 27.616686314232652 -0.47167903809253175)"><path d="M0.11 0.2 C9.62 0.18, 46.97 -1.3, 56.53 -1.14 M-1.3 -0.74 C8.08 -0.56, 45.69 -0.23, 55.41 -0.2" stroke="#000000" stroke-width="1" fill="none"></path></g></g><g stroke-linecap="round"><g transform="translate(417.4654495379805 137.88671875) rotate(0 4.996065874025248 5.521456737332073)"><path d="M-0.57 0.49 C1.21 2.37, 8.86 9.59, 10.56 11.34 M1.33 -0.3 C2.99 1.22, 8.55 7.38, 9.76 9.49" stroke="#000000" stroke-width="1" fill="none"></path></g></g><g stroke-linecap="round"><g transform="translate(429.7037307879805 148.33984375) rotate(0 36.18296246666455 -0.6182999964335636)"><path d="M-0.61 -0.22 C11.31 0.03, 58.66 0.35, 70.6 0.44 M1.27 -1.38 C13.66 -1.41, 61.49 -1.98, 72.98 -1.45" stroke="#000000" stroke-width="1" fill="none"></path></g></g><g stroke-linecap="round"><g transform="translate(502.7584182879805 148.08203125) rotate(0 5.481021693833213 -5.722739368528096)"><path d="M0.32 -1.01 C2.36 -2.94, 10.03 -8.94, 11.93 -10.73 M-0.97 1.07 C0.98 -1.28, 9.26 -10.56, 11.28 -12.52" stroke="#000000" stroke-width="1" fill="none"></path></g></g><g stroke-linecap="round"><g transform="translate(470.2271682879805 148.68359375) rotate(0 0.035879034921549646 14.75308299493048)"><path d="M-0.96 0.54 C-0.86 5.36, 0.79 25.1, 1.03 29.73 M0.74 -0.22 C0.66 4.15, 0.39 22.93, 0.2 27.81" stroke="#000000" stroke-width="1" fill="none"></path></g></g><g transform="translate(441.9849807879805 154.65625) rotate(0 26.5 9.5)"><text x="26.5" y="15" font-family="Helvetica, Segoe UI Emoji" font-size="16px" fill="#000000" text-anchor="middle" style="white-space: pre;" direction="ltr">trim log</text></g><g stroke-linecap="round" transform="translate(30.902949537980476 35.09765625) rotate(0 51.5 23)"><path d="M60.56 0.06 C69.46 0.71, 80.22 4.47, 87.2 7.3 C94.17 10.13, 100.33 13.27, 102.42 17.06 C104.51 20.85, 102.88 26.1, 99.72 30.04 C96.57 33.98, 90.71 38.12, 83.48 40.7 C76.24 43.29, 65.56 44.97, 56.3 45.53 C47.04 46.08, 36.32 45.91, 27.91 44.03 C19.51 42.15, 10.65 37.85, 5.9 34.25 C1.14 30.64, -1.38 26.61, -0.61 22.4 C0.16 18.2, 5.05 12.49, 10.52 9.01 C15.99 5.54, 22.96 2.92, 32.22 1.56 C41.48 0.2, 59.64 0.6, 66.1 0.84 C72.57 1.08, 71.24 2.71, 70.99 2.99 M57.22 -0.21 C66.2 0.21, 76.12 3.57, 83.35 5.99 C90.58 8.41, 97.41 10.49, 100.62 14.31 C103.83 18.14, 104.79 24.87, 102.61 28.96 C100.42 33.05, 94.41 36.14, 87.52 38.87 C80.63 41.6, 70.62 44.66, 61.28 45.34 C51.94 46.02, 39.91 44.26, 31.49 42.94 C23.07 41.62, 15.96 40.35, 10.75 37.41 C5.54 34.47, 0.64 29.79, 0.25 25.3 C-0.15 20.81, 3.87 14.08, 8.39 10.47 C12.9 6.87, 19.12 5.49, 27.34 3.66 C35.55 1.82, 52.55 -0.24, 57.67 -0.54 C62.78 -0.84, 58.18 1.39, 58.01 1.84" stroke="none" stroke-width="0" fill="#ced4da"></path><path d="M58.11 0.86 C67.09 0.9, 77.84 2.35, 84.99 5.04 C92.14 7.74, 98.3 12.84, 101.01 17.01 C103.72 21.18, 103.99 26.21, 101.26 30.05 C98.52 33.9, 91.6 37.45, 84.6 40.1 C77.61 42.75, 68.42 45.23, 59.29 45.95 C50.16 46.67, 38.39 46.1, 29.83 44.4 C21.28 42.69, 12.9 39.2, 7.95 35.7 C3.01 32.2, 0.3 27.61, 0.17 23.39 C0.03 19.17, 2.27 14, 7.12 10.39 C11.98 6.77, 19.73 3.34, 29.3 1.71 C38.87 0.09, 58.03 0.63, 64.52 0.66 C71.01 0.69, 68.62 1.65, 68.23 1.87 M72.31 3.72 C80.37 4.76, 89.17 6.46, 94.09 9.54 C99.02 12.62, 101.84 17.73, 101.86 22.19 C101.88 26.66, 99 32.92, 94.22 36.32 C89.45 39.72, 81.68 40.94, 73.2 42.59 C64.71 44.25, 52.71 46.9, 43.3 46.26 C33.89 45.63, 23.71 41.45, 16.74 38.79 C9.77 36.12, 3.76 33.95, 1.49 30.29 C-0.79 26.63, 0.49 20.94, 3.08 16.81 C5.67 12.67, 9.99 8.43, 17.04 5.46 C24.08 2.48, 35.84 -0.6, 45.35 -1.05 C54.86 -1.5, 69.4 2.22, 74.08 2.77 C78.77 3.32, 74.07 1.85, 73.44 2.25" stroke="#000000" stroke-width="1" fill="none"></path></g><g transform="translate(35.902949537980476 48.59765625) rotate(0 46.5 9.5)"><text x="46.5" y="15" font-family="Helvetica, Segoe UI Emoji" font-size="16px" fill="#000000" text-anchor="middle" style="white-space: pre;" direction="ltr">ticker</text></g><g transform="translate(116.24826203798045 318.3671875) rotate(36.421310017178165 17 11.5)"><text x="17" y="19" font-family="Helvetica, Segoe UI Emoji" font-size="20px" fill="#000000" text-anchor="middle" style="white-space: pre;" direction="ltr">......</text></g><g transform="translate(400.8873245379805 316.0078125000002) rotate(36.421310017178165 17 11.5)"><text x="17" y="19" font-family="Helvetica, Segoe UI Emoji" font-size="20px" fill="#000000" text-anchor="middle" style="white-space: pre;" direction="ltr">......</text></g><g stroke-linecap="round"><g transform="translate(210.19591828798048 224.64453125) rotate(0 -20.894892052244415 19.657442052289866)"><path d="M-0.27 -0.68 C-7.34 6.02, -35.55 33.11, -42.56 39.99 M1.8 1.58 C-5.44 7.92, -36.1 31.85, -43.59 38.06" stroke="#000000" stroke-width="1" fill="none"></path></g></g><g stroke-linecap="round"><g transform="translate(209.7551657150417 224.94466235322875) rotate(0 29.741485055722308 47.72312165132723)"><path d="M-0.57 0.16 C9.61 15.83, 49.69 79.3, 60.05 95.21 M1.34 -0.81 C11.41 15.5, 48.87 80.01, 58.88 96.25" stroke="#000000" stroke-width="1" fill="none"></path></g></g><g stroke-linecap="round"><g transform="translate(254.09044953798048 221.421875) rotate(0 64.63195279724891 29.245473278593238)"><path d="M-0.82 0.02 C20.7 9.85, 108.36 48.55, 130.09 58.34 M0.94 -1.02 C22.24 9.02, 107.97 49.34, 129.24 59.51" stroke="#000000" stroke-width="1" fill="none"></path></g></g><g stroke-linecap="round"><g transform="translate(253.41857453798048 219.359375) rotate(0 142.3975496502593 20.973698917441084)"><path d="M0.03 0.22 C47.93 7.14, 238.55 35.75, 286.2 42.65 M-1.41 -0.71 C46.43 6.35, 237.51 33.54, 285.25 40.78" stroke="#000000" stroke-width="1" fill="none"></path></g></g><g stroke-linecap="round"><g transform="translate(539.7232620379805 261.59375) rotate(0 5.474680566657412 28.02422686619684)"><path d="M0 -0.02 C1.83 9.33, 8.31 46.26, 10.16 55.72 M-1.46 -1.07 C0.81 8.49, 10.44 47.82, 12.41 57.12" stroke="#000000" stroke-width="1" fill="none"></path></g></g><g stroke-linecap="round" transform="translate(104.49669953798048 476.21484375) rotate(0 43 52)"><path d="M20.46 0.5 L70.3 -0.02 L77.96 4.53 L83.77 9.02 L84.7 19.66 L86.32 83.51 L84.04 90.76 L78.63 100.17 L64.32 104.46 L16.07 102.69 L7.9 99.3 L4.81 95.45 L1.89 82.77 L0.65 14.92 L5.9 5.94 L13.07 0.45 L22.46 1.97" stroke="none" stroke-width="0" fill="#fab005"></path><path d="M21.5 0 M21.5 0 C37.4 1.31, 50.86 1.86, 64.5 0 M21.5 0 C37.04 1.1, 53.98 0.88, 64.5 0 M64.5 0 C79.68 -1.93, 85.22 8.36, 86 21.5 M64.5 0 C77.31 -1.53, 86.05 9.43, 86 21.5 M86 21.5 C85.39 40.07, 85.87 58.12, 86 82.5 M86 21.5 C86.05 35.66, 86.42 49.92, 86 82.5 M86 82.5 C86.24 97.75, 79.24 105.13, 64.5 104 M86 82.5 C85.36 96.51, 76.68 104.34, 64.5 104 M64.5 104 C52.57 102.89, 44.44 101.9, 21.5 104 M64.5 104 C48.59 104.82, 32.11 104.91, 21.5 104 M21.5 104 C6.77 104.51, -0.56 98.82, 0 82.5 M21.5 104 C9.08 104.21, -0.64 98.42, 0 82.5 M0 82.5 C0.33 67, 1.02 54.57, 0 21.5 M0 82.5 C-1.06 69.17, 0.51 56.62, 0 21.5 M0 21.5 C-0.79 7.12, 8.92 -0.92, 21.5 0 M0 21.5 C-1.45 9.15, 5.08 1.67, 21.5 0" stroke="#000000" stroke-width="1" fill="none"></path></g><g transform="translate(109.49669953798048 509.21484375) rotate(0 38 19)"><text x="38" y="15" font-family="Helvetica, Segoe UI Emoji" font-size="16px" fill="#000000" text-anchor="middle" style="white-space: pre;" direction="ltr">Follower </text><text x="38" y="34" font-family="Helvetica, Segoe UI Emoji" font-size="16px" fill="#000000" text-anchor="middle" style="white-space: pre;" direction="ltr">1</text></g><g stroke-linecap="round"><g transform="translate(191.02794953798048 489.74609375) rotate(0 13.85490842573347 1.0517788833197983)"><path d="M-1.05 0.81 C3.56 1.1, 23.81 1.97, 28.76 2.14 M0.6 0.19 C4.95 0.08, 23.21 -0.27, 27.74 0.22" stroke="#000000" stroke-width="1" fill="none"></path></g></g><g stroke-linecap="round" transform="translate(219.85216828798048 476.76171875) rotate(0 41.068359375 15)"><path d="M39.52 0.33 C48.09 0.13, 60.32 1.55, 67.18 3.41 C74.03 5.28, 78.96 8.28, 80.65 11.5 C82.34 14.72, 81.42 19.73, 77.31 22.72 C73.19 25.71, 64.09 28.49, 55.97 29.45 C47.85 30.42, 37.05 29.49, 28.61 28.53 C20.17 27.57, 9.98 26.17, 5.32 23.69 C0.67 21.21, -0.84 16.98, 0.68 13.65 C2.2 10.32, 6.59 6.03, 14.46 3.7 C22.32 1.36, 40.72 -0.06, 47.89 -0.33 C55.07 -0.6, 57.64 1.71, 57.52 2.08 M20.7 2.36 C28.13 0.42, 42.13 -1.19, 50.84 -0.55 C59.56 0.09, 67.8 3.74, 72.98 6.2 C78.16 8.67, 82.19 11.3, 81.91 14.22 C81.63 17.14, 77.27 21.34, 71.29 23.71 C65.31 26.09, 54.59 28.05, 46.03 28.47 C37.46 28.89, 27.14 27.56, 19.91 26.24 C12.69 24.92, 5.51 23.16, 2.67 20.56 C-0.17 17.95, -0.45 13.66, 2.87 10.61 C6.18 7.56, 19.54 3.89, 22.58 2.24 C25.63 0.6, 21.07 0.82, 21.16 0.73" stroke="none" stroke-width="0" fill="#ced4da"></path><path d="M55.71 0.87 C63.77 1.88, 73.44 5.33, 77.68 8.08 C81.93 10.82, 83.19 14.17, 81.17 17.36 C79.16 20.54, 72.64 24.99, 65.62 27.19 C58.59 29.39, 47.75 30.62, 39.02 30.55 C30.29 30.49, 19.81 29.01, 13.26 26.8 C6.72 24.59, 0.92 20.67, -0.25 17.31 C-1.41 13.94, 1.63 9.26, 6.27 6.62 C10.92 3.97, 17.65 2.17, 27.63 1.42 C37.6 0.66, 58.9 1.48, 66.13 2.06 C73.37 2.65, 71.52 4.57, 71.03 4.93 M26.05 0.98 C33.75 -0.32, 46.22 1.07, 54.26 1.95 C62.3 2.83, 69.63 3.56, 74.29 6.25 C78.96 8.94, 83.15 14.92, 82.25 18.08 C81.35 21.24, 75.36 23.4, 68.89 25.21 C62.42 27.02, 52.29 28.58, 43.44 28.96 C34.59 29.34, 22.82 29.41, 15.77 27.51 C8.72 25.61, 2.89 20.82, 1.16 17.57 C-0.57 14.31, 1.27 10.8, 5.37 7.98 C9.48 5.16, 22.62 1.91, 25.79 0.66 C28.95 -0.6, 24.25 0.03, 24.37 0.44" stroke="#000000" stroke-width="1" fill="none"></path></g><g transform="translate(224.85216828798048 482.26171875) rotate(0 36 9.5)"><text x="36" y="15" font-family="Helvetica, Segoe UI Emoji" font-size="16px" fill="#000000" text-anchor="middle" style="white-space: pre;" direction="ltr">ticker</text></g><g stroke-linecap="round"><g transform="translate(192.10998078798048 526.41796875) rotate(0 13.940623142756522 0.4070513846835411)"><path d="M0.01 -1.15 C4.76 -1.19, 24.34 0.28, 29.33 0.88 M-1.45 0.86 C3.11 1.46, 23.42 2.03, 28.61 1.97" stroke="#000000" stroke-width="1" fill="none"></path></g></g><g stroke-linecap="round" transform="translate(218.52794953798048 512.1171875) rotate(0 49.5 16)"><path d="M44.84 0.79 C53.74 0.47, 66.08 1.3, 74.41 2.95 C82.73 4.6, 90.84 8.08, 94.8 10.7 C98.76 13.33, 100.41 15.76, 98.16 18.69 C95.92 21.62, 88.83 26.14, 81.33 28.27 C73.83 30.39, 62.68 31.21, 53.16 31.44 C43.64 31.68, 32.48 31.09, 24.22 29.68 C15.96 28.26, 7.54 25.73, 3.6 22.95 C-0.33 20.16, -1.58 16.02, 0.61 12.97 C2.8 9.91, 8.6 6.78, 16.74 4.62 C24.89 2.46, 43.41 0.76, 49.5 0 C55.58 -0.76, 53.31 -0.35, 53.23 0.07 M32.43 0.87 C41.27 -0.01, 55.09 0.81, 64.38 1.73 C73.68 2.65, 82.64 4.31, 88.22 6.39 C93.79 8.47, 97.55 11.02, 97.83 14.2 C98.11 17.37, 95.18 22.7, 89.91 25.43 C84.64 28.16, 75.42 29.62, 66.21 30.6 C57 31.57, 44.09 32.05, 34.63 31.27 C25.17 30.5, 15.19 28.24, 9.45 25.94 C3.71 23.63, 0.31 20.74, 0.18 17.46 C0.05 14.18, 3.21 8.78, 8.66 6.26 C14.12 3.75, 28.87 3.32, 32.88 2.38 C36.9 1.45, 32.23 0.8, 32.75 0.66" stroke="none" stroke-width="0" fill="#ced4da"></path><path d="M32.93 1.42 C41.21 -0.04, 53.63 -0.96, 62.94 -0.13 C72.24 0.7, 82.59 3.85, 88.75 6.4 C94.92 8.96, 99.45 11.99, 99.94 15.2 C100.42 18.41, 97.11 23.16, 91.67 25.68 C86.23 28.21, 76.4 29.35, 67.29 30.37 C58.19 31.39, 46.34 32.53, 37.07 31.79 C27.79 31.06, 17.89 28.6, 11.65 25.95 C5.41 23.3, 0.11 18.97, -0.39 15.88 C-0.89 12.79, 2.47 9.91, 8.65 7.4 C14.84 4.89, 31.18 1.98, 36.72 0.8 C42.26 -0.38, 41.81 0.06, 41.89 0.32 M33.73 1.25 C41.98 0.07, 53.77 0.33, 63.06 0.92 C72.34 1.5, 83.25 2.25, 89.45 4.76 C95.65 7.27, 100.13 12.84, 100.26 15.99 C100.39 19.13, 95.81 21.15, 90.23 23.63 C84.65 26.11, 75.81 29.66, 66.78 30.85 C57.75 32.04, 45.66 31.7, 36.06 30.79 C26.46 29.87, 15.18 27.53, 9.19 25.38 C3.21 23.23, 0.38 21.11, 0.16 17.88 C-0.07 14.64, 2.56 8.97, 7.86 5.98 C13.15 2.98, 27.82 0.8, 31.93 -0.08 C36.04 -0.97, 32.32 0.19, 32.53 0.65" stroke="#000000" stroke-width="1" fill="none"></path></g><g transform="translate(223.52794953798048 518.6171875) rotate(0 44.5 9.5)"><text x="44.5" y="15" font-family="Helvetica, Segoe UI Emoji" font-size="16px" fill="#000000" text-anchor="middle" style="white-space: pre;" direction="ltr">committer</text></g><g stroke-linecap="round"><g transform="translate(189.97716828798048 565.140625) rotate(0 15.204097359748516 1.1858240737155938)"><path d="M0.72 0.76 C5.72 0.89, 25.96 0.62, 30.77 0.64 M-0.36 0.12 C4.47 0.48, 25.32 2.47, 30.14 2.25" stroke="#000000" stroke-width="1" fill="none"></path></g></g><g stroke-linecap="round" transform="translate(217.67638703798048 549.78125) rotate(0 54.5 17)"><path d="M47.07 -0.42 C56.18 -1.28, 68 -0.23, 76.9 1.18 C85.8 2.58, 95.11 5.27, 100.47 8.01 C105.83 10.75, 109.17 14.69, 109.07 17.59 C108.96 20.5, 105.32 22.88, 99.82 25.43 C94.33 27.98, 84.88 31.44, 76.1 32.89 C67.32 34.34, 56.62 34.67, 47.14 34.14 C37.65 33.61, 26.88 31.64, 19.21 29.72 C11.55 27.8, 3.85 25.43, 1.15 22.63 C-1.55 19.83, 0.05 15.88, 3.02 12.92 C5.99 9.95, 11.25 6.87, 18.98 4.84 C26.71 2.81, 44.03 1.64, 49.38 0.75 C54.73 -0.13, 50.83 -0.7, 51.09 -0.47 M76.62 1.59 C85.7 2.4, 95.56 5.44, 100.74 7.75 C105.91 10.06, 107.77 12.2, 107.67 15.44 C107.58 18.68, 105.1 24.26, 100.18 27.19 C95.25 30.13, 86.54 31.79, 78.14 33.06 C69.74 34.33, 59.67 35.43, 49.77 34.82 C39.88 34.22, 26.7 31.33, 18.78 29.46 C10.85 27.58, 4.99 26.34, 2.24 23.57 C-0.51 20.8, -0.56 16.01, 2.25 12.84 C5.06 9.67, 11.69 6.79, 19.09 4.53 C26.48 2.26, 36.99 -0.24, 46.59 -0.73 C56.2 -1.22, 71.73 1.06, 76.74 1.59 C81.74 2.13, 77.05 2.26, 76.62 2.5" stroke="none" stroke-width="0" fill="#ced4da"></path><path d="M58.26 -0.59 C67.62 -0.67, 77.97 1.78, 85.86 3.55 C93.75 5.32, 101.88 7.21, 105.59 10.02 C109.3 12.83, 110.15 17.15, 108.13 20.4 C106.11 23.66, 100.38 27.37, 93.48 29.56 C86.58 31.75, 76.11 33.07, 66.73 33.56 C57.36 34.05, 46.46 33.43, 37.24 32.5 C28.02 31.57, 17.58 30.22, 11.4 27.96 C5.21 25.7, 1.05 22.22, 0.12 18.93 C-0.8 15.63, 1.21 11.1, 5.85 8.18 C10.48 5.25, 17.66 2.81, 27.93 1.38 C38.2 -0.06, 59.14 -0.65, 67.47 -0.41 C75.8 -0.17, 78 2.53, 77.92 2.81 M54.48 -1.38 C64.28 -1.41, 77.58 1.03, 85.89 2.89 C94.2 4.75, 100.57 7.01, 104.33 9.77 C108.09 12.52, 109.99 16.14, 108.47 19.4 C106.94 22.66, 101.77 26.78, 95.16 29.32 C88.54 31.87, 78.25 34.07, 68.79 34.66 C59.34 35.25, 47.88 33.72, 38.44 32.84 C29 31.96, 18.34 31.41, 12.16 29.38 C5.98 27.35, 2.36 23.78, 1.37 20.67 C0.38 17.57, 2.31 13.83, 6.21 10.75 C10.11 7.68, 16.39 3.92, 24.76 2.22 C33.13 0.53, 51.37 0.98, 56.45 0.57 C61.53 0.17, 55.62 -0.17, 55.22 -0.2" stroke="#000000" stroke-width="1" fill="none"></path></g><g transform="translate(222.67638703798048 557.28125) rotate(0 49.5 9.5)"><text x="49.5" y="15" font-family="Helvetica, Segoe UI Emoji" font-size="16px" fill="#000000" text-anchor="middle" style="white-space: pre;" direction="ltr">snapshoter</text></g><g stroke-linecap="round" transform="translate(424.7310745379805 475.220703125) rotate(0 43 52)"><path d="M20.81 1.14 L69.96 1.71 L78.02 4.46 L84.03 7.28 L86.02 22 L86.04 80.78 L84.6 91.23 L77.29 102.79 L63.98 104.92 L17.24 104.44 L9.8 101.34 L3.58 97.09 L1.94 81.22 L-0.91 15.77 L6.17 6.5 L11.64 1.95 L20.65 -1.29" stroke="none" stroke-width="0" fill="#fab005"></path><path d="M21.5 0 M21.5 0 C36.48 -0.34, 52.48 -1.97, 64.5 0 M21.5 0 C29.97 -0.89, 39.93 -0.96, 64.5 0 M64.5 0 C77.2 -1.04, 87.88 6.09, 86 21.5 M64.5 0 C77.9 -1.39, 86.54 8.21, 86 21.5 M86 21.5 C85.72 44.39, 83.81 67.2, 86 82.5 M86 21.5 C86.7 35.84, 86.38 49.18, 86 82.5 M86 82.5 C84.94 97.48, 77.8 102.7, 64.5 104 M86 82.5 C86.91 95.03, 77.91 101.74, 64.5 104 M64.5 104 C52.22 104.94, 37.73 102.2, 21.5 104 M64.5 104 C54.5 104.57, 46.1 105.08, 21.5 104 M21.5 104 C8.54 105.07, 0.01 97.08, 0 82.5 M21.5 104 C8.98 103.15, 2.26 97.46, 0 82.5 M0 82.5 C1.87 62.46, 2.12 47.78, 0 21.5 M0 82.5 C0.48 66.84, -0.66 49.61, 0 21.5 M0 21.5 C-1.5 8.89, 6.14 -0.89, 21.5 0 M0 21.5 C0.91 9.05, 6.66 -1.75, 21.5 0" stroke="#000000" stroke-width="1" fill="none"></path></g><g transform="translate(429.7310745379805 508.220703125) rotate(0 38 19)"><text x="38" y="15" font-family="Helvetica, Segoe UI Emoji" font-size="16px" fill="#000000" text-anchor="middle" style="white-space: pre;" direction="ltr">Follower </text><text x="38" y="34" font-family="Helvetica, Segoe UI Emoji" font-size="16px" fill="#000000" text-anchor="middle" style="white-space: pre;" direction="ltr">n</text></g><g stroke-linecap="round"><g transform="translate(511.3951370379805 488.623046875) rotate(0 14.22620290366001 1.260695756804239)"><path d="M0.25 0.86 C5.13 0.9, 24.75 0.87, 29.53 1.06 M-1.07 0.27 C3.68 0.38, 24.04 1.71, 28.91 2.25" stroke="#000000" stroke-width="1" fill="none"></path></g></g><g stroke-linecap="round" transform="translate(540.2193557879805 475.638671875) rotate(0 41.068359375 15)"><path d="M27.33 1.22 C34.91 0.08, 46.98 -0.58, 55.11 0.52 C63.23 1.62, 71.77 5.07, 76.08 7.81 C80.4 10.55, 82.37 13.96, 81 16.94 C79.64 19.92, 74.61 23.69, 67.89 25.7 C61.18 27.71, 49.56 28.82, 40.7 29.02 C31.84 29.21, 21.45 28.7, 14.73 26.87 C8.02 25.03, 1.86 21.29, 0.4 18 C-1.05 14.72, 1.02 10.23, 6 7.18 C10.98 4.12, 25.33 0.71, 30.29 -0.33 C35.25 -1.36, 35.52 0.53, 35.76 0.96 M57.45 1.12 C65.2 2.13, 73.75 6.11, 77.61 9.21 C81.48 12.3, 82.47 16.73, 80.64 19.67 C78.8 22.6, 73.6 25.33, 66.6 26.81 C59.59 28.29, 47.29 28.91, 38.62 28.54 C29.96 28.18, 20.75 26.36, 14.6 24.61 C8.44 22.87, 3.18 20.89, 1.71 18.07 C0.24 15.25, 1.1 10.4, 5.78 7.7 C10.45 5, 21.21 3.06, 29.76 1.87 C38.32 0.68, 52.92 0.84, 57.11 0.57 C61.29 0.3, 55.02 0.08, 54.9 0.28" stroke="none" stroke-width="0" fill="#ced4da"></path><path d="M29.77 -0.28 C37.66 -1.4, 49.74 -0.64, 57.75 0.96 C65.76 2.56, 74.01 6.31, 77.83 9.33 C81.65 12.35, 82.69 16.06, 80.66 19.09 C78.62 22.12, 72.55 25.68, 65.59 27.52 C58.63 29.37, 47.7 30.31, 38.9 30.15 C30.1 29.98, 19.1 28.9, 12.82 26.54 C6.53 24.17, 2.26 19.31, 1.19 15.93 C0.12 12.55, -0.13 8.83, 6.4 6.27 C12.93 3.71, 33.13 1.45, 40.38 0.57 C47.62 -0.31, 49.98 0.93, 49.86 0.98 M55.95 1.18 C63.56 1.78, 72.37 4.01, 76.34 6.92 C80.31 9.83, 81.41 15.43, 79.76 18.63 C78.11 21.84, 73.41 24.15, 66.44 26.15 C59.48 28.15, 47.06 30.86, 37.99 30.63 C28.91 30.41, 18.38 26.84, 11.97 24.79 C5.56 22.73, 0.59 21.39, -0.45 18.3 C-1.49 15.22, 0.99 9.15, 5.73 6.27 C10.47 3.39, 19.34 1.7, 27.99 1.02 C36.65 0.35, 52.94 2.12, 57.64 2.2 C62.33 2.28, 56.54 1.41, 56.16 1.52" stroke="#000000" stroke-width="1" fill="none"></path></g><g transform="translate(545.2193557879805 481.138671875) rotate(0 36 9.5)"><text x="36" y="15" font-family="Helvetica, Segoe UI Emoji" font-size="16px" fill="#000000" text-anchor="middle" style="white-space: pre;" direction="ltr">ticker</text></g><g stroke-linecap="round"><g transform="translate(512.6060745379805 525.294921875) rotate(0 14.260605735704303 0.10224806860094304)"><path d="M-0.67 0.01 C4.05 -0.15, 24.44 -0.26, 29.19 -0.32 M1.18 -1.03 C5.69 -1.03, 23.56 0.91, 28.4 1.23" stroke="#000000" stroke-width="1" fill="none"></path></g></g><g stroke-linecap="round" transform="translate(538.8951370379805 510.994140625) rotate(0 49.5 16)"><path d="M35.88 0.96 C44.42 -0.01, 57.3 -0.41, 66.31 0.64 C75.32 1.69, 84.44 4.62, 89.94 7.28 C95.44 9.93, 99.55 13.35, 99.31 16.56 C99.06 19.77, 94.65 24.21, 88.45 26.55 C82.26 28.89, 71.68 29.82, 62.13 30.59 C52.58 31.36, 40.06 32.23, 31.14 31.19 C22.22 30.15, 13.72 26.87, 8.59 24.34 C3.47 21.81, -0.13 18.94, 0.4 15.99 C0.94 13.04, 4.95 9.28, 11.79 6.66 C18.63 4.03, 35.82 1.16, 41.45 0.25 C47.07 -0.67, 45.57 0.74, 45.56 1.16 M54.75 1.31 C63.73 1.85, 74.84 3.91, 82.26 5.79 C89.68 7.67, 97.18 9.53, 99.27 12.59 C101.36 15.65, 98.99 21.15, 94.79 24.15 C90.59 27.14, 82.82 29.51, 74.07 30.56 C65.31 31.61, 52.24 30.71, 42.25 30.42 C32.26 30.14, 21.17 30.89, 14.13 28.85 C7.09 26.81, 1.45 21.27, 0.02 18.17 C-1.42 15.08, 1.23 13.17, 5.52 10.27 C9.81 7.37, 17.39 2.39, 25.76 0.76 C34.13 -0.87, 50.69 0.78, 55.73 0.49 C60.78 0.2, 55.87 -1.37, 56.05 -1" stroke="none" stroke-width="0" fill="#ced4da"></path><path d="M49.7 -0.15 C59.22 -0.38, 72.02 0.94, 79.94 2.9 C87.85 4.86, 94.39 8.46, 97.2 11.61 C100.01 14.76, 99.94 18.86, 96.8 21.81 C93.65 24.76, 86.19 27.47, 78.34 29.33 C70.49 31.19, 59.54 33.15, 49.7 32.97 C39.87 32.78, 27.3 30.18, 19.33 28.22 C11.36 26.25, 4.61 24.1, 1.91 21.18 C-0.78 18.25, -0.05 13.77, 3.15 10.66 C6.36 7.55, 12.21 4.14, 21.15 2.53 C30.09 0.92, 49.52 1.11, 56.78 1 C64.05 0.9, 64.87 1.76, 64.74 1.89 M29.9 1.88 C38.13 0.52, 49.69 -1.11, 59.22 -0.74 C68.76 -0.36, 80.71 1.74, 87.09 4.14 C93.48 6.53, 96.43 10.44, 97.53 13.63 C98.62 16.81, 98.45 20.57, 93.66 23.26 C88.88 25.95, 77.87 28.23, 68.81 29.74 C59.75 31.25, 48.53 32.91, 39.33 32.31 C30.13 31.72, 20.09 28.63, 13.59 26.17 C7.09 23.7, 1.41 20.82, 0.32 17.54 C-0.77 14.25, 2.08 9.31, 7.04 6.44 C12.01 3.57, 26.14 1.33, 30.11 0.3 C34.07 -0.73, 30.52 -0.23, 30.85 0.27" stroke="#000000" stroke-width="1" fill="none"></path></g><g transform="translate(543.8951370379805 517.494140625) rotate(0 44.5 9.5)"><text x="44.5" y="15" font-family="Helvetica, Segoe UI Emoji" font-size="16px" fill="#000000" text-anchor="middle" style="white-space: pre;" direction="ltr">committer</text></g><g stroke-linecap="round"><g transform="translate(510.3443557879805 564.017578125) rotate(0 14.353116498412533 0.22428176548169176)"><path d="M0.03 -1.03 C5.04 -1.07, 25.13 -0.33, 30.13 0.11 M-1.42 1.04 C3.44 1.15, 24.07 1.64, 29.16 1.44" stroke="#000000" stroke-width="1" fill="none"></path></g></g><g stroke-linecap="round" transform="translate(538.0435745379805 548.658203125) rotate(0 54.5 17)"><path d="M28.56 2.4 C36.51 0.7, 49.68 -0.33, 59.37 -0.28 C69.05 -0.23, 78.91 0.71, 86.68 2.71 C94.44 4.71, 102.53 8.65, 105.95 11.71 C109.38 14.78, 109.32 18.05, 107.24 21.1 C105.16 24.14, 100.31 27.8, 93.49 29.98 C86.67 32.16, 76.06 33.67, 66.32 34.18 C56.58 34.68, 44.18 34.25, 35.03 33 C25.87 31.76, 17.04 29.14, 11.38 26.7 C5.73 24.26, 1.85 21.43, 1.09 18.34 C0.34 15.26, 1.91 10.86, 6.85 8.19 C11.79 5.52, 26.19 3.3, 30.73 2.33 C35.28 1.36, 33.44 2.31, 34.1 2.37 M67.85 -0.07 C76.66 0.01, 85.63 1.97, 92.54 4.16 C99.45 6.34, 107.34 9.73, 109.32 13.02 C111.3 16.32, 108.08 21.01, 104.41 23.93 C100.75 26.84, 95.4 28.92, 87.31 30.52 C79.23 32.12, 65.87 33.32, 55.91 33.52 C45.95 33.72, 36.11 32.94, 27.56 31.7 C19 30.46, 8.97 28.7, 4.58 26.06 C0.19 23.42, -0.17 18.92, 1.23 15.86 C2.63 12.81, 7.03 10.04, 12.99 7.74 C18.95 5.44, 27.72 3.04, 36.97 2.04 C46.22 1.04, 63.37 1.96, 68.49 1.73 C73.62 1.5, 68.22 0.79, 67.72 0.67" stroke="none" stroke-width="0" fill="#ced4da"></path><path d="M45.04 0.71 C54.2 -0.11, 66.99 0.59, 76.19 1.74 C85.39 2.89, 94.73 5.02, 100.24 7.61 C105.75 10.2, 108.95 14.37, 109.26 17.29 C109.57 20.22, 107.33 22.73, 102.09 25.17 C96.85 27.61, 86.75 30.38, 77.83 31.92 C68.92 33.47, 58.28 34.69, 48.59 34.45 C38.9 34.2, 27.43 32.59, 19.7 30.45 C11.97 28.3, 5.06 24.48, 2.21 21.58 C-0.63 18.68, -0.11 16.02, 2.61 13.05 C5.33 10.09, 10.74 6.08, 18.54 3.78 C26.34 1.48, 43.71 -0.03, 49.41 -0.75 C55.11 -1.48, 52.62 -1.04, 52.74 -0.56 M39 -0.63 C47.86 -1.49, 60.7 1.18, 70.14 2.2 C79.57 3.23, 89.34 3.34, 95.6 5.52 C101.86 7.7, 106.24 11.96, 107.69 15.27 C109.13 18.59, 108.47 22.69, 104.28 25.41 C100.09 28.12, 91.03 30.08, 82.54 31.56 C74.05 33.04, 63.32 34.28, 53.33 34.29 C43.34 34.3, 30.94 33.25, 22.62 31.64 C14.3 30.02, 7.3 27.43, 3.43 24.61 C-0.45 21.8, -2.5 17.92, -0.65 14.76 C1.19 11.6, 7.79 8.15, 14.5 5.65 C21.22 3.16, 35.23 0.72, 39.64 -0.2 C44.05 -1.12, 40.81 -0.36, 40.98 0.15" stroke="#000000" stroke-width="1" fill="none"></path></g><g transform="translate(543.0435745379805 556.158203125) rotate(0 49.5 9.5)"><text x="49.5" y="15" font-family="Helvetica, Segoe UI Emoji" font-size="16px" fill="#000000" text-anchor="middle" style="white-space: pre;" direction="ltr">snapshoter</text></g><g transform="translate(333.0631057879805 488.953125) rotate(0 38.58203125 26.564677254098342)"><text x="38.58203125000002" y="42.129354508196705" font-family="Helvetica, Segoe UI Emoji" font-size="45.53944672131149px" fill="#000000" text-anchor="middle" style="white-space: pre;" direction="ltr">......</text></g><g stroke-linecap="round"><g transform="translate(46.03966828798059 187.05078125) rotate(0 0.5708349627962548 221.2272896784171)"><path d="M-0.44 -0.83 C-0.19 72.73, 1.17 368.2, 1.14 441.92 M1.52 1.36 C1.75 75.04, 1.33 369.77, 0.79 443.28" stroke="#000000" stroke-width="1" fill="none"></path></g></g><g stroke-linecap="round"><g transform="translate(49.047480787980476 631.10546875) rotate(0 213.3758962288219 -1.1822983670979283)"><path d="M0.3 0.48 C71.68 0.19, 356.65 -2.46, 427.76 -2.85 M-1.01 -0.31 C70.25 -0.35, 354.99 -0.96, 426.71 -1.55" stroke="#000000" stroke-width="1" fill="none"></path></g></g><g stroke-linecap="round"><g transform="translate(149.13341828798048 630.90625) rotate(0 0.1840955687541168 -17.802579157426976)"><path d="M0.72 -0.39 C0.73 -6.41, 0.82 -29.61, 0.63 -35.21 M-0.36 -1.64 C-0.51 -7.56, 0.15 -28.11, -0.04 -33.82" stroke="#000000" stroke-width="1" fill="none"></path></g><g transform="translate(149.13341828798048 630.90625) rotate(0 0.1840955687541168 -17.802579157426976)"><path d="M5.34 -16.6 C3.32 -23.83, 2.97 -28.79, 1.61 -34.06 M6.45 -17.42 C3.81 -21.96, 2.8 -27.77, -0.09 -34.48" stroke="#000000" stroke-width="1" fill="none"></path></g><g transform="translate(149.13341828798048 630.90625) rotate(0 0.1840955687541168 -17.802579157426976)"><path d="M-6.61 -16.63 C-4.47 -23.92, -0.65 -28.87, 1.61 -34.06 M-5.5 -17.44 C-4.32 -21.96, -1.53 -27.76, -0.09 -34.48" stroke="#000000" stroke-width="1" fill="none"></path></g></g><g stroke-linecap="round"><g transform="translate(474.3873245379805 628.80078125) rotate(0 0.06167403635561186 -16.967668192461133)"><path d="M0.94 0.96 C0.82 -4.84, 0.24 -28.9, 0.08 -34.9 M-0.02 0.42 C-0.36 -5.21, -0.7 -27.89, -0.82 -33.63" stroke="#000000" stroke-width="1" fill="none"></path></g><g transform="translate(474.3873245379805 628.80078125) rotate(0 0.06167403635561186 -16.967668192461133)"><path d="M6.73 -17.46 C2.36 -23.38, -0.09 -29.86, -2 -35.18 M6.12 -17.37 C3.55 -24.08, 1.06 -28.18, -1.62 -34.12" stroke="#000000" stroke-width="1" fill="none"></path></g><g transform="translate(474.3873245379805 628.80078125) rotate(0 0.06167403635561186 -16.967668192461133)"><path d="M-5.03 -17.25 C-5.08 -23.34, -3.21 -29.9, -2 -35.18 M-5.64 -17.16 C-4.06 -23.83, -2.41 -28, -1.62 -34.12" stroke="#000000" stroke-width="1" fill="none"></path></g></g><g stroke-linecap="round"><g transform="translate(344.3756057879805 628.8431143128923) rotate(0 -0.4561938672467818 -18.212465994882223)"><path d="M0.08 0.69 C0.08 -5.53, 0.59 -30.83, 0.42 -37.12 M-1.34 0.01 C-1.49 -6.07, -0.77 -29.86, -0.31 -35.85" stroke="#000000" stroke-width="1" fill="none"></path></g><g transform="translate(344.3756057879805 628.8431143128923) rotate(0 -0.4561938672467818 -18.212465994882223)"><path d="M6.15 -17.74 C2.47 -25.68, 0.78 -30.96, -1.2 -34.06 M4.64 -17.73 C3.68 -23.97, 1.62 -28.22, -0.18 -35.75" stroke="#000000" stroke-width="1" fill="none"></path></g><g transform="translate(344.3756057879805 628.8431143128923) rotate(0 -0.4561938672467818 -18.212465994882223)"><path d="M-6.35 -18.35 C-5.86 -26.09, -3.38 -31.17, -1.2 -34.06 M-7.87 -18.35 C-5.37 -24.32, -3.97 -28.4, -0.18 -35.75" stroke="#000000" stroke-width="1" fill="none"></path></g></g><g stroke-linecap="round"><g transform="translate(403.7506057879805 628.2359751659687) rotate(0 -0.2374669609778266 -17.0931284812865)"><path d="M-0.03 0.84 C-0.04 -4.8, -1.29 -29.08, -1.1 -35.03 M-1.5 0.24 C-1.07 -5.15, 0.63 -28.19, 1.03 -33.86" stroke="#000000" stroke-width="1" fill="none"></path></g><g transform="translate(403.7506057879805 628.2359751659687) rotate(0 -0.2374669609778266 -17.0931284812865)"><path d="M6.92 -18.93 C3.86 -19.33, 3.11 -25.84, 0.03 -33.1 M5.72 -16.61 C3.45 -22.43, 3.48 -26.84, 0.66 -34.09" stroke="#000000" stroke-width="1" fill="none"></path></g><g transform="translate(403.7506057879805 628.2359751659687) rotate(0 -0.2374669609778266 -17.0931284812865)"><path d="M-4.79 -19.78 C-5.33 -20, -3.57 -26.32, 0.03 -33.1 M-5.99 -17.46 C-4.68 -22.94, -1.08 -27.09, 0.66 -34.09" stroke="#000000" stroke-width="1" fill="none"></path></g></g><g transform="translate(190.77013703798048 629.69921875) rotate(0 66.5 11.5)"><text x="66.5" y="19" font-family="Helvetica, Segoe UI Emoji" font-size="20px" fill="#000000" text-anchor="middle" style="white-space: pre;" direction="ltr">heartbeat RPC</text></g><g stroke-linecap="round"><g transform="translate(98.84003219498481 317.38284213232737) rotate(0 8.076804837476118 77.1066612161095)"><path d="M1.02 -0.7 C3.77 24.86, 13.76 127.75, 16.05 153.4 M0.1 1.54 C2.75 27.31, 12.4 129.44, 15.24 154.92" stroke="#000000" stroke-width="1" fill="none"></path></g><g transform="translate(98.84003219498481 317.38284213232737) rotate(0 8.076804837476118 77.1066612161095)"><path d="M1.01 128.34 C5.57 133.22, 8.7 141.49, 15.26 153.29 M2.41 127.89 C5.87 136.68, 11.12 147.11, 15.53 154.38" stroke="#000000" stroke-width="1" fill="none"></path></g><g transform="translate(98.84003219498481 317.38284213232737) rotate(0 8.076804837476118 77.1066612161095)"><path d="M21.42 126.26 C20.58 131.87, 18.32 140.69, 15.26 153.29 M22.83 125.81 C19.01 135.2, 16.99 146.37, 15.53 154.38" stroke="#000000" stroke-width="1" fill="none"></path></g></g><g stroke-linecap="round"><g transform="translate(265.0673015066003 359.37022452026076) rotate(0 87.63435544561412 57.703840053605745)"><path d="M0.86 -0.68 C29.91 18.78, 146.33 96.88, 175.42 116.09 M-0.16 1.57 C28.75 20.73, 145.81 95.24, 175.03 114.21" stroke="#000000" stroke-width="1" fill="none"></path></g><g transform="translate(265.0673015066003 359.37022452026076) rotate(0 87.63435544561412 57.703840053605745)"><path d="M144.63 109.38 C157.87 111.72, 166.78 113.76, 176.52 113.16 M145.82 107.26 C157.7 110.26, 168.93 113.31, 174.4 113.45" stroke="#000000" stroke-width="1" fill="none"></path></g><g transform="translate(265.0673015066003 359.37022452026076) rotate(0 87.63435544561412 57.703840053605745)"><path d="M155.72 92.11 C164.55 101.25, 169.14 110.01, 176.52 113.16 M156.91 90 C164.47 99.74, 171.35 109.57, 174.4 113.45" stroke="#000000" stroke-width="1" fill="none"></path></g></g><g stroke-linecap="round"><g transform="translate(386.3599807879805 311.90234375) rotate(0 -108.3737844194751 80.98166251632392)"><path d="M-0.91 0.84 C-37.19 27.87, -181.55 134.89, -217.56 161.73 M0.81 0.23 C-35.09 26.97, -178.82 133.36, -215.25 160" stroke="#000000" stroke-width="1" fill="none"></path></g><g transform="translate(386.3599807879805 311.90234375) rotate(0 -108.3737844194751 80.98166251632392)"><path d="M-197.24 133.73 C-202.64 142.35, -207.45 149.78, -215.75 159.73 M-197.65 135.52 C-201.4 141.53, -205.52 145.86, -215.65 160.62" stroke="#000000" stroke-width="1" fill="none"></path></g><g transform="translate(386.3599807879805 311.90234375) rotate(0 -108.3737844194751 80.98166251632392)"><path d="M-185.07 150.25 C-194.16 153.69, -202.73 156.01, -215.75 159.73 M-185.48 152.04 C-192.04 154.52, -198.85 155.2, -215.65 160.62" stroke="#000000" stroke-width="1" fill="none"></path></g></g><g stroke-linecap="round"><g transform="translate(527.359737070288 367.9500929666299) rotate(0 -15.310429484945757 51.835066590831275)"><path d="M0.86 0.33 C-4.35 17.68, -25.66 87.15, -31.12 104.22 M-0.15 -0.55 C-5.43 16.47, -26.09 85.16, -31.48 102.54" stroke="#000000" stroke-width="1" fill="none"></path></g><g transform="translate(527.359737070288 367.9500929666299) rotate(0 -15.310429484945757 51.835066590831275)"><path d="M-32.52 74.46 C-31.15 82.42, -33.11 89.36, -30.47 101.72 M-32.98 72 C-32.44 81.85, -32.96 90.08, -31.61 102.19" stroke="#000000" stroke-width="1" fill="none"></path></g><g transform="translate(527.359737070288 367.9500929666299) rotate(0 -15.310429484945757 51.835066590831275)"><path d="M-12.89 80.44 C-17.61 86.69, -25.66 91.78, -30.47 101.72 M-13.35 77.98 C-18.76 86.05, -25.24 92.46, -31.61 102.19" stroke="#000000" stroke-width="1" fill="none"></path></g></g><g transform="translate(113.17696295945484 375.71875) rotate(0 38.5 13)"><text x="38.5" y="11" font-family="Helvetica, Segoe UI Emoji" font-size="11.780859009832398px" fill="#000000" text-anchor="middle" style="white-space: pre;" direction="ltr">AppendEntries</text><text x="38.5" y="24" font-family="Helvetica, Segoe UI Emoji" font-size="11.780859009832398px" fill="#000000" text-anchor="middle" style="white-space: pre;" direction="ltr">RPC to 1</text></g><g transform="translate(350.8912307879805 389.947265625) rotate(0 38.5 13)"><text x="38.5" y="11" font-family="Helvetica, Segoe UI Emoji" font-size="11.780859009832398px" fill="#000000" text-anchor="middle" style="white-space: pre;" direction="ltr">AppendEntries</text><text x="38.5" y="24" font-family="Helvetica, Segoe UI Emoji" font-size="11.780859009832398px" fill="#000000" text-anchor="middle" style="white-space: pre;" direction="ltr">RPC to n</text></g><g transform="translate(526.4187247783652 401.58203125) rotate(0 40 13)"><text x="40" y="11" font-family="Helvetica, Segoe UI Emoji" font-size="11.758012820512825px" fill="#000000" text-anchor="middle" style="white-space: pre;" direction="ltr">InstallSnapshot</text><text x="40" y="24" font-family="Helvetica, Segoe UI Emoji" font-size="11.758012820512825px" fill="#000000" text-anchor="middle" style="white-space: pre;" direction="ltr">RPC to n</text></g><g transform="translate(238.69982453798036 421.349609375) rotate(0 40 13)"><text x="40" y="11" font-family="Helvetica, Segoe UI Emoji" font-size="11.758012820512825px" fill="#000000" text-anchor="middle" style="white-space: pre;" direction="ltr">InstallSnapshot</text><text x="40" y="24" font-family="Helvetica, Segoe UI Emoji" font-size="11.758012820512825px" fill="#000000" text-anchor="middle" style="white-space: pre;" direction="ltr">RPC to 1</text></g><g transform="translate(364.0631057879805 593.2890625) rotate(0 9 11.5)"><text x="9" y="19" font-family="Helvetica, Segoe UI Emoji" font-size="20px" fill="#000000" text-anchor="middle" style="white-space: pre;" direction="ltr">...</text></g></svg>